<svg width="52" height="52" viewBox="0 0 52 52" fill="none" xmlns="http://www.w3.org/2000/svg">
<g opacity="0.7">
<path style="mix-blend-mode:screen" d="M25.1315 50.2631C39.0113 50.2631 50.2631 39.0113 50.2631 25.1315C50.2631 11.2518 39.0113 0 25.1315 0C11.2518 0 0 11.2518 0 25.1315C0 39.0113 11.2518 50.2631 25.1315 50.2631Z" fill="url(#paint0_radial_641_22225)"/>
<path fill-rule="evenodd" clip-rule="evenodd" d="M4.62342 27.658C4.07612 30.9856 4.45165 34.3995 5.70916 37.5284C8.17676 42.0081 14.3496 49.1907 17.7966 51.1951C19.0794 51.4905 20.3807 51.6985 21.6916 51.8177C26.2503 51.3469 30.758 50.4702 35.1609 49.1983C39.0139 47.2656 42.4984 44.6727 45.4565 41.5373C46.7782 39.863 47.9232 38.0565 48.8731 36.1466C50.2441 32.4648 50.9635 28.5724 50.9991 24.6438C50.7485 21.6067 50.3841 18.6304 49.9665 15.6617C48.8086 13.3066 47.3319 11.1222 45.5779 9.17005C43.3722 7.21599 40.8341 5.67308 38.084 4.61449C34.5535 3.96911 30.7799 3.43763 27.9327 3.79448C24.6553 5.0347 21.5029 6.58293 18.5179 8.41838C12.6944 14.333 7.04547 22.3812 4.6462 27.6201L4.62342 27.658Z" fill="#123D44"/>
<path fill-rule="evenodd" clip-rule="evenodd" d="M4.625 27.6587C5.035 27.3247 5.52852 26.8995 6.14352 26.3452C8.18593 24.0674 10.9117 20.4609 12.8174 17.9478C14.7535 14.9791 16.8263 11.5396 18.5347 8.45703C12.7111 14.3717 7.06223 22.4198 4.66297 27.6587H4.625Z" fill="url(#paint1_radial_641_22225)"/>
<path fill-rule="evenodd" clip-rule="evenodd" d="M12.7773 17.9102C15.1656 17.2336 17.5887 16.6861 20.0359 16.2702C23.5285 13.5445 26.9375 10.6517 30.2327 7.5463C29.5652 6.21685 28.7854 4.94681 27.9018 3.75C24.6332 5.00653 21.491 6.57001 18.5174 8.41945C16.809 11.5021 14.7211 14.9415 12.8001 17.9102H12.7773Z" fill="url(#paint2_radial_641_22225)"/>
<path fill-rule="evenodd" clip-rule="evenodd" d="M27.9334 3.77886C28.817 4.97566 29.5968 6.24571 30.2643 7.57516C32.0826 6.84758 34.0231 6.47391 35.9815 6.47423C36.5805 5.7461 37.2872 5.11369 38.0771 4.59886C34.5465 3.95348 30.773 3.42201 27.9258 3.77886H27.9334Z" fill="url(#paint3_radial_641_22225)"/>
<path fill-rule="evenodd" clip-rule="evenodd" d="M35.9805 6.47628C37.1725 6.70406 40.2399 8.3061 42.2216 10.2726C44.636 10.9559 48.2957 13.6133 49.9585 15.6254C48.8006 13.2702 47.3239 11.0858 45.5699 9.13369C43.3642 7.17963 40.8261 5.63672 38.076 4.57812C37.2845 5.09988 36.5777 5.74005 35.9805 6.47628Z" fill="url(#paint4_radial_641_22225)"/>
<path fill-rule="evenodd" clip-rule="evenodd" d="M42.2328 10.2734C42.8402 15.0264 40.57 20.4703 36.918 25.3751C38.1907 27.8777 39.621 30.297 41.2002 32.6185C43.6722 33.9946 46.3251 35.0169 49.0813 35.6555C50.3191 32.1076 50.9679 28.381 51.0023 24.6235C50.7517 21.5864 50.3873 18.6101 49.9697 15.6414C48.2917 13.6294 44.6548 10.972 42.2328 10.2886V10.2734Z" fill="url(#paint5_radial_641_22225)"/>
<path fill-rule="evenodd" clip-rule="evenodd" d="M36.891 25.3824C40.5658 20.4776 42.836 15.0337 42.2058 10.2807C40.2241 8.31422 37.1567 6.71218 35.9647 6.4844C34.0042 6.4807 32.061 6.85181 30.2398 7.57774C26.9447 10.6831 23.5356 13.5759 20.043 16.3016C20.8896 18.5658 21.6195 20.8719 22.2296 23.2109C24.4136 24.8558 26.809 26.1991 29.3515 27.2046C31.9126 26.8547 34.4312 26.2441 36.8682 25.3824H36.891Z" fill="url(#paint6_radial_641_22225)"/>
<path fill-rule="evenodd" clip-rule="evenodd" d="M22.2541 23.2016C21.6347 20.8543 20.8947 18.5406 20.037 16.2695C17.58 16.6768 15.1468 17.2167 12.7481 17.8868C10.8424 20.3999 8.11663 23.9988 6.07422 26.2842C6.41238 28.3973 6.98799 30.4654 7.79014 32.4494C9.90132 32.7716 12.0492 32.7716 14.1603 32.4494C17.1028 29.5848 19.8 26.4787 22.2237 23.1636L22.2541 23.2016Z" fill="url(#paint7_radial_641_22225)"/>
<path fill-rule="evenodd" clip-rule="evenodd" d="M7.82272 32.4738C7.02057 30.4898 6.44494 28.4217 6.10679 26.3086C5.52975 26.8629 5.03623 27.288 4.58826 27.6221C4.04097 30.9496 4.41649 34.3635 5.67401 37.4925C6.5211 37.3166 7.37813 37.1923 8.24031 37.1205C7.90092 35.6086 7.74792 34.0608 7.78475 32.5118L7.82272 32.4738Z" fill="url(#paint8_radial_641_22225)"/>
<path fill-rule="evenodd" clip-rule="evenodd" d="M14.192 32.4883C12.0808 32.8105 9.93294 32.8105 7.82177 32.4883C7.78494 34.0374 7.93792 35.5851 8.27732 37.097C12.2331 40.6959 16.1129 44.3707 19.8788 48.1594C20.9326 47.2941 22.0754 46.5433 23.2879 45.9196C20.471 41.2274 17.3885 36.8085 14.1768 32.5035L14.192 32.4883Z" fill="url(#paint9_radial_641_22225)"/>
<path fill-rule="evenodd" clip-rule="evenodd" d="M19.8787 48.1601C16.0824 44.3638 12.233 40.6966 8.27724 37.0977C7.41505 37.1695 6.55803 37.2937 5.71094 37.4697C8.17854 41.9493 14.3513 49.1319 17.7984 51.1364C18.3906 50.1949 19.0739 49.1927 19.8787 48.0993V48.1601Z" fill="url(#paint10_radial_641_22225)"/>
<path fill-rule="evenodd" clip-rule="evenodd" d="M14.1914 32.4889C17.3879 36.7939 20.4705 41.2128 23.3025 45.905C25.0089 45.0973 26.6314 44.1232 28.1466 42.997C28.344 37.6822 28.7692 32.4054 29.3918 27.1968C26.8493 26.1913 24.4539 24.848 22.2699 23.2031C19.8462 26.5182 17.149 29.6243 14.2066 32.4889H14.1914Z" fill="url(#paint11_radial_641_22225)"/>
<path fill-rule="evenodd" clip-rule="evenodd" d="M29.378 27.1974C28.7554 32.406 28.3302 37.6752 28.1328 42.9977C32.0126 40.7199 35.9684 38.5939 40.0304 36.6502C40.2583 35.2672 40.643 33.9146 41.1769 32.6186C39.598 30.2996 38.1677 27.8828 36.8947 25.3828C34.4577 26.2445 31.9391 26.8551 29.378 27.205V27.1974Z" fill="url(#paint12_radial_641_22225)"/>
<path fill-rule="evenodd" clip-rule="evenodd" d="M28.1331 42.9961C26.618 44.1223 24.9954 45.0963 23.2891 45.9041C25.1208 45.8229 26.9562 45.8838 28.7785 46.0863C28.49 45.0765 28.3381 44.0287 28.1331 42.9961Z" fill="url(#paint13_radial_641_22225)"/>
<path fill-rule="evenodd" clip-rule="evenodd" d="M28.7758 46.0881C26.9534 45.8856 25.1181 45.8247 23.2863 45.9059C22.0738 46.5296 20.931 47.2804 19.8772 48.1457C19.0724 49.2163 18.3587 50.2185 17.7969 51.1828C19.0796 51.4781 20.381 51.6862 21.6919 51.8054C26.2506 51.3345 30.7582 50.4579 35.1612 49.1859C33.1469 47.9491 31.0063 46.9309 28.7758 46.1489V46.0881Z" fill="url(#paint14_radial_641_22225)"/>
<path fill-rule="evenodd" clip-rule="evenodd" d="M28.1328 42.9968C28.3378 44.0293 28.4897 45.0771 28.7782 46.087C31.0087 46.869 33.1493 47.8871 35.1636 49.124C39.0165 47.1913 42.5011 44.5984 45.4591 41.463C46.7809 39.7887 47.9258 37.9822 48.8758 36.0723L49.058 35.6016C46.3399 35.6775 42.293 35.9128 40.0304 36.6114C35.9684 38.5551 32.0126 40.6962 28.1328 42.9588V42.9968Z" fill="url(#paint15_radial_641_22225)"/>
<path fill-rule="evenodd" clip-rule="evenodd" d="M41.1738 32.6207C40.6399 33.9167 40.2552 35.2693 40.0273 36.6523C42.3051 35.9538 46.3368 35.7184 49.055 35.6425C46.2988 35.0039 43.6458 33.9816 41.1738 32.6055V32.6207Z" fill="url(#paint16_radial_641_22225)"/>
<path style="mix-blend-mode:screen" fill-rule="evenodd" clip-rule="evenodd" d="M13.4102 17.7357C15.6055 17.2134 17.7681 16.5618 19.8866 15.7844C22.4355 14.1295 24.8799 12.3191 27.2059 10.3633C24.9281 12.4361 22.2859 14.805 20.8205 16.4981C20.8943 17.811 21.1107 19.1119 21.4659 20.3779C20.9505 19.1796 20.2455 18.0721 19.3779 17.0979C17.3753 17.1572 15.3801 17.3704 13.4102 17.7357Z" fill="url(#paint17_radial_641_22225)"/>
<path style="mix-blend-mode:screen" fill-rule="evenodd" clip-rule="evenodd" d="M21.6711 21.0117C21.8424 21.6988 21.9039 22.4086 21.8534 23.1149C19.9738 25.8589 17.9222 28.4811 15.7109 30.9656C17.9508 28.8321 20.1298 26.6302 22.1495 24.2917C22.4235 24.1896 22.7152 24.1432 23.0074 24.1551C24.3978 24.9676 25.844 25.6805 27.3352 26.2886C25.6461 25.3429 24.0519 24.2369 22.5746 22.9858C22.1868 22.371 21.883 21.7071 21.6711 21.0117Z" fill="url(#paint18_radial_641_22225)"/>
<path style="mix-blend-mode:screen" fill-rule="evenodd" clip-rule="evenodd" d="M28.2305 9.43788C28.7923 8.77733 29.3618 8.11677 29.954 7.46381C29.5831 6.51679 29.1336 5.60248 28.6101 4.73047C29.2518 5.52592 29.8403 6.36293 30.3716 7.23603C31.2623 7.0112 32.1682 6.85133 33.0821 6.75769C32.152 6.9742 31.25 7.29778 30.3944 7.72195C29.633 8.2415 28.9098 8.81495 28.2305 9.43788Z" fill="url(#paint19_radial_641_22225)"/>
<path style="mix-blend-mode:screen" fill-rule="evenodd" clip-rule="evenodd" d="M18.0469 16.6586C18.6309 16.5724 19.2244 16.5724 19.8084 16.6586C20.1552 17.063 20.437 17.519 20.6435 18.0101C20.4609 17.5043 20.3509 16.9751 20.3171 16.4384C21.0279 15.6797 21.7889 14.9694 22.5948 14.3125C21.7217 14.9503 20.8485 15.5805 19.945 16.1271C19.3279 16.356 18.6964 16.5437 18.0545 16.689L18.0469 16.6586Z" fill="url(#paint20_radial_641_22225)"/>
<path fill-rule="evenodd" clip-rule="evenodd" d="M31.192 10.6471C30.3637 11.3274 29.5824 12.063 28.8535 12.8489C28.2005 13.4867 27.1527 13.9878 26.8566 14.8458C26.4846 15.9391 27.5248 17.1236 29.2103 17.2299C30.5026 17.3218 31.8014 17.2117 33.0598 16.9034C34.5783 16.3871 36.2259 15.643 37.0155 14.2156C37.6153 13.1147 37.2509 11.0723 36.1044 10.4876C34.9579 9.903 32.3081 9.78152 31.192 10.6471Z" fill="url(#paint21_radial_641_22225)"/>
<path fill-rule="evenodd" clip-rule="evenodd" d="M29.9463 18.7076C28.6935 19.1404 27.3192 20.2262 27.2812 21.6839C27.2812 23.3164 29.7944 23.3999 30.9485 23.4075C31.2119 23.4138 31.4738 23.3674 31.719 23.2709C31.9641 23.1744 32.1875 23.0298 32.3759 22.8456C33.1352 22.0104 34.0994 18.776 32.6492 18.4723C31.743 18.3156 30.8117 18.3967 29.9463 18.7076Z" fill="url(#paint22_radial_641_22225)"/>
<path fill-rule="evenodd" clip-rule="evenodd" d="M21.0036 8.3994C20.5633 9.25736 20.4949 11.482 21.4212 12.1122C22.469 12.8183 27.4422 9.54589 26.3412 8.23237C25.2403 6.91884 21.3377 7.74643 21.0264 8.3994H21.0036Z" fill="url(#paint23_radial_641_22225)"/>
<path fill-rule="evenodd" clip-rule="evenodd" d="M22.3759 26.991C20.7967 27.2947 19.1187 29.9825 18.7467 31.5466C18.3746 33.1107 19.0807 34.0749 19.8704 33.7636C21.6167 33.0803 26.5367 31.0759 26.8707 28.9651C26.9292 28.718 26.9356 28.4614 26.8895 28.2117C26.8434 27.962 26.7458 27.7246 26.603 27.5146C26.4602 27.3047 26.2752 27.1267 26.0599 26.9922C25.8445 26.8576 25.6035 26.7693 25.3522 26.7329C24.354 26.6334 23.3461 26.7131 22.3759 26.9683V26.991Z" fill="url(#paint24_radial_641_22225)"/>
<path fill-rule="evenodd" clip-rule="evenodd" d="M20.7972 36.4286C20.3872 37.1043 19.9392 38.7975 20.6073 39.5567C21.2755 40.316 23.5153 39.3213 24.2062 38.8354C24.8563 38.3895 25.3795 37.7826 25.7248 37.0739C26.0133 36.4513 25.7248 34.3178 24.8668 34.2495C23.1585 34.0976 21.3286 35.525 20.7972 36.4286Z" fill="url(#paint25_radial_641_22225)"/>
<path fill-rule="evenodd" clip-rule="evenodd" d="M27.9121 15.231C28.6714 14.1377 29.9849 13.8492 31.5642 12.027C31.919 11.5755 32.3184 11.1609 32.7562 10.7894C33.0375 10.5435 33.3651 10.3564 33.7198 10.2391C34.0744 10.1217 34.449 10.0765 34.8214 10.106C33.7432 9.8327 31.8982 9.86307 31.0706 10.4781C30.2668 11.1915 29.5062 11.9521 28.7929 12.7559C28.1399 13.3936 27.0617 13.9327 26.7656 14.7983C26.4695 15.6638 27.0466 16.4307 27.9653 16.8786C27.8436 16.7774 27.7445 16.6518 27.6744 16.5099C27.6042 16.368 27.5647 16.213 27.5582 16.0548C27.5518 15.8967 27.5786 15.739 27.637 15.5918C27.6953 15.4447 27.7839 15.3114 27.8969 15.2007L27.9121 15.231Z" fill="url(#paint26_radial_641_22225)"/>
<path fill-rule="evenodd" clip-rule="evenodd" d="M28.175 22.9766C27.9092 21.9744 28.2433 21.5416 29.0481 20.6988C29.8529 19.8561 32.2902 18.5349 33.3987 19.6055C33.3987 19.0209 33.1937 18.4818 32.6926 18.3755C31.7377 18.2149 30.7575 18.3012 29.8453 18.6261C28.5926 19.0513 27.2335 20.2509 27.2031 21.6631C27.2147 21.9515 27.3139 22.2296 27.4875 22.4602C27.6612 22.6908 27.901 22.863 28.175 22.9538V22.9766Z" fill="url(#paint27_radial_641_22225)"/>
<path fill-rule="evenodd" clip-rule="evenodd" d="M19.1794 31.7462C19.9198 30.2557 21.1427 29.0596 22.6492 28.3523C23.5831 27.8968 25.5268 27.5475 26.5518 27.9575C26.6572 28.0067 26.7565 28.0679 26.8479 28.1398C26.7717 27.7718 26.5858 27.4356 26.3147 27.1754C26.0437 26.9152 25.7001 26.7432 25.3294 26.682C24.3096 26.5593 23.2754 26.6498 22.2924 26.9477C20.7359 27.3577 19.0351 29.9848 18.6631 31.564C18.5363 31.9181 18.506 32.2995 18.5754 32.6691C18.6448 33.0387 18.8114 33.3832 19.0579 33.6672C18.9044 33.3661 18.8334 33.0298 18.8521 32.6924C18.8707 32.355 18.9785 32.0285 19.1642 31.7462H19.1794Z" fill="url(#paint28_radial_641_22225)"/>
<path fill-rule="evenodd" clip-rule="evenodd" d="M21.649 8.93861C22.0818 8.53621 24.1394 8.51343 24.686 8.57417C25.0027 8.58092 25.3069 8.69864 25.5455 8.90679C25.7842 9.11494 25.9422 9.4003 25.992 9.71306C26.4399 9.15121 26.6753 8.55139 26.3564 8.19454C25.2555 6.88102 21.2542 7.73898 20.9201 8.39954C20.4873 9.24232 20.4645 11.4366 21.3529 12.1047C21.0644 11.7631 20.8442 10.9962 21.1934 9.76621C21.2605 9.46469 21.4073 9.18672 21.6186 8.9614L21.649 8.93861Z" fill="url(#paint29_radial_641_22225)"/>
<path fill-rule="evenodd" clip-rule="evenodd" d="M21.4069 36.9237C22.243 35.7938 23.4451 34.9888 24.8084 34.646C24.9201 34.6152 25.0369 34.6075 25.1518 34.6231C25.2666 34.6388 25.3771 34.6775 25.4765 34.7371C25.3247 34.4637 25.0817 34.198 24.8311 34.1828C23.1228 34.031 21.2626 35.4963 20.7235 36.3998C20.3135 37.0832 19.8959 38.8067 20.5565 39.566C20.713 39.7102 20.9083 39.8052 21.1184 39.8393C20.5565 39.0041 20.9361 37.7134 21.4069 36.9237Z" fill="url(#paint30_radial_641_22225)"/>
<path style="mix-blend-mode:screen" fill-rule="evenodd" clip-rule="evenodd" d="M21.7313 9.07552C21.1011 9.69053 22.3235 10.5409 22.8018 10.7459C23.5611 11.0724 25.1252 10.3131 25.4517 9.55386C25.4686 9.48674 25.4691 9.41654 25.4532 9.34916C25.4374 9.28178 25.4056 9.21919 25.3606 9.16664C24.8291 8.40738 22.2248 8.59719 21.7313 9.07552Z" fill="url(#paint31_radial_641_22225)"/>
<path style="mix-blend-mode:screen" fill-rule="evenodd" clip-rule="evenodd" d="M33.3251 10.7208C32.6418 11.1308 31.7003 12.0875 31.7231 12.5051C31.7458 12.9227 32.7025 12.7784 33.5149 13.1429C34.502 13.5832 35.2688 14.9651 36.0129 14.8132C37.0075 14.6234 37.2277 13.1808 37.0303 12.3305C36.9468 11.9482 36.8087 11.58 36.6203 11.2371C36.4726 11.0133 36.2683 10.8325 36.0281 10.7132C35.624 10.4566 35.1552 10.3203 34.6766 10.3203C34.1979 10.3203 33.7292 10.4566 33.3251 10.7132V10.7208Z" fill="url(#paint32_radial_641_22225)"/>
<path style="mix-blend-mode:screen" fill-rule="evenodd" clip-rule="evenodd" d="M30.7937 20.5392C31.2265 20.6987 31.6897 20.8429 32.1832 21.0252C32.8969 21.2833 33.1019 21.1011 33.2082 20.5241C33.2651 20.3024 33.2651 20.07 33.2082 19.8483C33.1873 19.775 33.1507 19.7071 33.1008 19.6494C33.051 19.5917 32.9892 19.5456 32.9197 19.5142C32.147 19.3586 31.3444 19.4683 30.6419 19.8255C30.1028 20.1672 30.4065 20.3874 30.8089 20.5392H30.7937Z" fill="url(#paint33_radial_641_22225)"/>
<path style="mix-blend-mode:screen" fill-rule="evenodd" clip-rule="evenodd" d="M22.0171 28.9733C21.4932 29.4592 21.8652 29.7326 22.0778 29.8313C22.7899 30.1361 23.5459 30.3258 24.3176 30.3931C24.9326 30.469 26.2006 30.1501 26.4739 29.4744C26.5954 29.1783 26.7169 28.5633 26.4739 28.3051C26.3432 28.1741 26.1719 28.0911 25.988 28.0698C24.8871 27.9027 22.8674 28.1837 22.0171 28.9733Z" fill="url(#paint34_radial_641_22225)"/>
<path style="mix-blend-mode:screen" fill-rule="evenodd" clip-rule="evenodd" d="M23.4081 36.4016C23.9396 36.5079 25.739 36.6749 25.6859 35.8094C25.6437 35.4714 25.4789 35.1607 25.2227 34.9362C25.1189 34.8628 24.9927 34.8279 24.8658 34.8375C24.394 34.8977 23.9379 35.0472 23.522 35.2779C22.9449 35.6195 22.9449 36.3105 23.4384 36.4016H23.4081Z" fill="url(#paint35_radial_641_22225)"/>
<path fill-rule="evenodd" clip-rule="evenodd" d="M43.6505 20.8271C42.3142 21.8824 39.2165 25.3143 40.325 27.2656C41.2361 28.8676 44.8805 27.0986 45.9283 26.4C46.9761 25.7015 47.128 23.6439 46.9002 22.4671C46.5965 20.9486 44.9109 19.8324 43.6505 20.8271Z" fill="url(#paint36_radial_641_22225)"/>
<path fill-rule="evenodd" clip-rule="evenodd" d="M45.798 14.8949C45.5822 14.8713 45.3639 14.8989 45.1608 14.9754C44.9576 15.0519 44.7754 15.1752 44.6288 15.3353C44.0705 16.0287 43.6806 16.8422 43.4899 17.7118C43.2925 18.6077 44.8414 19.4732 45.5779 19.496C45.8847 19.5162 46.192 19.4658 46.4763 19.3486C46.7606 19.2315 47.0143 19.0507 47.2179 18.8203C47.7873 18.061 46.9597 15.024 45.798 14.8949Z" fill="url(#paint37_radial_641_22225)"/>
<path fill-rule="evenodd" clip-rule="evenodd" d="M44.8348 25.8985C43.819 26.5675 42.6724 27.0127 41.4713 27.2045C40.4615 27.3487 40.0819 26.5743 40.135 25.8074C40.0177 26.2964 40.0712 26.8109 40.2869 27.2652C41.198 28.8672 44.9867 27.1361 46.0648 26.4376C47.143 25.7391 47.1582 23.6511 46.9304 22.4743C46.8725 22.1629 46.7648 21.863 46.6115 21.5859C46.8131 22.7021 46.6283 23.8537 46.0876 24.8508C45.7413 25.2624 45.3249 25.6094 44.8576 25.8758L44.8348 25.8985Z" fill="url(#paint38_radial_641_22225)"/>
<path fill-rule="evenodd" clip-rule="evenodd" d="M45.5199 19.1169C45.0668 19.2319 44.5867 19.1637 44.1836 18.9271C44.5719 19.2536 45.037 19.4757 45.5351 19.5725C45.8658 19.5786 46.1941 19.514 46.4978 19.3831C46.8016 19.2522 47.0739 19.0579 47.2966 18.8132C47.8204 18.1071 47.0688 15.3965 46.0438 14.9258C46.7499 15.8141 47.1447 17.325 46.5145 18.2893C46.2685 18.647 45.9226 18.9243 45.5199 19.0865V19.1169Z" fill="url(#paint39_radial_641_22225)"/>
<path style="mix-blend-mode:screen" fill-rule="evenodd" clip-rule="evenodd" d="M43.85 20.8266C43.0536 21.4003 42.3539 22.0975 41.7772 22.8918C40.7522 24.3192 42.0733 24.1218 43.2957 23.7574C44.055 23.5144 46.105 22.7399 45.9532 21.639C45.8973 21.4296 45.793 21.2363 45.6487 21.0747C45.5043 20.9131 45.324 20.7876 45.1222 20.7086C44.9205 20.6295 44.7029 20.599 44.4872 20.6195C44.2715 20.64 44.0636 20.7109 43.8804 20.8266H43.85Z" fill="url(#paint40_radial_641_22225)"/>
<path style="mix-blend-mode:screen" fill-rule="evenodd" clip-rule="evenodd" d="M45.0899 15.1093C44.5053 15.3371 43.9358 16.5216 43.7308 17.0454C43.1993 18.4045 45.6745 16.4304 45.9099 16.1115C46.1453 15.7927 46.2212 14.9878 45.6897 14.9727C45.4825 14.9768 45.2784 15.0233 45.0899 15.1093Z" fill="url(#paint41_radial_641_22225)"/>
<path fill-rule="evenodd" clip-rule="evenodd" d="M14.9564 19.2313C13.7098 19.495 12.5533 20.0785 11.6005 20.9245C10.5375 21.9799 9.16327 25.2751 9.9529 26.7252C10.1872 27.139 10.5154 27.4919 10.911 27.7557C11.3066 28.0194 11.7586 28.1866 12.2307 28.2438C13.6812 28.3327 15.1174 27.9139 16.2927 27.0593C17.3785 26.2393 17.9403 25.0473 18.7831 23.9767C19.3711 23.3032 19.9091 22.5876 20.3927 21.8356C21.152 20.5449 19.922 19.201 18.9881 19.0415C17.6508 18.7764 16.27 18.8284 14.9564 19.1934V19.2313Z" fill="url(#paint42_radial_641_22225)"/>
<path fill-rule="evenodd" clip-rule="evenodd" d="M12.3301 22.1233C13.5904 20.8174 17.0603 20.0202 18.8445 20.1037C19.2532 20.1367 19.6397 20.3033 19.9443 20.5777C20.2489 20.8522 20.4547 21.2192 20.5301 21.6222C20.6018 21.3535 20.6193 21.0731 20.5816 20.7975C20.5438 20.5219 20.4516 20.2566 20.3103 20.017C20.1689 19.7774 19.9813 19.5684 19.7583 19.4021C19.5353 19.2358 19.2815 19.1155 19.0116 19.0483C17.6644 18.7793 16.2728 18.8313 14.9495 19.2002C13.6846 19.4545 12.5074 20.0326 11.5328 20.8782C10.4699 21.9335 9.05765 25.2894 9.85487 26.7396C10.0107 26.9781 10.1942 27.1973 10.4015 27.3926C9.87765 26.2613 10.6521 23.8545 12.3073 22.1537L12.3301 22.1233Z" fill="url(#paint43_radial_641_22225)"/>
<path style="mix-blend-mode:screen" fill-rule="evenodd" clip-rule="evenodd" d="M13.4867 21.6268C13.0387 22.0141 13.1981 22.3178 13.4031 22.5455C13.938 23.1279 14.6415 23.5287 15.4152 23.692C16.3875 23.8149 17.375 23.7109 18.3004 23.3883C18.923 23.1909 20.2289 22.0596 20.077 21.3231C20.0103 21.1234 19.898 20.942 19.7491 20.7931C19.6002 20.6442 19.4188 20.5319 19.2191 20.4652C18.1409 20.0552 14.3067 20.9207 13.4867 21.6268Z" fill="url(#paint44_radial_641_22225)"/>
<path style="mix-blend-mode:multiply" fill-rule="evenodd" clip-rule="evenodd" d="M4.62342 27.658C4.07612 30.9856 4.45165 34.3995 5.70916 37.5284C8.17676 42.0081 14.3496 49.1907 17.7966 51.1951C19.0794 51.4905 20.3807 51.6985 21.6916 51.8177C26.2503 51.3469 30.758 50.4702 35.1609 49.1983C39.0139 47.2656 42.4984 44.6727 45.4565 41.5373C46.7782 39.863 47.9232 38.0565 48.8731 36.1466C50.2441 32.4648 50.9635 28.5724 50.9991 24.6438C50.7485 21.6067 50.3841 18.6304 49.9665 15.6617C48.8086 13.3066 47.3319 11.1222 45.5779 9.17005C43.3722 7.21599 40.8341 5.67308 38.084 4.61449C34.5535 3.96911 30.7799 3.43763 27.9327 3.79448C24.6553 5.0347 21.5029 6.58293 18.5179 8.41838C12.6944 14.333 7.04547 22.3812 4.6462 27.6201L4.62342 27.658Z" fill="url(#paint45_radial_641_22225)"/>
<path style="mix-blend-mode:screen" fill-rule="evenodd" clip-rule="evenodd" d="M4.62342 27.658C4.07612 30.9856 4.45165 34.3995 5.70916 37.5284C8.17676 42.0081 14.3496 49.1907 17.7966 51.1951C19.0794 51.4905 20.3807 51.6985 21.6916 51.8177C26.2503 51.3469 30.758 50.4702 35.1609 49.1983C39.0139 47.2656 42.4984 44.6727 45.4565 41.5373C46.7782 39.863 47.9232 38.0565 48.8731 36.1466C50.2441 32.4648 50.9635 28.5724 50.9991 24.6438C50.7485 21.6067 50.3841 18.6304 49.9665 15.6617C48.8086 13.3066 47.3319 11.1222 45.5779 9.17005C43.3722 7.21599 40.8341 5.67308 38.084 4.61449C34.5535 3.96911 30.7799 3.43763 27.9327 3.79448C24.6553 5.0347 21.5029 6.58293 18.5179 8.41838C12.6944 14.333 7.04547 22.3812 4.6462 27.6201L4.62342 27.658Z" fill="url(#paint46_radial_641_22225)"/>
</g>
<defs>
<radialGradient id="paint0_radial_641_22225" cx="0" cy="0" r="1" gradientUnits="userSpaceOnUse" gradientTransform="translate(25.1315 25.1315) scale(25.1315 25.1315)">
<stop stop-color="#00DED3"/>
<stop offset="1"/>
</radialGradient>
<radialGradient id="paint1_radial_641_22225" cx="0" cy="0" r="1" gradientUnits="userSpaceOnUse" gradientTransform="translate(-0.947976 1.79831) scale(24.1293 24.1293)">
<stop stop-color="#00699E"/>
<stop offset="1" stop-color="#003E66"/>
</radialGradient>
<radialGradient id="paint2_radial_641_22225" cx="0" cy="0" r="1" gradientUnits="userSpaceOnUse" gradientTransform="translate(29.7924 5.17741) scale(33.2328 33.2328)">
<stop stop-color="#04699E"/>
<stop offset="1" stop-color="#004B75"/>
</radialGradient>
<radialGradient id="paint3_radial_641_22225" cx="0" cy="0" r="1" gradientUnits="userSpaceOnUse" gradientTransform="translate(30.6819 8.22053) scale(27.4093 27.4093)">
<stop stop-color="#005787"/>
<stop offset="1" stop-color="#004A75"/>
</radialGradient>
<radialGradient id="paint4_radial_641_22225" cx="0" cy="0" r="1" gradientUnits="userSpaceOnUse" gradientTransform="translate(29.5875 16.8098) scale(21.32 21.32)">
<stop stop-color="#11527D"/>
<stop offset="1" stop-color="#003E66"/>
</radialGradient>
<radialGradient id="paint5_radial_641_22225" cx="0" cy="0" r="1" gradientUnits="userSpaceOnUse" gradientTransform="translate(42.9693 12.3614) scale(42.5034 42.5034)">
<stop stop-color="#005787"/>
<stop offset="1" stop-color="#004A75"/>
</radialGradient>
<radialGradient id="paint6_radial_641_22225" cx="0" cy="0" r="1" gradientUnits="userSpaceOnUse" gradientTransform="translate(33.4287 4.82921) scale(38.2516 38.2515)">
<stop stop-color="#0091D1"/>
<stop offset="1" stop-color="#005B89"/>
</radialGradient>
<radialGradient id="paint7_radial_641_22225" cx="0" cy="0" r="1" gradientUnits="userSpaceOnUse" gradientTransform="translate(13.6213 17.1579) scale(20.7658 20.7658)">
<stop stop-color="#0091D1"/>
<stop offset="1" stop-color="#005B89"/>
</radialGradient>
<radialGradient id="paint8_radial_641_22225" cx="0" cy="0" r="1" gradientUnits="userSpaceOnUse" gradientTransform="translate(2.97863 23.4462) scale(16.6582 16.6582)">
<stop stop-color="#0091D1"/>
<stop offset="1" stop-color="#005B89"/>
</radialGradient>
<radialGradient id="paint9_radial_641_22225" cx="0" cy="0" r="1" gradientUnits="userSpaceOnUse" gradientTransform="translate(14.7159 18.1838) scale(30.8336 30.8336)">
<stop stop-color="#0091D1"/>
<stop offset="1" stop-color="#005B89"/>
</radialGradient>
<radialGradient id="paint10_radial_641_22225" cx="0" cy="0" r="1" gradientUnits="userSpaceOnUse" gradientTransform="translate(5.91594 37.2419) scale(19.5889 19.5889)">
<stop stop-color="#005C89"/>
<stop offset="1" stop-color="#003E66"/>
</radialGradient>
<radialGradient id="paint11_radial_641_22225" cx="0" cy="0" r="1" gradientUnits="userSpaceOnUse" gradientTransform="translate(18.5799 19.0727) scale(34.3566 34.3565)">
<stop stop-color="#0284C2"/>
<stop offset="1" stop-color="#005D8C"/>
</radialGradient>
<radialGradient id="paint12_radial_641_22225" cx="0" cy="0" r="1" gradientUnits="userSpaceOnUse" gradientTransform="translate(32.0506 23.7732) scale(35.6852 35.6853)">
<stop stop-color="#04699E"/>
<stop offset="1" stop-color="#004B75"/>
</radialGradient>
<radialGradient id="paint13_radial_641_22225" cx="0" cy="0" r="1" gradientUnits="userSpaceOnUse" gradientTransform="translate(26.5159 44.1957) scale(8.4126 8.41262)">
<stop stop-color="#006FA8"/>
<stop offset="1" stop-color="#00558A"/>
</radialGradient>
<radialGradient id="paint14_radial_641_22225" cx="0" cy="0" r="1" gradientUnits="userSpaceOnUse" gradientTransform="translate(26.8928 35.7166) scale(17.7211 17.7212)">
<stop stop-color="#006091"/>
<stop offset="1" stop-color="#00335C"/>
</radialGradient>
<radialGradient id="paint15_radial_641_22225" cx="0" cy="0" r="1" gradientUnits="userSpaceOnUse" gradientTransform="translate(23.9493 21.0617) scale(34.6451 34.6451)">
<stop stop-color="#0A72AD"/>
<stop offset="1" stop-color="#004373"/>
</radialGradient>
<radialGradient id="paint16_radial_641_22225" cx="0" cy="0" r="1" gradientUnits="userSpaceOnUse" gradientTransform="translate(38.7746 23.2058) scale(18.488 18.488)">
<stop stop-color="#005E8F"/>
<stop offset="1" stop-color="#003F66"/>
</radialGradient>
<radialGradient id="paint17_radial_641_22225" cx="0" cy="0" r="1" gradientUnits="userSpaceOnUse" gradientTransform="translate(20.5852 15.139) scale(9.37687 9.37687)">
<stop stop-color="#009499"/>
<stop offset="1"/>
</radialGradient>
<radialGradient id="paint18_radial_641_22225" cx="0" cy="0" r="1" gradientUnits="userSpaceOnUse" gradientTransform="translate(22.0356 23.7602) scale(8.71631 8.71631)">
<stop stop-color="#009499"/>
<stop offset="1"/>
</radialGradient>
<radialGradient id="paint19_radial_641_22225" cx="0" cy="0" r="1" gradientUnits="userSpaceOnUse" gradientTransform="translate(30.6601 7.09177) scale(2.39167 2.39167)">
<stop stop-color="#009499"/>
<stop offset="1"/>
</radialGradient>
<radialGradient id="paint20_radial_641_22225" cx="0" cy="0" r="1" gradientUnits="userSpaceOnUse" gradientTransform="translate(21.3421 16.2182) scale(4.50241 4.50241)">
<stop stop-color="#00D7DE"/>
<stop offset="1"/>
</radialGradient>
<radialGradient id="paint21_radial_641_22225" cx="0" cy="0" r="1" gradientUnits="userSpaceOnUse" gradientTransform="translate(32.1107 9.3867) scale(8.45058 8.45057)">
<stop stop-color="#70FFE6"/>
<stop offset="0.35" stop-color="#6EFEE5"/>
<stop offset="0.52" stop-color="#66FCE2"/>
<stop offset="0.65" stop-color="#59F9DD"/>
<stop offset="0.77" stop-color="#46F4D6"/>
<stop offset="0.87" stop-color="#2EEDCC"/>
<stop offset="0.96" stop-color="#11E5C1"/>
<stop offset="1" stop-color="#00E0BA"/>
</radialGradient>
<radialGradient id="paint22_radial_641_22225" cx="0" cy="0" r="1" gradientUnits="userSpaceOnUse" gradientTransform="translate(30.622 18.3204) scale(5.12501 5.12501)">
<stop stop-color="#70FFE6"/>
<stop offset="0.35" stop-color="#6EFEE5"/>
<stop offset="0.52" stop-color="#66FCE2"/>
<stop offset="0.65" stop-color="#59F9DD"/>
<stop offset="0.77" stop-color="#46F4D6"/>
<stop offset="0.87" stop-color="#2EEDCC"/>
<stop offset="0.96" stop-color="#11E5C1"/>
<stop offset="1" stop-color="#00E0BA"/>
</radialGradient>
<radialGradient id="paint23_radial_641_22225" cx="0" cy="0" r="1" gradientUnits="userSpaceOnUse" gradientTransform="translate(23.3877 7.50347) scale(4.90482 4.90482)">
<stop stop-color="#70FFE6"/>
<stop offset="0.35" stop-color="#6EFEE5"/>
<stop offset="0.52" stop-color="#66FCE2"/>
<stop offset="0.65" stop-color="#59F9DD"/>
<stop offset="0.77" stop-color="#46F4D6"/>
<stop offset="0.87" stop-color="#2EEDCC"/>
<stop offset="0.96" stop-color="#11E5C1"/>
<stop offset="1" stop-color="#00E0BA"/>
</radialGradient>
<radialGradient id="paint24_radial_641_22225" cx="0" cy="0" r="1" gradientUnits="userSpaceOnUse" gradientTransform="translate(22.0722 27.7579) scale(6.00575)">
<stop stop-color="#70FFE6"/>
<stop offset="0.35" stop-color="#6EFEE5"/>
<stop offset="0.52" stop-color="#66FCE2"/>
<stop offset="0.65" stop-color="#59F9DD"/>
<stop offset="0.77" stop-color="#46F4D6"/>
<stop offset="0.87" stop-color="#2EEDCC"/>
<stop offset="0.96" stop-color="#11E5C1"/>
<stop offset="1" stop-color="#00E0BA"/>
</radialGradient>
<radialGradient id="paint25_radial_641_22225" cx="0" cy="0" r="1" gradientUnits="userSpaceOnUse" gradientTransform="translate(22.4372 33.9154) scale(6.54483 6.54483)">
<stop stop-color="#70FFE6"/>
<stop offset="0.35" stop-color="#6EFEE5"/>
<stop offset="0.52" stop-color="#66FCE2"/>
<stop offset="0.65" stop-color="#59F9DD"/>
<stop offset="0.77" stop-color="#46F4D6"/>
<stop offset="0.87" stop-color="#2EEDCC"/>
<stop offset="0.96" stop-color="#11E5C1"/>
<stop offset="1" stop-color="#00E0BA"/>
</radialGradient>
<radialGradient id="paint26_radial_641_22225" cx="0" cy="0" r="1" gradientUnits="userSpaceOnUse" gradientTransform="translate(35.0795 15.717) scale(9.42243 9.42243)">
<stop offset="0.45" stop-color="#30F2FF"/>
<stop offset="0.48" stop-color="#30DDF3"/>
<stop offset="0.56" stop-color="#30B5DA"/>
<stop offset="0.64" stop-color="#3094C6"/>
<stop offset="0.73" stop-color="#307BB7"/>
<stop offset="0.81" stop-color="#3068AC"/>
<stop offset="0.9" stop-color="#305EA5"/>
<stop offset="1" stop-color="#305AA3"/>
</radialGradient>
<radialGradient id="paint27_radial_641_22225" cx="0" cy="0" r="1" gradientUnits="userSpaceOnUse" gradientTransform="translate(31.8042 23.3335) scale(6.97002 6.97001)">
<stop offset="0.45" stop-color="#30F2FF"/>
<stop offset="0.48" stop-color="#2ED7EB"/>
<stop offset="0.55" stop-color="#29A8C7"/>
<stop offset="0.62" stop-color="#2580A9"/>
<stop offset="0.69" stop-color="#225E90"/>
<stop offset="0.76" stop-color="#20457D"/>
<stop offset="0.84" stop-color="#1E326F"/>
<stop offset="0.91" stop-color="#1D2867"/>
<stop offset="1" stop-color="#1D2464"/>
</radialGradient>
<radialGradient id="paint28_radial_641_22225" cx="0" cy="0" r="1" gradientUnits="userSpaceOnUse" gradientTransform="translate(24.5398 32.0727) scale(7.97224)">
<stop offset="0.45" stop-color="#30F2FF"/>
<stop offset="0.48" stop-color="#2ED7EB"/>
<stop offset="0.55" stop-color="#29A8C7"/>
<stop offset="0.62" stop-color="#2580A9"/>
<stop offset="0.69" stop-color="#225E90"/>
<stop offset="0.76" stop-color="#20457D"/>
<stop offset="0.84" stop-color="#1E326F"/>
<stop offset="0.91" stop-color="#1D2867"/>
<stop offset="1" stop-color="#1D2464"/>
</radialGradient>
<radialGradient id="paint29_radial_641_22225" cx="0" cy="0" r="1" gradientUnits="userSpaceOnUse" gradientTransform="translate(24.1925 10.4875) scale(5.4439 5.4439)">
<stop offset="0.29" stop-color="#30F2FF"/>
<stop offset="0.33" stop-color="#2EDFF0"/>
<stop offset="0.46" stop-color="#29A6C6"/>
<stop offset="0.59" stop-color="#2578A3"/>
<stop offset="0.71" stop-color="#215388"/>
<stop offset="0.82" stop-color="#1F3974"/>
<stop offset="0.92" stop-color="#1E2A68"/>
<stop offset="1" stop-color="#1D2464"/>
</radialGradient>
<radialGradient id="paint30_radial_641_22225" cx="0" cy="0" r="1" gradientUnits="userSpaceOnUse" gradientTransform="translate(24.8691 38.2221) scale(6.30947 6.30945)">
<stop offset="0.45" stop-color="#30F2FF"/>
<stop offset="0.48" stop-color="#2ED7EB"/>
<stop offset="0.55" stop-color="#29A8C7"/>
<stop offset="0.62" stop-color="#2580A9"/>
<stop offset="0.69" stop-color="#225E90"/>
<stop offset="0.76" stop-color="#20457D"/>
<stop offset="0.84" stop-color="#1E326F"/>
<stop offset="0.91" stop-color="#1D2867"/>
<stop offset="1" stop-color="#1D2464"/>
</radialGradient>
<radialGradient id="paint31_radial_641_22225" cx="0" cy="0" r="1" gradientUnits="userSpaceOnUse" gradientTransform="translate(24.2065 7.28367) scale(6.33983 6.33983)">
<stop stop-color="#D2FFF1"/>
<stop offset="1"/>
</radialGradient>
<radialGradient id="paint32_radial_641_22225" cx="0" cy="0" r="1" gradientUnits="userSpaceOnUse" gradientTransform="translate(34.6842 9.69582) scale(6.46131 6.46131)">
<stop stop-color="#D2FFF1"/>
<stop offset="1"/>
</radialGradient>
<radialGradient id="paint33_radial_641_22225" cx="0" cy="0" r="1" gradientUnits="userSpaceOnUse" gradientTransform="translate(32.3958 18.0565) scale(4.94279 4.94278)">
<stop stop-color="#D2FFF1"/>
<stop offset="1"/>
</radialGradient>
<radialGradient id="paint34_radial_641_22225" cx="0" cy="0" r="1" gradientUnits="userSpaceOnUse" gradientTransform="translate(24.8795 26.6575) scale(5.20093 5.20096)">
<stop stop-color="#D2FFF1"/>
<stop offset="1"/>
</radialGradient>
<radialGradient id="paint35_radial_641_22225" cx="0" cy="0" r="1" gradientUnits="userSpaceOnUse" gradientTransform="translate(24.8203 33.3342) scale(4.10761 4.1076)">
<stop stop-color="#D2FFF1"/>
<stop offset="1"/>
</radialGradient>
<radialGradient id="paint36_radial_641_22225" cx="0" cy="0" r="1" gradientUnits="userSpaceOnUse" gradientTransform="translate(42.0105 20.3108) scale(6.9852 6.9852)">
<stop stop-color="#70FFE6"/>
<stop offset="0.35" stop-color="#6EFEE5"/>
<stop offset="0.52" stop-color="#66FCE2"/>
<stop offset="0.65" stop-color="#59F9DD"/>
<stop offset="0.77" stop-color="#46F4D6"/>
<stop offset="0.87" stop-color="#2EEDCC"/>
<stop offset="0.96" stop-color="#11E5C1"/>
<stop offset="1" stop-color="#00E0BA"/>
</radialGradient>
<radialGradient id="paint37_radial_641_22225" cx="0" cy="0" r="1" gradientUnits="userSpaceOnUse" gradientTransform="translate(44.811 15.0316) scale(4.38853 4.38853)">
<stop stop-color="#70FFE6"/>
<stop offset="0.35" stop-color="#6EFEE5"/>
<stop offset="0.52" stop-color="#66FCE2"/>
<stop offset="0.65" stop-color="#59F9DD"/>
<stop offset="0.77" stop-color="#46F4D6"/>
<stop offset="0.87" stop-color="#2EEDCC"/>
<stop offset="0.96" stop-color="#11E5C1"/>
<stop offset="1" stop-color="#00E0BA"/>
</radialGradient>
<radialGradient id="paint38_radial_641_22225" cx="0" cy="0" r="1" gradientUnits="userSpaceOnUse" gradientTransform="translate(43.4302 22.6565) scale(6.9776 6.9776)">
<stop offset="0.45" stop-color="#30F2FF"/>
<stop offset="0.48" stop-color="#2ED7EB"/>
<stop offset="0.55" stop-color="#29A8C7"/>
<stop offset="0.62" stop-color="#2580A9"/>
<stop offset="0.69" stop-color="#225E90"/>
<stop offset="0.76" stop-color="#20457D"/>
<stop offset="0.84" stop-color="#1E326F"/>
<stop offset="0.91" stop-color="#1D2867"/>
<stop offset="1" stop-color="#1D2464"/>
</radialGradient>
<radialGradient id="paint39_radial_641_22225" cx="0" cy="0" r="1" gradientUnits="userSpaceOnUse" gradientTransform="translate(44.6391 16.6037) scale(4.21389 4.2139)">
<stop offset="0.45" stop-color="#30F2FF"/>
<stop offset="0.48" stop-color="#2ED7EB"/>
<stop offset="0.55" stop-color="#29A8C7"/>
<stop offset="0.62" stop-color="#2580A9"/>
<stop offset="0.69" stop-color="#225E90"/>
<stop offset="0.76" stop-color="#20457D"/>
<stop offset="0.84" stop-color="#1E326F"/>
<stop offset="0.91" stop-color="#1D2867"/>
<stop offset="1" stop-color="#1D2464"/>
</radialGradient>
<radialGradient id="paint40_radial_641_22225" cx="0" cy="0" r="1" gradientUnits="userSpaceOnUse" gradientTransform="translate(43.3944 20.3407) scale(5.53501)">
<stop stop-color="#D2FFF1"/>
<stop offset="1"/>
</radialGradient>
<radialGradient id="paint41_radial_641_22225" cx="0" cy="0" r="1" gradientUnits="userSpaceOnUse" gradientTransform="translate(45.0671 14.7601) scale(3.28 3.28001)">
<stop stop-color="#D2FFF1"/>
<stop offset="1"/>
</radialGradient>
<radialGradient id="paint42_radial_641_22225" cx="0" cy="0" r="1" gradientUnits="userSpaceOnUse" gradientTransform="translate(14.2427 19.7021) scale(8.24557 8.24558)">
<stop stop-color="#70FFE6"/>
<stop offset="0.35" stop-color="#6EFEE5"/>
<stop offset="0.52" stop-color="#66FCE2"/>
<stop offset="0.65" stop-color="#59F9DD"/>
<stop offset="0.77" stop-color="#46F4D6"/>
<stop offset="0.87" stop-color="#2EEDCC"/>
<stop offset="0.96" stop-color="#11E5C1"/>
<stop offset="1" stop-color="#00E0BA"/>
</radialGradient>
<radialGradient id="paint43_radial_641_22225" cx="0" cy="0" r="1" gradientUnits="userSpaceOnUse" gradientTransform="translate(17.4627 25.1907) scale(10.7132 10.7132)">
<stop offset="0.45" stop-color="#30F2FF"/>
<stop offset="0.48" stop-color="#2ED7EB"/>
<stop offset="0.55" stop-color="#29A8C7"/>
<stop offset="0.62" stop-color="#2580A9"/>
<stop offset="0.69" stop-color="#225E90"/>
<stop offset="0.76" stop-color="#20457D"/>
<stop offset="0.84" stop-color="#1E326F"/>
<stop offset="0.91" stop-color="#1D2867"/>
<stop offset="1" stop-color="#1D2464"/>
</radialGradient>
<radialGradient id="paint44_radial_641_22225" cx="0" cy="0" r="1" gradientUnits="userSpaceOnUse" gradientTransform="translate(17.4348 19.0302) scale(7.35724 7.35723)">
<stop stop-color="#D2FFF1"/>
<stop offset="1"/>
</radialGradient>
<radialGradient id="paint45_radial_641_22225" cx="0" cy="0" r="1" gradientUnits="userSpaceOnUse" gradientTransform="translate(14.2964 12.8449) scale(48.9723 48.9723)">
<stop offset="0.57" stop-color="white"/>
<stop offset="1" stop-color="#3D5A66"/>
</radialGradient>
<radialGradient id="paint46_radial_641_22225" cx="0" cy="0" r="1" gradientUnits="userSpaceOnUse" gradientTransform="translate(44.7883 47.619) scale(48.9723 48.9723)">
<stop offset="0.04"/>
<stop offset="0.82"/>
<stop offset="0.86" stop-color="#020303"/>
<stop offset="0.89" stop-color="#070B0B"/>
<stop offset="0.91" stop-color="#0F1919"/>
<stop offset="0.92" stop-color="#1B2D2D"/>
<stop offset="0.94" stop-color="#2B4848"/>
<stop offset="0.96" stop-color="#3E6868"/>
<stop offset="0.97" stop-color="#558E8E"/>
<stop offset="0.98" stop-color="#70BBBB"/>
<stop offset="1" stop-color="#99FFFF"/>
</radialGradient>
</defs>
</svg>
