<svg width="74" height="76" viewBox="0 0 74 76" fill="none" xmlns="http://www.w3.org/2000/svg">
<path style="mix-blend-mode:screen" d="M36.71 73.42C56.9844 73.42 73.42 56.9844 73.42 36.71C73.42 16.4356 56.9844 0 36.71 0C16.4356 0 0 16.4356 0 36.71C0 56.9844 16.4356 73.42 36.71 73.42Z" fill="url(#paint0_radial_1238_102718)"/>
<path fill-rule="evenodd" clip-rule="evenodd" d="M12.7499 57.91C12.3325 57.7 11.9372 57.4488 11.5699 57.16C11.4505 56.8794 11.347 56.5923 11.2599 56.3C10.7779 55.6908 10.3433 55.0456 9.9599 54.37C9.35109 53.2305 8.98344 51.9778 8.87988 50.69C8.96606 50.451 9.07314 50.2201 9.19989 50L12.1199 51.21L13.9099 54.45C13.5299 55.61 13.1599 56.76 12.7899 57.91H12.7499Z" fill="url(#paint1_radial_1238_102718)"/>
<path fill-rule="evenodd" clip-rule="evenodd" d="M14.9896 41.77L31.2096 34.21C31.8127 35.4345 32.4803 36.6262 33.2096 37.78C34.2898 39.1609 35.4732 40.458 36.7496 41.66C36.8646 41.868 36.9616 42.0854 37.0396 42.31C36.7841 43.132 36.6034 43.9754 36.4996 44.83L36.4396 46.59C36.2124 48.5159 35.7176 50.4007 34.9695 52.19C33.1543 53.2971 31.182 54.1231 29.1196 54.64C28.7236 54.6317 28.329 54.5916 27.9396 54.52C26.5611 51.8861 24.6749 49.5512 22.3896 47.65C20.5596 46.65 18.8095 45.55 17.0995 44.45L16.7795 43.85C16.0703 43.5653 15.3819 43.2312 14.7195 42.85C14.62 42.658 14.5654 42.4461 14.5596 42.23C14.6881 42.0482 14.8356 41.8806 14.9996 41.73L14.9896 41.77Z" fill="url(#paint2_radial_1238_102718)"/>
<path style="mix-blend-mode:multiply" fill-rule="evenodd" clip-rule="evenodd" d="M14.9896 41.77L31.2096 34.21C31.8127 35.4345 32.4803 36.6262 33.2096 37.78C34.2898 39.1609 35.4732 40.458 36.7496 41.66C36.8646 41.868 36.9616 42.0854 37.0396 42.31C36.7841 43.132 36.6034 43.9754 36.4996 44.83L36.4396 46.59C36.2124 48.5159 35.7176 50.4007 34.9695 52.19C33.1543 53.2971 31.182 54.1231 29.1196 54.64C28.7236 54.6317 28.329 54.5916 27.9396 54.52C26.5611 51.8861 24.6749 49.5512 22.3896 47.65C20.5596 46.65 18.8095 45.55 17.0995 44.45L16.7795 43.85C16.0703 43.5653 15.3819 43.2312 14.7195 42.85C14.62 42.658 14.5654 42.4461 14.5596 42.23C14.6881 42.0482 14.8356 41.8806 14.9996 41.73L14.9896 41.77Z" fill="url(#paint3_radial_1238_102718)"/>
<path style="mix-blend-mode:screen" fill-rule="evenodd" clip-rule="evenodd" d="M14.9896 41.77L31.2096 34.21C31.8127 35.4345 32.4803 36.6262 33.2096 37.78C34.2898 39.1609 35.4732 40.458 36.7496 41.66C36.8646 41.868 36.9616 42.0854 37.0396 42.31C36.7841 43.132 36.6034 43.9754 36.4996 44.83L36.4396 46.59C36.2124 48.5159 35.7176 50.4007 34.9695 52.19C33.1543 53.2971 31.182 54.1231 29.1196 54.64C28.7236 54.6317 28.329 54.5916 27.9396 54.52C26.5611 51.8861 24.6749 49.5512 22.3896 47.65C20.5596 46.65 18.8095 45.55 17.0995 44.45L16.7795 43.85C16.0703 43.5653 15.3819 43.2312 14.7195 42.85C14.62 42.658 14.5654 42.4461 14.5596 42.23C14.6881 42.0482 14.8356 41.8806 14.9996 41.73L14.9896 41.77Z" fill="url(#paint4_radial_1238_102718)"/>
<path fill-rule="evenodd" clip-rule="evenodd" d="M28.7395 50.3704C27.8695 49.5604 26.2695 48.0904 26.0695 47.9604C25.2495 47.4204 24.3595 47.0604 23.4995 46.5704C22.188 45.8951 20.919 45.1403 19.6995 44.3104C19.6195 44.2504 18.7695 43.3104 18.6295 43.1604C18.4895 43.0104 17.7195 42.8404 17.6295 42.7804C17.1688 42.2581 16.7508 41.6996 16.3795 41.1104L14.9595 41.7704C14.7956 41.9209 14.6481 42.0886 14.5195 42.2704C14.5253 42.4865 14.58 42.6984 14.6795 42.8904C15.3419 43.2716 16.0302 43.6057 16.7395 43.8904L17.0595 44.4904C18.7695 45.5904 20.5195 46.6604 22.3495 47.6904C24.6348 49.5916 26.5211 51.9265 27.8995 54.5603C28.1622 54.0525 28.3829 53.5241 28.5595 52.9804C28.5595 52.7604 28.6595 51.2704 28.7095 50.4104L28.7395 50.3704Z" fill="url(#paint5_radial_1238_102718)"/>
<path fill-rule="evenodd" clip-rule="evenodd" d="M31.2597 49.6305C30.4475 49.9634 29.603 50.2114 28.7397 50.3705C28.7397 51.2305 28.6397 52.7205 28.5897 52.9405C28.4131 53.4843 28.1924 54.0127 27.9297 54.5205C28.3192 54.5922 28.7138 54.6323 29.1097 54.6405C31.1652 54.1218 33.1307 53.2959 34.9397 52.1905C35.6877 50.4013 36.1825 48.5165 36.4097 46.5905L36.4697 44.8305C36.5735 43.976 36.7543 43.1326 37.0097 42.3105L35.4997 42.9805C35.0597 43.9805 34.6897 44.9805 34.1697 45.8905C33.7444 46.636 33.263 47.3481 32.7297 48.0205C32.2677 48.5822 31.7771 49.1196 31.2597 49.6305Z" fill="url(#paint6_radial_1238_102718)"/>
<path fill-rule="evenodd" clip-rule="evenodd" d="M31.0002 37.4002C31.6736 38.6402 32.4602 39.8152 33.3502 40.9102C34.0274 41.637 34.7452 42.3247 35.5002 42.9702L37.0103 42.3002C36.9323 42.0757 36.8352 41.8582 36.7202 41.6502C35.4438 40.4482 34.2604 39.1512 33.1802 37.7702C32.4509 36.6164 31.7833 35.4247 31.1802 34.2002L29.9902 34.7502C30.2515 35.6558 30.5859 36.5387 30.9902 37.3902L31.0002 37.4002Z" fill="url(#paint7_radial_1238_102718)"/>
<path fill-rule="evenodd" clip-rule="evenodd" d="M20.7996 17.9699L20.2697 16.7099C19.8173 16.4977 19.3181 16.4047 18.8197 16.4399C16.3143 18.6242 14.0845 21.1059 12.1796 23.8299C10.6746 26.7474 9.46854 29.8096 8.57967 32.9699C8.42814 35.0064 8.54579 37.0541 8.92964 39.0599C10.187 40.0735 11.5248 40.9832 12.9296 41.7799C14.0747 41.9107 15.2286 41.9475 16.3797 41.8899C18.0062 41.7295 19.6222 41.4757 21.2196 41.1299C24.7996 38.9599 28.2196 36.4599 31.5596 33.9799C31.5364 33.1752 31.4017 32.3776 31.1596 31.6099C30.0998 30.7438 29.2487 29.65 28.6696 28.4099C26.9096 27.7399 24.6697 27.1199 23.7597 26.6399C22.5173 25.868 21.4863 24.7992 20.7597 23.5299C19.7597 21.9999 20.3297 19.2599 20.8197 17.9699H20.7996Z" fill="url(#paint8_radial_1238_102718)"/>
<path fill-rule="evenodd" clip-rule="evenodd" d="M21.1801 41.1297L21.9301 38.8597C20.1616 39.5922 18.2886 40.041 16.3801 40.1897C14.8001 39.5697 13.3801 39.0597 11.7601 38.5497C11.4358 38.3956 11.1248 38.215 10.8302 38.0097C10.4472 37.9659 10.0666 37.9025 9.69014 37.8197C9.45522 37.5692 9.26269 37.2821 9.12013 36.9697C8.63043 35.6967 8.43886 34.3283 8.56014 32.9697C8.4086 35.0063 8.52626 37.0539 8.91011 39.0597C10.1675 40.0734 11.5052 40.983 12.9101 41.7797C14.0552 41.9106 15.209 41.9474 16.3601 41.8897C17.9867 41.7293 19.6027 41.4756 21.2002 41.1297H21.1801Z" fill="url(#paint9_radial_1238_102718)"/>
<path fill-rule="evenodd" clip-rule="evenodd" d="M21.9297 38.8599L21.1797 41.1299C24.7597 38.9599 28.1797 36.4599 31.5197 33.9799L30.3697 32.6299C27.6997 34.4399 25.0297 36.0999 22.4597 37.8199L21.9297 38.8199V38.8599Z" fill="url(#paint10_radial_1238_102718)"/>
<path fill-rule="evenodd" clip-rule="evenodd" d="M28.1201 29.2104C29.0042 30.2481 29.7473 31.3981 30.3301 32.6304L31.5201 33.9704C31.4968 33.1657 31.3622 32.3681 31.1201 31.6004C30.0603 30.7343 29.2092 29.6406 28.6301 28.4004L28.1601 29.2004L28.1201 29.2104Z" fill="#511334"/>
<path fill-rule="evenodd" clip-rule="evenodd" d="M19.9695 25.5002C22.4642 27.1757 25.2177 28.4291 28.1195 29.2102L28.5895 28.4102C26.8295 27.7402 24.5895 27.1202 23.6795 26.6402C22.4371 25.8683 21.4062 24.7995 20.6795 23.5302C19.6795 22.0002 20.2495 19.2602 20.7395 17.9702L19.1195 17.9102C18.3495 21.9802 18.6595 23.4502 19.9695 25.5002Z" fill="url(#paint11_radial_1238_102718)"/>
<path fill-rule="evenodd" clip-rule="evenodd" d="M19.1203 17.9099L20.8003 17.9699L20.2703 16.7099C19.8179 16.4977 19.3188 16.4047 18.8203 16.4399C18.9403 16.8899 19.0103 17.3199 19.0903 17.7599V17.9099H19.1203Z" fill="url(#paint12_radial_1238_102718)"/>
<path fill-rule="evenodd" clip-rule="evenodd" d="M20.2695 16.7104L20.5395 15.9804L22.5795 14.5904L24.1595 13.6004L26.5395 11.8704L27.7095 11.7004L31.0195 10.3404L34.4195 8.65039L37.4195 8.76039L41.3295 8.65039L45.9095 8.81039L48.0695 9.49039L49.0295 10.1204L49.7095 11.2704L35.6595 17.8204L20.7995 17.9704L20.4595 17.1404L20.2695 16.7104Z" fill="url(#paint13_radial_1238_102718)"/>
<path fill-rule="evenodd" clip-rule="evenodd" d="M19.9696 25.5C19.7474 27.8577 19.1988 30.1732 18.3396 32.38C17.5896 33.83 16.7697 35.25 15.8997 36.66C15.5287 37.6292 15.2605 38.6347 15.0996 39.66L16.3796 40.15C17.4359 40.0951 18.4826 39.9206 19.4996 39.63C20.3263 39.4129 21.138 39.1423 21.9296 38.82L22.1497 38.39L22.4597 37.78C25.0297 36.06 27.6996 34.4 30.3696 32.59C29.7713 31.3694 29.0148 30.233 28.1196 29.21C25.2038 28.4331 22.4365 27.1795 19.9296 25.5H19.9696Z" fill="url(#paint14_radial_1238_102718)"/>
<path fill-rule="evenodd" clip-rule="evenodd" d="M18.3396 32.3804C19.1988 30.1736 19.7473 27.8582 19.9696 25.5004C18.6596 23.4504 18.3496 21.9804 19.1196 17.9104V17.7604C19.0396 17.3204 18.9696 16.8904 18.8496 16.4404C16.3442 18.6248 14.1144 21.1064 12.2096 23.8304C10.7046 26.748 9.49846 29.8102 8.60958 32.9704C8.48831 34.329 8.67988 35.6974 9.16958 36.9704C9.3079 37.2744 9.49353 37.5546 9.71957 37.8004C10.0961 37.8832 10.4766 37.9466 10.8596 37.9904C11.1542 38.1957 11.4652 38.3763 11.7896 38.5304C12.9596 38.9004 14.0296 39.2704 15.1296 39.6804C15.2905 38.6552 15.5586 37.6497 15.9296 36.6804C16.7996 35.2704 17.6196 33.8504 18.3696 32.4004L18.3396 32.3804Z" fill="url(#paint15_radial_1238_102718)"/>
<path fill-rule="evenodd" clip-rule="evenodd" d="M23.8395 22.0999C23.2876 21.609 22.7698 21.0811 22.2895 20.5199C22.3636 19.2532 22.6196 18.0037 23.0495 16.8099C23.503 15.9159 24.0859 15.0937 24.7795 14.3699C25.5881 13.6459 26.4581 12.9935 27.3795 12.4199C24.6553 13.7032 22.1696 15.4414 20.0295 17.5599C19.7841 18.325 19.6134 19.112 19.5195 19.9099C19.9795 23.3899 20.8595 24.4499 23.3395 26.7299C24.0995 27.0099 24.8295 27.2599 25.5595 27.4899C25.3995 26.8399 25.2995 26.3899 25.1995 25.7399C24.3411 24.7191 23.8608 23.4335 23.8395 22.0999Z" fill="url(#paint16_radial_1238_102718)"/>
<path fill-rule="evenodd" clip-rule="evenodd" d="M26.4499 22.2097C25.5855 22.0882 24.7114 22.0514 23.8398 22.0997C23.8612 23.4333 24.3415 24.7188 25.1999 25.7397C27.3243 25.7369 29.3945 25.069 31.1199 23.8297C29.6184 23.1855 28.0749 22.6442 26.4999 22.2097H26.4499Z" fill="url(#paint17_radial_1238_102718)"/>
<path fill-rule="evenodd" clip-rule="evenodd" d="M31.12 23.8303C29.4085 25.0598 27.3573 25.7272 25.25 25.7403C25.35 26.3903 25.45 26.8403 25.61 27.4903C26.61 27.8103 27.61 28.1103 28.68 28.4103L30.58 28.6603L31.66 28.3703L32.96 28.2603C33.31 27.4403 33.63 26.6203 33.96 25.8203C34.2683 24.8365 34.5154 23.8346 34.7 22.8203C33.5647 23.2954 32.376 23.6312 31.16 23.8203L31.12 23.8303Z" fill="url(#paint18_radial_1238_102718)"/>
<path fill-rule="evenodd" clip-rule="evenodd" d="M34.6101 22.8701C34.4255 23.8844 34.1784 24.8863 33.8701 25.8701C33.5801 26.6701 33.2601 27.4901 32.8701 28.3101C34.787 27.5098 36.5603 26.4019 38.1201 25.0301C38.4886 23.9985 38.9331 22.9958 39.4501 22.0301L37.5701 19.5801C36.7021 20.7719 35.7172 21.874 34.6301 22.8701H34.6101Z" fill="url(#paint19_radial_1238_102718)"/>
<path fill-rule="evenodd" clip-rule="evenodd" d="M37.5498 19.5803L39.4298 22.0303C38.865 19.292 38.6733 16.4899 38.8598 13.7003L38.5698 13.2803L37.9998 15.2803L37.5498 19.5603V19.5803Z" fill="url(#paint20_radial_1238_102718)"/>
<path fill-rule="evenodd" clip-rule="evenodd" d="M29.4501 19.5198C28.4001 20.0698 27.14 21.3498 25.54 22.1198C25.85 22.1198 26.1501 22.1698 26.4501 22.2098C28.042 22.6421 29.6023 23.1834 31.1201 23.8298C32.3361 23.6407 33.5248 23.3049 34.66 22.8298C35.7471 21.8337 36.732 20.7316 37.6 19.5398L38.05 15.2598L38.6201 13.2598C37.2101 15.1398 34.6201 16.6198 32.1201 18.0998C31.2701 18.5998 29.8701 19.2998 29.5001 19.4998L29.4501 19.5198Z" fill="url(#paint21_radial_1238_102718)"/>
<path fill-rule="evenodd" clip-rule="evenodd" d="M25.54 22.1203C27.14 21.3503 28.4001 20.1203 29.4501 19.5203C29.8201 19.3203 31.2201 18.6203 32.0701 18.1203C34.5901 16.6403 37.1601 15.1203 38.5701 13.2803C38.2017 12.7506 37.7903 12.2523 37.34 11.7903C36.4802 11.5426 35.6001 11.3719 34.7101 11.2803C32.2324 11.3909 29.7743 11.7732 27.3801 12.4203C26.4586 12.9938 25.5887 13.6463 24.78 14.3703C24.0865 15.0941 23.5036 15.9163 23.05 16.8103C22.6201 18.0041 22.3641 19.2536 22.29 20.5203C22.7703 21.0814 23.2882 21.6093 23.84 22.1003C24.4062 22.0652 24.9739 22.0652 25.54 22.1003V22.1203Z" fill="url(#paint22_radial_1238_102718)"/>
<path fill-rule="evenodd" clip-rule="evenodd" d="M63.0596 42.9703C64.2669 43.0554 65.4797 43.0186 66.6796 42.8603C67.3986 42.4123 68.1587 42.0339 68.9496 41.7303C69.5296 41.6503 70.1796 41.6603 70.6996 41.6203C71.3372 41.4024 71.9427 41.0997 72.4996 40.7203C72.8239 41.0673 73.1214 41.4383 73.3896 41.8303C73.4396 40.6103 73.4996 39.3803 73.5596 38.1503L72.6196 32.7203C71.8501 31.1714 71.3432 29.5054 71.1196 27.7903C69.8896 25.6903 68.9796 23.9103 67.9496 21.7003C66.8996 20.5703 65.9496 19.3803 64.9496 18.2703C62.4566 15.7067 59.6631 13.4537 56.6296 11.5603L55.7596 11.0803C55.2182 10.8854 54.6587 10.7447 54.0895 10.6603L52.0895 9.33031C51.5183 9.09095 50.9209 8.91977 50.3096 8.82031C51.3143 9.9026 52.5382 10.7583 53.8996 11.3303C54.4155 12.4091 55.0674 13.4173 55.8395 14.3303C56.3763 15.5021 56.8048 16.7205 57.1196 17.9703C57.5098 18.304 57.847 18.6951 58.1196 19.1303C58.7796 20.7803 59.3896 22.4903 59.9296 24.2503C60.1396 25.5003 60.3196 26.7403 60.4396 27.9903C61.7596 30.7603 63.0196 33.5403 64.1796 36.3203C63.985 36.8874 63.7407 37.4362 63.4496 37.9603C63.2012 39.646 63.0675 41.3465 63.0496 43.0503L63.0596 42.9703Z" fill="url(#paint23_radial_1238_102718)"/>
<path fill-rule="evenodd" clip-rule="evenodd" d="M68.9496 41.7703C67.5709 39.7698 65.9745 37.9285 64.1896 36.2803C63.995 36.8474 63.7507 37.3961 63.4596 37.9203C63.2112 39.6059 63.0775 41.3065 63.0596 43.0103C64.2669 43.0954 65.4797 43.0585 66.6796 42.9003C67.3986 42.4523 68.1587 42.0739 68.9496 41.7703Z" fill="url(#paint24_radial_1238_102718)"/>
<path fill-rule="evenodd" clip-rule="evenodd" d="M57.1898 25.9699C58.1758 25.5158 59.0999 24.9378 59.9398 24.2499C59.3998 22.4899 58.7898 20.7799 58.1298 19.1299C57.8542 18.694 57.5136 18.3029 57.1198 17.9699C56.7927 16.7535 56.3577 15.5688 55.8198 14.4299C55.0476 13.5169 54.3957 12.5087 53.8798 11.4299C52.5183 10.8579 51.2944 10.0022 50.2897 8.91992C49.8126 9.2854 49.3827 9.70863 49.0098 10.1799C49.0582 10.5319 49.1735 10.8714 49.3497 11.1799C51.6497 12.2299 52.9498 13.6199 54.6498 17.1799L55.1898 18.3999C56.422 20.764 57.1056 23.3753 57.1898 26.0399V25.9699Z" fill="url(#paint25_radial_1238_102718)"/>
<path fill-rule="evenodd" clip-rule="evenodd" d="M59.9403 24.2099C59.1027 24.9118 58.1785 25.5033 57.1903 25.9699C57.6296 28.3599 57.7807 30.794 57.6403 33.2199C57.8465 34.208 57.9702 35.2114 58.0103 36.2199C57.7934 38.5657 57.1531 40.8526 56.1203 42.9699C56.1041 43.8118 56.2572 44.6483 56.5703 45.4299C57.5203 45.1199 58.5003 44.8499 59.5003 44.6299C60.7414 44.2017 61.9345 43.6454 63.0603 42.9699C63.0782 41.2662 63.2119 39.5656 63.4603 37.8799C63.7514 37.3558 63.9957 36.807 64.1903 36.2399C63.0303 33.4599 61.7703 30.6799 60.4503 27.9099C60.3303 26.6599 60.1503 25.4199 59.9403 24.1699V24.2099Z" fill="url(#paint26_radial_1238_102718)"/>
<path fill-rule="evenodd" clip-rule="evenodd" d="M66.6799 42.8998C65.48 43.058 64.2672 43.0949 63.0599 43.0098C61.9404 43.684 60.7541 44.2403 59.5199 44.6698C58.5199 44.8898 57.5198 45.1598 56.5898 45.4698C60.7298 47.1598 63.9399 47.5298 68.2899 48.2198C69.0695 48.0024 69.8345 47.7352 70.5799 47.4198C70.5799 47.1298 70.5799 46.8298 70.5799 46.5398C70.911 44.9728 71.3452 43.4294 71.8799 41.9198L72.5399 40.7598C71.983 41.1392 71.3775 41.4419 70.7399 41.6598C70.2199 41.6598 69.5699 41.6598 68.9899 41.7698C68.199 42.0734 67.4389 42.4518 66.7198 42.8998H66.6799Z" fill="url(#paint27_radial_1238_102718)"/>
<path fill-rule="evenodd" clip-rule="evenodd" d="M71.84 41.9705C71.3054 43.4802 70.8711 45.0236 70.54 46.5905C70.54 46.8805 70.54 47.1805 70.54 47.4705C71.1741 46.9992 71.7633 46.4703 72.3 45.8905C72.5765 45.4024 72.8236 44.8982 73.04 44.3805C73.14 43.5605 73.24 42.7405 73.35 41.9205C73.0819 41.5286 72.7844 41.1575 72.4601 40.8105L71.84 41.9705Z" fill="url(#paint28_radial_1238_102718)"/>
<path fill-rule="evenodd" clip-rule="evenodd" d="M24.8903 55.3799C22.6117 55.9123 20.2801 56.184 17.9402 56.1899C16.6378 55.4696 15.4622 54.5406 14.4603 53.4399C13.577 53.3577 12.7032 53.1937 11.8502 52.9499C11.7828 52.6936 11.7328 52.433 11.7003 52.1699C10.926 51.9269 10.1839 51.5912 9.49023 51.1699C10.2472 51.8916 10.9398 52.6779 11.5602 53.5199L12.8802 54.7699C13.4308 54.9805 14.0114 55.102 14.6002 55.1299C15.0118 55.5254 15.4763 55.8619 15.9802 56.1299C16.2145 56.2183 16.4552 56.2885 16.7003 56.3399L17.9603 57.0999C19.0023 57.1016 20.0424 57.1885 21.0703 57.3599C22.4245 57.1986 23.7865 57.1118 25.1503 57.0999C26.0137 56.7574 26.8466 56.3426 27.6403 55.8599C27.8024 55.4231 27.9001 54.9649 27.9302 54.4999C27.6422 53.8631 27.3079 53.2481 26.9302 52.6599C26.9448 53.1643 26.8944 53.6684 26.7802 54.1599C26.1953 54.6169 25.5693 55.0186 24.9102 55.3599L24.8903 55.3799Z" fill="url(#paint29_radial_1238_102718)"/>
<path fill-rule="evenodd" clip-rule="evenodd" d="M17.9399 56.1905C20.2798 56.1846 22.6114 55.9128 24.89 55.3805C25.5491 55.0392 26.1751 54.6374 26.7599 54.1805C26.8741 53.689 26.9245 53.1848 26.9099 52.6805C25.6037 50.84 24.083 49.1615 22.3799 47.6805C20.5499 46.6805 18.7999 45.5805 17.0899 44.4805C16.7234 45.2285 16.2739 45.9329 15.7499 46.5805C15.4871 48.9053 15.056 51.208 14.46 53.4705C15.4619 54.5711 16.6375 55.5001 17.9399 56.2205V56.1905Z" fill="url(#paint30_radial_1238_102718)"/>
<path fill-rule="evenodd" clip-rule="evenodd" d="M14.4601 53.4405C15.0561 51.1781 15.4872 48.8754 15.75 46.5505C16.274 45.903 16.7235 45.1985 17.09 44.4505L16.7701 43.8505C16.0608 43.5659 15.3724 43.2317 14.7101 42.8505L12.89 41.7405C11.4852 40.9438 10.1474 40.0341 8.89004 39.0205C8.58666 39.4692 8.33823 39.9526 8.15005 40.4605C8.10365 40.9959 8.0936 41.5338 8.12003 42.0705L7.59 43.6505C7.48342 45.1613 7.66675 46.6786 8.13003 48.1205L9.20004 49.9705L9.49002 51.1205C10.1837 51.5418 10.9257 51.8775 11.7 52.1205C11.7326 52.3836 11.7826 52.6442 11.85 52.9005C12.703 53.1443 13.5768 53.3083 14.4601 53.3905V53.4405Z" fill="url(#paint31_radial_1238_102718)"/>
<path fill-rule="evenodd" clip-rule="evenodd" d="M29.5501 47.29C28.3802 47.3521 27.2252 47.581 26.1201 47.97C26.3201 48.1 27.9201 49.57 28.7901 50.38C29.6534 50.2209 30.4979 49.9729 31.3101 49.64C31.8275 49.129 32.3181 48.5917 32.7801 48.03C31.7052 47.8567 30.6429 47.6129 29.6001 47.3L29.5501 47.29Z" fill="url(#paint32_radial_1238_102718)"/>
<path fill-rule="evenodd" clip-rule="evenodd" d="M34.2101 36.2402C33.9682 34.3622 33.5393 32.513 32.9301 30.7202C32.3259 30.1044 31.6551 29.5578 30.9301 29.0902L28.6201 28.4102C29.2101 30.0402 30.4201 32.3102 31.2001 34.2102C32.0256 36.5562 33.3648 38.6882 35.1201 40.4502C35.6801 41.3602 36.2201 42.2802 36.7501 43.2102L37.7501 40.4402C36.6698 38.9591 35.4869 37.5557 34.2101 36.2402Z" fill="url(#paint33_radial_1238_102718)"/>
<path fill-rule="evenodd" clip-rule="evenodd" d="M32.9304 30.7198L33.4904 28.7998L30.9404 29.0898C31.6654 29.5574 32.3362 30.1041 32.9404 30.7198H32.9304Z" fill="#BC5152"/>
<path fill-rule="evenodd" clip-rule="evenodd" d="M33.4901 28.8005C37.0801 27.9305 38.7 27.3205 41.23 24.5205C41.411 23.784 41.4382 23.018 41.3101 22.2705C40.3732 23.0419 39.3692 23.728 38.3101 24.3205C36.8197 25.9644 34.9818 27.2557 32.9301 28.1005C31.4905 28.3185 30.036 28.4221 28.5801 28.4105L30.8901 29.0905L33.4401 28.8005H33.4901Z" fill="url(#paint34_radial_1238_102718)"/>
<path fill-rule="evenodd" clip-rule="evenodd" d="M41.2295 24.5205C42.3879 24.6055 43.5511 24.6055 44.7095 24.5205C47.5782 25.4801 50.5264 26.1829 53.5195 26.6205C54.033 26.3706 54.5834 26.2051 55.1495 26.1305L51.4995 25.3105L47.1195 24.0605L44.6295 23.1305L43.5495 22.4505L41.3495 22.2705C41.4777 23.018 41.4505 23.784 41.2695 24.5205H41.2295Z" fill="url(#paint35_radial_1238_102718)"/>
<path fill-rule="evenodd" clip-rule="evenodd" d="M53.5203 26.6199C53.9749 28.4027 54.7957 30.0714 55.9302 31.5199L57.6403 33.1799C57.728 31.3449 57.6711 29.5059 57.4702 27.6799L55.1202 26.1299C54.5541 26.2045 54.0037 26.37 53.4902 26.6199H53.5203Z" fill="url(#paint36_radial_1238_102718)"/>
<path fill-rule="evenodd" clip-rule="evenodd" d="M55.93 31.5205C54.77 33.4205 52.8 35.0005 52.44 37.2405C50.66 39.0505 47.36 40.5805 45.25 41.5105C46.272 42.1599 47.1309 43.0359 47.76 44.0705C49.33 43.5405 50.87 43.0705 52.45 42.5805C54.2963 41.2835 56.0505 39.8601 57.7 38.3205C57.83 37.6305 57.93 36.9205 58.01 36.1805C57.9699 35.172 57.8462 34.1685 57.64 33.1805L55.93 31.5205Z" fill="url(#paint37_radial_1238_102718)"/>
<path fill-rule="evenodd" clip-rule="evenodd" d="M47.76 44.0704C47.1309 43.0358 46.272 42.1598 45.25 41.5104C42.7193 41.4194 40.2052 41.0607 37.75 40.4404L36.75 43.2104C38.75 44.4104 41.32 44.4204 43.6 44.7504C45.0016 44.6549 46.3912 44.4272 47.75 44.0704H47.76Z" fill="url(#paint38_radial_1238_102718)"/>
<path fill-rule="evenodd" clip-rule="evenodd" d="M45.2497 41.5105C47.3597 40.5805 50.6597 39.0505 52.4397 37.2405C52.7997 35.0005 54.7697 33.4205 55.9297 31.5205C54.7951 30.0721 53.9744 28.4034 53.5197 26.6205C50.5266 26.1829 47.5784 25.4801 44.7097 24.5205C43.5513 24.6055 42.3881 24.6055 41.2297 24.5205C38.6997 27.3205 37.0797 27.9305 33.4897 28.8005L32.9297 30.7205C33.5389 32.5133 33.9677 34.3625 34.2097 36.2405C35.4865 37.556 36.6694 38.9595 37.7497 40.4405C40.2049 41.0608 42.7189 41.4194 45.2497 41.5105Z" fill="url(#paint39_radial_1238_102718)"/>
<path fill-rule="evenodd" clip-rule="evenodd" d="M54.4702 41.0603L56.1202 42.9703C56.8509 41.4851 57.3757 39.9072 57.6802 38.2803C56.6808 39.281 55.6004 40.1974 54.4502 41.0203L54.4702 41.0603Z" fill="#6C61B8"/>
<path fill-rule="evenodd" clip-rule="evenodd" d="M54.4697 41.0601H55.9197C56.7452 40.3245 57.3596 39.3821 57.6998 38.3301C56.7004 39.3308 55.62 40.2472 54.4697 41.0701V41.0601Z" fill="url(#paint40_radial_1238_102718)"/>
<path fill-rule="evenodd" clip-rule="evenodd" d="M55.9197 41.0498H54.4697L56.1198 42.9698C56.1685 42.5616 56.1919 42.1508 56.1898 41.7398C56.1131 41.489 56.0161 41.2448 55.8998 41.0098L55.9197 41.0498Z" fill="url(#paint41_radial_1238_102718)"/>
<path fill-rule="evenodd" clip-rule="evenodd" d="M55.9203 41.0503C56.0367 41.2853 56.1337 41.5295 56.2104 41.7803C56.2043 42.1784 56.1742 42.5758 56.1204 42.9703C56.8511 41.4851 57.3759 39.9072 57.6804 38.2803C57.3402 39.3323 56.7258 40.2747 55.9004 41.0103L55.9203 41.0503Z" fill="url(#paint42_radial_1238_102718)"/>
<path fill-rule="evenodd" clip-rule="evenodd" d="M14.5499 42.2703C14.6385 42.144 14.7354 42.0238 14.8398 41.9103C14.1998 41.9103 13.5398 41.8503 12.8398 41.7803L14.6599 42.8903C14.5603 42.6984 14.5057 42.4864 14.4999 42.2703H14.5499Z" fill="#511334"/>
<path fill-rule="evenodd" clip-rule="evenodd" d="M11.5702 57.1602C11.322 57.8895 11.23 58.6629 11.3002 59.4302C12.2302 60.5202 13.1302 61.5402 13.9902 62.6902C16.5942 65.3941 19.4283 67.8667 22.4603 70.0802C25.3484 71.6521 28.3581 72.9897 31.4603 74.0802C33.7903 74.4402 35.8003 74.6502 38.1503 74.8202L40.3303 75.0702C42.9056 74.8449 45.4332 74.2383 47.8303 73.2702C48.0277 73.0891 48.1934 72.8761 48.3202 72.6402L43.9702 71.9402C43.4712 71.7247 42.9604 71.5377 42.4402 71.3802C41.522 71.3964 40.6036 71.3563 39.6902 71.2602C36.5354 70.4402 33.4779 69.2836 30.5702 67.8102L26.8602 66.6202L24.0302 65.8302L22.1602 64.8302C21.3002 64.6002 20.4403 64.1102 19.5803 63.8302C18.7103 63.3302 17.8602 63.0502 16.9702 62.5802L13.1202 57.8002L11.6202 57.1602H11.5702Z" fill="url(#paint43_radial_1238_102718)"/>
<path fill-rule="evenodd" clip-rule="evenodd" d="M11.2998 59.4302C12.4998 60.5402 13.4998 61.8602 14.1798 62.5002C14.495 62.7674 14.8292 63.0114 15.1798 63.2302C17.1098 64.4302 19.2398 65.3902 21.2598 66.4202C21.8398 66.7102 22.4398 66.9902 22.9898 67.3302C23.3492 67.5432 23.7197 67.7368 24.0998 67.9102C25.6098 68.5502 27.1998 68.8002 28.4598 69.3402C29.2698 69.6802 29.9498 70.1402 30.7698 70.4702C31.5898 70.8002 32.4398 71.0002 33.2398 71.2902C33.7798 71.4802 34.5298 71.8302 35.0798 71.9802C35.6298 72.1302 36.0798 72.2402 36.5798 72.3402C37.0798 72.4402 38.4598 72.9002 38.5798 72.9202C38.6998 72.9402 39.2398 72.8202 39.5798 72.7902C40.6498 72.7102 42.9998 72.4902 43.1198 72.4402C43.4017 72.307 43.6697 72.1462 43.9198 71.9602C43.4208 71.7447 42.91 71.5577 42.3898 71.4002C41.4716 71.4164 40.5532 71.3763 39.6398 71.2802C36.485 70.4602 33.4275 69.3036 30.5198 67.8302L26.8098 66.6402L23.9798 65.8502L22.1098 64.8502C21.2498 64.6202 20.3898 64.1302 19.5298 63.8502C18.6598 63.3502 17.8098 63.0702 16.9198 62.6002L13.1198 57.8002L11.6198 57.1602C11.3715 57.8895 11.2795 58.6629 11.3498 59.4302H11.2998Z" fill="url(#paint44_radial_1238_102718)"/>
<path fill-rule="evenodd" clip-rule="evenodd" d="M43.7004 53.5301C43.7904 52.6101 43.8704 51.6901 43.9604 50.7701L40.0204 51.0301C38.5332 50.9522 37.0583 50.7176 35.6204 50.3301C35.4504 50.8801 35.2304 51.4701 34.9404 52.1901C33.1345 53.2945 31.1724 54.1204 29.1204 54.6401C28.7244 54.6318 28.3298 54.5917 27.9404 54.5201C27.9102 54.9851 27.8126 55.4432 27.6504 55.8801C29.2577 56.5198 30.8211 57.2647 32.3304 58.1101C32.7678 58.206 33.2129 58.2629 33.6603 58.2801C34.4803 58.0201 35.3004 57.7301 36.1304 57.3801C36.9709 56.9376 37.8515 56.576 38.7604 56.3001C40.36 55.2606 42.0308 54.3349 43.7604 53.5301H43.7004Z" fill="url(#paint45_radial_1238_102718)"/>
<path fill-rule="evenodd" clip-rule="evenodd" d="M43.7004 53.5296C41.9708 54.3345 40.3 55.2601 38.7004 56.2996C37.8086 56.5785 36.9448 56.9401 36.1204 57.3796C35.2904 57.7296 34.4704 58.0196 33.6504 58.2796C34.6386 58.0319 35.6402 57.8416 36.6504 57.7096C39.0204 56.7696 41.5103 55.9096 44.0403 55.1896C44.6403 54.8296 45.2504 54.4796 45.8604 54.1296C45.6199 53.8717 45.3437 53.6494 45.0403 53.4696C44.5928 53.451 44.1445 53.471 43.7004 53.5296Z" fill="url(#paint46_radial_1238_102718)"/>
<path fill-rule="evenodd" clip-rule="evenodd" d="M43.6997 53.5304C44.1438 53.4718 44.5921 53.4518 45.0397 53.4704C45.3431 53.6502 45.6192 53.8725 45.8597 54.1304C46.9597 53.4904 48.0797 52.8504 49.2197 52.2204C51.5397 51.7004 53.7597 51.1004 55.8797 50.4004C54.2272 50.1199 52.5557 49.9661 50.8797 49.9404C49.8903 50.1799 48.8889 50.3669 47.8797 50.5004L43.9397 50.7704C43.8497 51.6904 43.7697 52.6104 43.6797 53.5304H43.6997Z" fill="url(#paint47_radial_1238_102718)"/>
<path fill-rule="evenodd" clip-rule="evenodd" d="M50.8501 49.9697C52.5261 49.9954 54.1976 50.1492 55.8501 50.4297C56.2127 49.8098 56.4695 49.1339 56.6101 48.4297C56.1346 47.6992 55.5741 47.0278 54.9401 46.4297L54.0101 47.7297C52.0617 48.8515 50.0045 49.7729 47.8701 50.4797C48.8793 50.3461 49.8807 50.1592 50.8701 49.9197L50.8501 49.9697Z" fill="url(#paint48_radial_1238_102718)"/>
<path fill-rule="evenodd" clip-rule="evenodd" d="M47.9001 50.5002C50.0345 49.7934 52.0916 48.872 54.0401 47.7502L54.9701 46.4502C54.6222 44.8305 54.1848 43.2314 53.6601 41.6602L52.4501 42.5802C50.8701 43.0602 49.3301 43.5802 47.7601 44.0702C46.4013 44.4269 45.0118 44.6546 43.6101 44.7502C41.3301 44.4202 38.7801 44.4102 36.7601 43.2102C36.6279 43.7432 36.531 44.2844 36.4701 44.8302L36.4101 46.5902C36.2433 47.8553 35.9792 49.1056 35.6201 50.3302C37.0581 50.7177 38.5329 50.9523 40.0201 51.0302L43.9601 50.7702L47.9001 50.5002Z" fill="url(#paint49_radial_1238_102718)"/>
<path style="mix-blend-mode:multiply" opacity="0.5" fill-rule="evenodd" clip-rule="evenodd" d="M47.9001 50.5002C50.0345 49.7934 52.0916 48.872 54.0401 47.7502L54.9701 46.4502C54.6222 44.8305 54.1848 43.2314 53.6601 41.6602L52.4501 42.5802C50.8701 43.0602 49.3301 43.5802 47.7601 44.0702C46.4013 44.4269 45.0118 44.6546 43.6101 44.7502C41.3301 44.4202 38.7801 44.4102 36.7601 43.2102C36.6279 43.7432 36.531 44.2844 36.4701 44.8302L36.4101 46.5902C36.2433 47.8553 35.9792 49.1056 35.6201 50.3302C37.0581 50.7177 38.5329 50.9523 40.0201 51.0302L43.9601 50.7702L47.9001 50.5002Z" fill="url(#paint50_radial_1238_102718)"/>
<path fill-rule="evenodd" clip-rule="evenodd" d="M53.6596 41.6605C54.1843 43.2318 54.6217 44.8309 54.9696 46.4505C55.6035 47.0487 56.1642 47.72 56.6396 48.4505C56.7071 47.4516 56.7071 46.4494 56.6396 45.4505C56.2999 44.6677 56.1229 43.8239 56.1196 42.9705L54.4496 41.0205L53.6396 41.6205L53.6596 41.6605Z" fill="url(#paint51_radial_1238_102718)"/>
<path fill-rule="evenodd" clip-rule="evenodd" d="M47.6 50.5203C47.2567 50.268 46.8752 50.0722 46.47 49.9403C44.5342 49.74 42.578 49.8993 40.7001 50.4103C40.3826 50.5713 40.0897 50.7767 39.8301 51.0203C40.1295 51.2772 40.4668 51.4863 40.8301 51.6403C41.8202 51.8265 42.8231 51.9368 43.8301 51.9703C44.7141 51.8624 45.5919 51.7088 46.4601 51.5103C46.9211 51.2905 47.3097 50.9435 47.5801 50.5103L47.6 50.5203Z" fill="url(#paint52_radial_1238_102718)"/>
<path fill-rule="evenodd" clip-rule="evenodd" d="M40.6997 50.4096C40.4246 50.5488 40.1691 50.7236 39.9397 50.9296C39.9368 50.9495 39.9368 50.9697 39.9397 50.9896H40.0097C41.4297 50.8596 42.8296 50.7796 44.2396 50.7096H44.5296C45.5296 50.6596 46.5296 50.7096 47.5296 50.6396H47.5896L47.6497 50.5496C47.3235 50.3147 46.9624 50.1325 46.5797 50.0096C44.6438 49.8093 42.6876 49.9687 40.8096 50.4796L40.6997 50.4096Z" fill="url(#paint53_radial_1238_102718)"/>
<path fill-rule="evenodd" clip-rule="evenodd" d="M19.2803 62.5C19.3335 62.9664 19.4238 63.4279 19.5503 63.88C20.2613 63.8734 20.9705 63.8065 21.6703 63.68C20.8479 63.3411 20.0494 62.9469 19.2803 62.5Z" fill="url(#paint54_radial_1238_102718)"/>
<path fill-rule="evenodd" clip-rule="evenodd" d="M19.2796 62.4998C20.0487 62.9467 20.8472 63.3409 21.6696 63.6798C22.406 63.7919 23.1342 63.9522 23.8496 64.1598C23.427 63.351 23.0918 62.4996 22.8496 61.6198C22.8292 61.0117 22.8594 60.4029 22.9396 59.7998C21.7104 60.4011 20.4407 60.9157 19.1396 61.3398C19.1477 61.7282 19.1811 62.1157 19.2396 62.4998H19.2796Z" fill="url(#paint55_radial_1238_102718)"/>
<path fill-rule="evenodd" clip-rule="evenodd" d="M19.5495 63.8799C19.423 63.4278 19.3327 62.9663 19.2795 62.4999C19.2209 62.1158 19.1876 61.7283 19.1795 61.3399C16.9417 60.485 14.7945 59.4097 12.7695 58.1299C13.3084 58.937 13.9393 59.6786 14.6495 60.3399C14.7895 60.6099 14.9295 60.8699 15.0795 61.1299C16.3312 62.387 17.8631 63.3295 19.5495 63.8799Z" fill="url(#paint56_radial_1238_102718)"/>
<path fill-rule="evenodd" clip-rule="evenodd" d="M12.7699 58.13C14.7949 59.4099 16.9421 60.4852 19.1799 61.34C20.4809 60.9159 21.7507 60.4013 22.9799 59.8C21.7888 59.047 20.6765 58.1759 19.6599 57.2C19.0799 57.2 18.5099 57.13 17.9599 57.12L16.6999 56.36C16.4549 56.3086 16.2142 56.2384 15.9799 56.15C15.4759 55.882 15.0115 55.5455 14.5999 55.15C14.0111 55.1221 13.4305 55.0006 12.8799 54.79C12.6598 55.9032 12.6227 57.0449 12.7699 58.17V58.13Z" fill="url(#paint57_radial_1238_102718)"/>
<path fill-rule="evenodd" clip-rule="evenodd" d="M41.9099 11.3699C40.8544 12.0724 39.8517 12.8511 38.9099 13.6999C38.7234 16.4895 38.9151 19.2916 39.4799 22.0299C40.0999 22.1299 40.7199 22.2099 41.3599 22.2699L43.5599 22.4499L44.6399 23.1299L47.1299 24.0599L51.5499 25.3099L55.1999 26.1299C55.8999 26.1299 56.5799 26.0299 57.1999 25.9299C57.1158 23.2653 56.4322 20.6539 55.1999 18.2899L54.6599 17.0699C52.9599 13.5499 51.6599 12.1599 49.3599 11.0699C48.1007 10.8416 46.828 10.6946 45.5499 10.6299C44.3113 10.7295 43.0874 10.9642 41.8999 11.3299L41.9099 11.3699Z" fill="url(#paint58_radial_1238_102718)"/>
<path style="mix-blend-mode:screen" opacity="0.55" fill-rule="evenodd" clip-rule="evenodd" d="M41.9099 11.3699C40.8544 12.0724 39.8517 12.8511 38.9099 13.6999C38.7234 16.4895 38.9151 19.2916 39.4799 22.0299C40.0999 22.1299 40.7199 22.2099 41.3599 22.2699L43.5599 22.4499L44.6399 23.1299L47.1299 24.0599L51.5499 25.3099L55.1999 26.1299C55.8999 26.1299 56.5799 26.0299 57.1999 25.9299C57.1158 23.2653 56.4322 20.6539 55.1999 18.2899L54.6599 17.0699C52.9599 13.5499 51.6599 12.1599 49.3599 11.0699C48.1007 10.8416 46.828 10.6946 45.5499 10.6299C44.3113 10.7295 43.0874 10.9642 41.8999 11.3299L41.9099 11.3699Z" fill="url(#paint59_radial_1238_102718)"/>
<path fill-rule="evenodd" clip-rule="evenodd" d="M45.8497 21.8601C45.1297 21.7401 44.3897 21.6301 43.6397 21.5801C43.322 21.2073 42.9631 20.8718 42.5697 20.5801C41.4817 20.9804 40.431 21.4757 39.4297 22.0601C40.0497 22.1601 40.6697 22.2401 41.3097 22.3001L43.5097 22.4801L44.5897 23.1601L47.0797 24.0901L51.4997 25.3401L55.1497 26.1601C55.8497 26.1601 56.5297 26.0601 57.1497 25.9601C53.5061 24.2498 49.7093 22.8871 45.8097 21.8901L45.8497 21.8601Z" fill="url(#paint60_radial_1238_102718)"/>
<path fill-rule="evenodd" clip-rule="evenodd" d="M42.5701 20.5502C41.5839 18.5305 40.7645 16.4335 40.1201 14.2802C39.7162 14.0535 39.2949 13.8596 38.8601 13.7002C38.6736 16.4899 38.8653 19.2919 39.4301 22.0302C40.4313 21.4458 41.4821 20.9506 42.5701 20.5502Z" fill="url(#paint61_radial_1238_102718)"/>
<path fill-rule="evenodd" clip-rule="evenodd" d="M41.3104 22.2703C40.6704 22.2103 40.0504 22.1303 39.4304 22.0303C39.0332 22.774 38.676 23.5384 38.3604 24.3203C39.4195 23.7278 40.4235 23.0417 41.3604 22.2703H41.3104Z" fill="#511334"/>
<path fill-rule="evenodd" clip-rule="evenodd" d="M55.1201 26.1297L57.4401 27.6797C57.3701 27.0897 57.2801 26.4997 57.1601 25.9297C56.5001 26.0297 55.8201 26.0897 55.1601 26.1297H55.1201Z" fill="#511334"/>
<path fill-rule="evenodd" clip-rule="evenodd" d="M56.7504 26.5797C56.9305 26.3876 57.079 26.1683 57.1904 25.9297C56.5304 26.0297 55.8504 26.0897 55.1904 26.1297C55.7073 26.3329 56.2433 26.4837 56.7904 26.5797H56.7504Z" fill="url(#paint62_radial_1238_102718)"/>
<path fill-rule="evenodd" clip-rule="evenodd" d="M38.3604 24.3203C38.8601 23.8012 39.3213 23.2464 39.7404 22.6603C39.6593 22.44 39.5554 22.2289 39.4304 22.0303C39.0332 22.774 38.676 23.5384 38.3604 24.3203Z" fill="url(#paint63_radial_1238_102718)"/>
<path fill-rule="evenodd" clip-rule="evenodd" d="M28.8602 11.5004C31.4802 11.0304 34.1002 10.5004 36.7202 10.0504C39.8102 10.1604 44.2302 10.6204 47.3502 9.73039C47.5902 9.66039 47.8302 9.58039 48.0602 9.49039L45.9102 8.82039L41.3302 8.65039L37.4202 8.76039L34.4202 8.65039L31.0202 10.3404L27.7002 11.7004L28.8602 11.5004Z" fill="url(#paint64_radial_1238_102718)"/>
<path fill-rule="evenodd" clip-rule="evenodd" d="M43.9404 71.9699C44.0504 71.7499 44.1704 71.5299 44.2904 71.3099C46.9729 70.4426 49.5337 69.2362 51.9104 67.7199L53.0104 67.4899L53.6104 66.6399C55.2592 65.9342 56.9744 65.3948 58.7304 65.0299H59.8404C61.4204 64.5299 62.8404 64.0299 64.4204 63.4199C64.4233 63.8595 64.3832 64.2982 64.3004 64.7299C63.9781 65.7047 63.4984 66.6201 62.8804 67.4399C60.8804 67.8999 58.6704 70.0199 57.0204 71.2899C56.3371 71.6906 55.6172 72.0255 54.8704 72.2899L53.4204 72.5099C52.5139 73.045 51.5177 73.411 50.4804 73.5899C49.7196 73.354 48.9856 73.0389 48.2904 72.6499L43.9404 71.9499V71.9699Z" fill="url(#paint65_radial_1238_102718)"/>
<path fill-rule="evenodd" clip-rule="evenodd" d="M44.5498 71.2096C45.8106 70.7452 47.203 70.7918 48.4298 71.3397C49.4516 70.8609 50.504 70.45 51.5798 70.1096C51.7928 69.9708 51.9905 69.8099 52.1698 69.6297C52.6328 69.6548 53.0968 69.6548 53.5598 69.6297C56.0405 68.9747 58.4218 67.9893 60.6398 66.6997C61.7942 65.9194 63.0196 65.2497 64.2998 64.6997C64.3826 64.268 64.4227 63.8292 64.4198 63.3896C62.8698 63.9796 61.4198 64.4996 59.8398 64.9996H58.7298C56.9738 65.3645 55.2586 65.9039 53.6098 66.6096L53.0098 67.4596L51.9098 67.6897C49.6105 69.1559 47.1383 70.3316 44.5498 71.1897V71.2096Z" fill="url(#paint66_radial_1238_102718)"/>
<path fill-rule="evenodd" clip-rule="evenodd" d="M47.7198 65.6206C50.1998 64.1406 56.6298 60.9906 56.6598 59.0206C57.5742 58.8576 58.4691 58.5995 59.3299 58.2505C59.63 57.948 59.8949 57.6125 60.1199 57.2505C61.4399 56.4727 62.7153 55.6214 63.9399 54.7006L64.9399 53.7906C64.9622 52.8955 64.868 52.0013 64.6598 51.1306C63.5821 50.6955 62.447 50.4192 61.2898 50.3105C59.9278 50.6163 58.5907 51.0241 57.2898 51.5305C54.9226 52.0069 52.5853 52.6213 50.2898 53.3706C48.6086 54.155 46.9728 55.033 45.3899 56.0005C44.3515 56.1961 43.2965 56.2899 42.2398 56.2805C42.0541 56.6741 41.8261 57.0463 41.5599 57.3905C38.8499 58.6705 35.6099 59.3906 32.6999 60.4806C30.1243 60.4247 27.5486 60.5852 24.9999 60.9605C24.7602 61.7752 24.85 62.6514 25.2499 63.4006C27.2371 63.8517 29.1888 64.4466 31.0898 65.1805C36.6351 65.6768 42.2057 65.8304 47.7699 65.6405L47.7198 65.6206Z" fill="url(#paint67_radial_1238_102718)"/>
<path fill-rule="evenodd" clip-rule="evenodd" d="M45.3398 55.9698C46.7898 56.9698 48.2499 57.9698 49.6699 58.8498C50.6009 59.1759 51.5744 59.3646 52.5599 59.4098C53.9164 59.1878 55.286 59.0542 56.6599 59.0098C57.5742 58.8469 58.4692 58.5888 59.3299 58.2398C59.63 57.9372 59.895 57.6018 60.1199 57.2398C61.4399 56.462 62.7153 55.6106 63.9399 54.6898L64.9399 53.7798C64.9622 52.8847 64.8681 51.9906 64.6599 51.1198C63.5822 50.6847 62.447 50.4085 61.2899 50.2998C59.9278 50.6056 58.5907 51.0134 57.2899 51.5198C54.9226 51.9961 52.5853 52.6105 50.2899 53.3598C48.6087 54.1442 46.9728 55.0223 45.3899 55.9898L45.3398 55.9698Z" fill="url(#paint68_radial_1238_102718)"/>
<path fill-rule="evenodd" clip-rule="evenodd" d="M25.1997 63.3798C24.7998 62.6307 24.7101 61.7545 24.9497 60.9398L22.9497 59.7998C22.8694 60.4029 22.8393 61.0117 22.8597 61.6198C23.1019 62.4996 23.4371 63.351 23.8597 64.1598L25.2097 63.3798H25.1997Z" fill="url(#paint69_radial_1238_102718)"/>
<path fill-rule="evenodd" clip-rule="evenodd" d="M24.9498 60.9699C27.4985 60.5946 30.0742 60.434 32.6498 60.4899C35.5598 59.4299 38.7998 58.6799 41.5098 57.3999C41.776 57.0556 42.004 56.6834 42.1898 56.2899C43.2464 56.2992 44.3013 56.2054 45.3397 56.0099C46.9226 55.0423 48.5585 54.1643 50.2397 53.3799C52.5352 52.6306 54.8725 52.0162 57.2397 51.5399C58.5406 51.0335 59.8777 50.6257 61.2397 50.3199C62.3969 50.4286 63.532 50.7048 64.6097 51.1399C64.818 52.0107 64.9121 52.9048 64.8898 53.7999L67.1597 51.3099L65.4297 49.3099L62.2598 48.8799L55.8698 50.3799C53.7498 51.0799 51.5298 51.6799 49.2098 52.1999C48.0698 52.8299 46.9497 53.4699 45.8497 54.1099C45.2397 54.4599 44.6297 54.8099 44.0297 55.1699C41.4997 55.8899 39.0298 56.7499 36.6398 57.6899C35.6296 57.8218 34.6279 58.0121 33.6398 58.2599C33.1923 58.2427 32.7472 58.1858 32.3098 58.0899L25.8198 59.2699L22.9697 59.7799L24.9697 60.9199L24.9498 60.9699Z" fill="url(#paint70_radial_1238_102718)"/>
<path fill-rule="evenodd" clip-rule="evenodd" d="M47.7196 65.6197C42.1554 65.8096 36.5849 65.656 31.0396 65.1597C29.1386 64.4257 27.1869 63.8308 25.1996 63.3797L23.8496 64.1597L27.9496 65.2397L30.9496 66.3497L34.4597 66.7997L39.5896 67.3097L47.8297 66.7697L51.8297 64.8697L58.0596 61.0197L60.8096 57.6797L63.9796 54.6797C62.7421 55.6018 61.4533 56.4531 60.1196 57.2297C59.8947 57.5917 59.6297 57.9271 59.3297 58.2297C58.4689 58.5787 57.574 58.8367 56.6596 58.9997C56.6596 60.9997 50.1996 64.1197 47.7196 65.5997V65.6197Z" fill="url(#paint71_radial_1238_102718)"/>
<path fill-rule="evenodd" clip-rule="evenodd" d="M22.5299 59.0402C22.1047 58.4503 21.6332 57.8952 21.1199 57.3802C20.6399 57.3002 20.17 57.2402 19.71 57.2002C20.7266 58.1761 21.8388 59.0471 23.0299 59.8002C22.894 59.5388 22.7438 59.285 22.58 59.0402H22.5299Z" fill="url(#paint72_radial_1238_102718)"/>
<path fill-rule="evenodd" clip-rule="evenodd" d="M25.3003 58.6401C24.4058 58.9272 23.4695 59.0624 22.5303 59.0401C22.6942 59.285 22.8444 59.5387 22.9803 59.8001L25.8303 59.2901L32.3203 58.1101C29.9749 58.0441 27.629 58.2217 25.3203 58.6401H25.3003Z" fill="#511334"/>
<path opacity="0.5" fill-rule="evenodd" clip-rule="evenodd" d="M22.5303 59.0401C23.4695 59.0624 24.4058 58.9272 25.3003 58.6401C25.3044 58.1296 25.2542 57.62 25.1503 57.1201C23.7866 57.132 22.4245 57.2188 21.0703 57.3801C21.6009 57.8932 22.0891 58.4484 22.5303 59.0401Z" fill="url(#paint73_radial_1238_102718)"/>
<path fill-rule="evenodd" clip-rule="evenodd" d="M25.1201 57.1199C25.2239 57.6198 25.2743 58.1293 25.2701 58.6399C27.5788 58.2214 29.9248 58.0438 32.2701 58.1099C30.7608 57.2645 29.1974 56.5196 27.5901 55.8799C26.8029 56.3615 25.9767 56.7763 25.1201 57.1199Z" fill="url(#paint74_radial_1238_102718)"/>
<path fill-rule="evenodd" clip-rule="evenodd" d="M51.1198 66.8H47.8298L39.5898 67.34L34.4598 66.83L30.9498 66.38L27.9498 65.27L23.8498 64.19C23.1344 63.9824 22.4062 63.822 21.6698 63.71C20.9701 63.8364 20.2609 63.9033 19.5498 63.91C20.4098 64.14 21.2698 64.63 22.1298 64.91L23.9998 65.91L26.8298 66.7L30.5398 67.89C33.4474 69.3634 36.505 70.52 39.6598 71.34C40.5731 71.4362 41.4915 71.4762 42.4098 71.46C42.93 71.6175 43.4408 71.8045 43.9398 72.02C44.0498 71.8 44.1698 71.58 44.2898 71.36L44.5498 71.27C47.1383 70.4119 49.6105 69.2363 51.9098 67.77L51.1198 66.86V66.8Z" fill="url(#paint75_radial_1238_102718)"/>
<path fill-rule="evenodd" clip-rule="evenodd" d="M22.1196 64.83C24.8617 65.0498 27.5569 65.6697 30.1196 66.67C30.5796 66.83 32.6996 67.67 33.9496 68.19C35.832 68.3216 37.7223 68.2914 39.5995 68.1C41.2795 68.1 48.9296 67.89 49.6996 67.67C50.2261 67.4711 50.711 67.1761 51.1296 66.8H47.8395L39.5995 67.34L34.4695 66.83L30.9596 66.38L27.9596 65.27L23.8596 64.19C23.1442 63.9824 22.416 63.822 21.6796 63.71C20.9798 63.8364 20.2706 63.9033 19.5596 63.91C20.4196 64.14 21.2796 64.63 22.1396 64.91L22.1196 64.83Z" fill="url(#paint76_radial_1238_102718)"/>
<path fill-rule="evenodd" clip-rule="evenodd" d="M51.1201 66.8001L51.79 64.8701L47.8301 66.7701L51.1201 66.8001Z" fill="#511334"/>
<path fill-rule="evenodd" clip-rule="evenodd" d="M58.3701 62.27C58.4901 62.01 58.6101 61.74 58.7401 61.48C59.9033 60.5517 61.1887 59.7879 62.5601 59.21C63.3135 57.6289 64.2141 56.1222 65.2501 54.71C66.0031 53.981 66.8123 53.3123 67.6701 52.71C68.0714 51.951 68.5329 51.2254 69.0501 50.54L67.1701 51.26L64.9001 53.75L63.9001 54.66L60.7301 57.66L57.9801 61L51.7501 64.85L51.1201 66.8C52.1195 66.2215 52.9878 65.4417 53.6701 64.51C55.1545 63.6018 56.7298 62.8511 58.3701 62.27Z" fill="url(#paint77_radial_1238_102718)"/>
<path fill-rule="evenodd" clip-rule="evenodd" d="M58.7401 61.48C58.6101 61.74 58.4901 62.01 58.3701 62.27C56.7298 62.851 55.1545 63.6018 53.6701 64.51C52.9878 65.4416 52.1195 66.2214 51.1201 66.8L51.9101 67.71L53.0101 67.48L53.6101 66.63C55.2589 65.9242 56.9741 65.3849 58.7301 65.02H59.8401C61.4201 64.52 62.8401 64.02 64.4201 63.41C65.1263 63.1327 65.7976 62.7736 66.4201 62.34L65.9101 61.76C64.9453 60.7397 63.8247 59.8789 62.5901 59.21C61.2186 59.7878 59.9333 60.5516 58.7701 61.48H58.7401Z" fill="url(#paint78_radial_1238_102718)"/>
<path fill-rule="evenodd" clip-rule="evenodd" d="M62.5601 59.2097C63.7947 59.8787 64.9153 60.7394 65.8801 61.7597L66.3901 62.3397C66.7658 61.7227 67.0998 61.0812 67.3901 60.4197C68.3301 59.4197 69.3101 58.4197 70.3301 57.4197C70.0501 57.0297 69.7801 56.6297 69.5101 56.2197C68.7749 55.1039 68.1519 53.9181 67.6501 52.6797C66.7923 53.2819 65.9831 53.9506 65.23 54.6797C64.1941 56.0919 63.2934 57.5986 62.54 59.1797L62.5601 59.2097Z" fill="url(#paint79_radial_1238_102718)"/>
<path fill-rule="evenodd" clip-rule="evenodd" d="M67.6699 52.7306C68.1717 53.969 68.7947 55.1547 69.5299 56.2706C69.7999 56.6806 70.0699 57.0806 70.3499 57.4706C70.7304 55.9267 70.9879 54.3551 71.1199 52.7706C70.6339 51.8664 69.9204 51.1046 69.0499 50.5605C68.5327 51.2459 68.0713 51.9715 67.6699 52.7306Z" fill="url(#paint80_radial_1238_102718)"/>
<path fill-rule="evenodd" clip-rule="evenodd" d="M71.5703 49.2399C71.3569 48.5747 71.0174 47.9567 70.5703 47.4199C69.8249 47.7353 69.0599 48.0026 68.2803 48.2199L69.0403 50.5599C69.9145 51.1026 70.6315 51.8645 71.1203 52.7699C71.4215 51.6175 71.5727 50.431 71.5703 49.2399Z" fill="url(#paint81_radial_1238_102718)"/>
<path fill-rule="evenodd" clip-rule="evenodd" d="M70.5798 47.4201C71.0269 47.9569 71.3665 48.5748 71.5798 49.2401C71.8317 48.6385 72.1685 48.0761 72.5798 47.5701C72.7188 47.3903 72.88 47.229 73.0598 47.0901C73.2199 47.0424 73.3838 47.0089 73.5498 46.9901L73.0498 44.3301C72.8334 44.8477 72.5863 45.3519 72.3098 45.8401C71.773 46.4198 71.1839 46.9487 70.5498 47.4201H70.5798Z" fill="url(#paint82_radial_1238_102718)"/>
<path fill-rule="evenodd" clip-rule="evenodd" d="M72.6101 47.5702C72.1988 48.0763 71.862 48.6387 71.6101 49.2402C71.5995 50.4331 71.4348 51.6196 71.1201 52.7702L72.6501 49.9002L73.5801 46.9902C73.4142 47.0091 73.2502 47.0426 73.0901 47.0902C72.9103 47.2292 72.749 47.3905 72.6101 47.5702Z" fill="url(#paint83_radial_1238_102718)"/>
<path fill-rule="evenodd" clip-rule="evenodd" d="M66.3204 47.9102L65.4404 49.3302L67.1704 51.3302L69.0504 50.6102L68.2904 48.2702L66.2904 47.9602L66.3204 47.9102Z" fill="url(#paint84_radial_1238_102718)"/>
<path fill-rule="evenodd" clip-rule="evenodd" d="M65.4402 49.3302L66.6302 49.2102L67.8202 48.7702L68.2902 48.2202L66.2902 47.9102L65.4102 49.3302H65.4402Z" fill="url(#paint85_radial_1238_102718)"/>
<path fill-rule="evenodd" clip-rule="evenodd" d="M65.4401 49.3297L66.3201 47.9097C62.987 47.5091 59.7178 46.6893 56.59 45.4697C56.6575 46.4686 56.6575 47.4709 56.59 48.4697C56.4494 49.174 56.1926 49.8499 55.8301 50.4697L62.22 48.9697L65.3901 49.3997L65.4401 49.3297Z" fill="url(#paint86_radial_1238_102718)"/>
<path fill-rule="evenodd" clip-rule="evenodd" d="M60.7399 48.1504C59.3898 48.411 58.0125 48.5017 56.6399 48.4204C56.4993 49.1246 56.2425 49.8005 55.8799 50.4204L62.2699 48.9204C61.8152 48.5706 61.2949 48.3156 60.7399 48.1704V48.1504Z" fill="url(#paint87_radial_1238_102718)"/>
<path style="mix-blend-mode:multiply" fill-rule="evenodd" clip-rule="evenodd" d="M73.12 44.3304C73.22 43.5104 73.32 42.6904 73.43 41.8704C73.48 40.6504 73.54 39.4204 73.6 38.1904C73.29 36.3804 72.97 34.5704 72.66 32.7604C71.8905 31.2114 71.3836 29.5454 71.16 27.8304C69.93 25.7304 69.02 23.9504 67.99 21.7404C66.94 20.6104 65.99 19.4204 64.99 18.3104C62.4971 15.7468 59.7035 13.4938 56.67 11.6004L55.8 11.1204C55.2586 10.9254 54.6992 10.7848 54.13 10.7004L52.13 9.37039C51.5588 9.13103 50.9613 8.95985 50.35 8.86039C49.8729 9.22587 49.443 9.6491 49.07 10.1204L48.07 9.49039L45.92 8.82039L41.34 8.65039L37.43 8.76039L34.43 8.65039L31.03 10.3404L27.7101 11.7004L26.55 11.8704L24.18 13.6004L22.59 14.6004L20.59 15.9904L20.32 16.7204L20.5 17.1504C20.44 17.0004 20.38 16.8504 20.31 16.7004C19.8576 16.4882 19.3585 16.3953 18.86 16.4304C16.3546 18.6148 14.1248 21.0964 12.22 23.8204C10.715 26.7379 9.5089 29.8002 8.62003 32.9604C8.46849 34.997 8.58615 37.0446 8.97 39.0504C8.66662 39.4991 8.41819 39.9825 8.23001 40.4904C8.15824 41.014 8.1215 41.5419 8.12003 42.0704L7.59 43.6504C7.48342 45.1612 7.66675 46.6784 8.13003 48.1204L9.20004 49.9704C9.0733 50.1905 8.96621 50.4214 8.88003 50.6604C8.98359 51.9482 9.35124 53.2009 9.96005 54.3404C10.3434 55.016 10.778 55.6612 11.26 56.2704C11.3472 56.5626 11.4507 56.8498 11.57 57.1304C11.3218 57.8597 11.2297 58.6332 11.3 59.4004C12.23 60.4904 13.13 61.5104 13.99 62.6604C16.594 65.3643 19.4281 67.837 22.4601 70.0504C25.3482 71.6223 28.3579 72.96 31.4601 74.0504C33.7901 74.4104 35.8001 74.6204 38.1501 74.7904L40.33 75.0404C42.9054 74.8151 45.433 74.2085 47.83 73.2404C48.0275 73.0593 48.1932 72.8464 48.32 72.6104C49.0152 72.9994 49.7492 73.3144 50.51 73.5504C51.5474 73.3714 52.5435 73.0055 53.45 72.4704L54.9001 72.2504C55.6468 71.9859 56.3667 71.6511 57.05 71.2504C58.7 69.9804 60.95 67.8604 62.91 67.4004C63.528 66.5806 64.0077 65.6651 64.33 64.6904C64.4128 64.2587 64.453 63.8199 64.45 63.3804C65.1563 63.1032 65.8275 62.744 66.45 62.3104C66.8257 61.6934 67.1598 61.0519 67.45 60.3904C68.39 59.3904 69.37 58.3904 70.39 57.3904C70.7705 55.8465 71.028 54.2749 71.16 52.6904L72.69 49.8204L73.62 46.9104L73.12 44.3304Z" fill="url(#paint88_radial_1238_102718)"/>
<path style="mix-blend-mode:screen" fill-rule="evenodd" clip-rule="evenodd" d="M73.12 44.3304C73.22 43.5104 73.32 42.6904 73.43 41.8704C73.48 40.6504 73.54 39.4204 73.6 38.1904C73.29 36.3804 72.97 34.5704 72.66 32.7604C71.8905 31.2114 71.3836 29.5454 71.16 27.8304C69.93 25.7304 69.02 23.9504 67.99 21.7404C66.94 20.6104 65.99 19.4204 64.99 18.3104C62.4971 15.7468 59.7035 13.4938 56.67 11.6004L55.8 11.1204C55.2586 10.9254 54.6992 10.7848 54.13 10.7004L52.13 9.37039C51.5588 9.13103 50.9613 8.95985 50.35 8.86039C49.8729 9.22587 49.443 9.6491 49.07 10.1204L48.07 9.49039L45.92 8.82039L41.34 8.65039L37.43 8.76039L34.43 8.65039L31.03 10.3404L27.7101 11.7004L26.55 11.8704L24.18 13.6004L22.59 14.6004L20.59 15.9904L20.32 16.7204L20.5 17.1504C20.44 17.0004 20.38 16.8504 20.31 16.7004C19.8576 16.4882 19.3585 16.3953 18.86 16.4304C16.3546 18.6148 14.1248 21.0964 12.22 23.8204C10.715 26.7379 9.5089 29.8002 8.62003 32.9604C8.46849 34.997 8.58615 37.0446 8.97 39.0504C8.66662 39.4991 8.41819 39.9825 8.23001 40.4904C8.15824 41.014 8.1215 41.5419 8.12003 42.0704L7.59 43.6504C7.48342 45.1612 7.66675 46.6784 8.13003 48.1204L9.20004 49.9704C9.0733 50.1905 8.96621 50.4214 8.88003 50.6604C8.98359 51.9482 9.35124 53.2009 9.96005 54.3404C10.3434 55.016 10.778 55.6612 11.26 56.2704C11.3472 56.5626 11.4507 56.8498 11.57 57.1304C11.3218 57.8597 11.2297 58.6332 11.3 59.4004C12.23 60.4904 13.13 61.5104 13.99 62.6604C16.594 65.3643 19.4281 67.837 22.4601 70.0504C25.3482 71.6223 28.3579 72.96 31.4601 74.0504C33.7901 74.4104 35.8001 74.6204 38.1501 74.7904L40.33 75.0404C42.9054 74.8151 45.433 74.2085 47.83 73.2404C48.0275 73.0593 48.1932 72.8464 48.32 72.6104C49.0152 72.9994 49.7492 73.3144 50.51 73.5504C51.5474 73.3714 52.5435 73.0055 53.45 72.4704L54.9001 72.2504C55.6468 71.9859 56.3667 71.6511 57.05 71.2504C58.7 69.9804 60.95 67.8604 62.91 67.4004C63.528 66.5806 64.0077 65.6651 64.33 64.6904C64.4128 64.2587 64.453 63.8199 64.45 63.3804C65.1563 63.1032 65.8275 62.744 66.45 62.3104C66.8257 61.6934 67.1598 61.0519 67.45 60.3904C68.39 59.3904 69.37 58.3904 70.39 57.3904C70.7705 55.8465 71.028 54.2749 71.16 52.6904L72.69 49.8204L73.62 46.9104L73.12 44.3304Z" fill="url(#paint89_radial_1238_102718)"/>
<path style="mix-blend-mode:screen" fill-rule="evenodd" clip-rule="evenodd" d="M73.12 44.3304C73.22 43.5104 73.32 42.6904 73.43 41.8704C73.48 40.6504 73.54 39.4204 73.6 38.1904C73.29 36.3804 72.97 34.5704 72.66 32.7604C71.8905 31.2114 71.3836 29.5454 71.16 27.8304C69.93 25.7304 69.02 23.9504 67.99 21.7404C66.94 20.6104 65.99 19.4204 64.99 18.3104C62.4971 15.7468 59.7035 13.4938 56.67 11.6004L55.8 11.1204C55.2586 10.9254 54.6992 10.7848 54.13 10.7004L52.13 9.37039C51.5588 9.13103 50.9613 8.95985 50.35 8.86039C49.8729 9.22587 49.443 9.6491 49.07 10.1204L48.07 9.49039L45.92 8.82039L41.34 8.65039L37.43 8.76039L34.43 8.65039L31.03 10.3404L27.7101 11.7004L26.55 11.8704L24.18 13.6004L22.59 14.6004L20.59 15.9904L20.32 16.7204L20.5 17.1504C20.44 17.0004 20.38 16.8504 20.31 16.7004C19.8576 16.4882 19.3585 16.3953 18.86 16.4304C16.3546 18.6148 14.1248 21.0964 12.22 23.8204C10.715 26.7379 9.5089 29.8002 8.62003 32.9604C8.46849 34.997 8.58615 37.0446 8.97 39.0504C8.66662 39.4991 8.41819 39.9825 8.23001 40.4904C8.15824 41.014 8.1215 41.5419 8.12003 42.0704L7.59 43.6504C7.48342 45.1612 7.66675 46.6784 8.13003 48.1204L9.20004 49.9704C9.0733 50.1905 8.96621 50.4214 8.88003 50.6604C8.98359 51.9482 9.35124 53.2009 9.96005 54.3404C10.3434 55.016 10.778 55.6612 11.26 56.2704C11.3472 56.5626 11.4507 56.8498 11.57 57.1304C11.3218 57.8597 11.2297 58.6332 11.3 59.4004C12.23 60.4904 13.13 61.5104 13.99 62.6604C16.594 65.3643 19.4281 67.837 22.4601 70.0504C25.3482 71.6223 28.3579 72.96 31.4601 74.0504C33.7901 74.4104 35.8001 74.6204 38.1501 74.7904L40.33 75.0404C42.9054 74.8151 45.433 74.2085 47.83 73.2404C48.0275 73.0593 48.1932 72.8464 48.32 72.6104C49.0152 72.9994 49.7492 73.3144 50.51 73.5504C51.5474 73.3714 52.5435 73.0055 53.45 72.4704L54.9001 72.2504C55.6468 71.9859 56.3667 71.6511 57.05 71.2504C58.7 69.9804 60.95 67.8604 62.91 67.4004C63.528 66.5806 64.0077 65.6651 64.33 64.6904C64.4128 64.2587 64.453 63.8199 64.45 63.3804C65.1563 63.1032 65.8275 62.744 66.45 62.3104C66.8257 61.6934 67.1598 61.0519 67.45 60.3904C68.39 59.3904 69.37 58.3904 70.39 57.3904C70.7705 55.8465 71.028 54.2749 71.16 52.6904L72.69 49.8204L73.62 46.9104L73.12 44.3304Z" fill="url(#paint90_radial_1238_102718)"/>
<path style="mix-blend-mode:screen" opacity="0.6" fill-rule="evenodd" clip-rule="evenodd" d="M21.9403 18.0598C21.0426 18.6099 20.0991 19.0816 19.1203 19.4698C18.2503 19.8598 17.1203 22.1098 16.9303 22.3998C15.3268 24.4157 13.9015 26.5671 12.6703 28.8298C11.8909 30.7595 11.3373 32.7729 11.0204 34.8298C10.8818 35.6325 10.8082 36.4452 10.8003 37.2598C10.8003 37.6198 10.8003 37.9898 10.8003 38.3498C10.5403 40.1498 10.9704 41.5698 12.5204 44.0198C13.0928 45.0324 13.7238 46.0107 14.4103 46.9498C15.2501 48.1862 16.208 49.3383 17.2704 50.3898C18.2116 51.1469 19.2684 51.7479 20.4004 52.1698C21.3687 52.5206 22.3761 52.7523 23.4004 52.8598C25.2076 53.1935 27.0426 53.3543 28.8803 53.3398C29.9493 53.1543 30.9863 52.8176 31.9604 52.3398C33.4004 51.8198 34.7903 51.1798 36.2203 50.6398C38.9403 49.6398 40.8203 48.8398 42.8303 46.6398C43.9703 45.3598 44.8303 43.8598 46.0003 42.6398C46.5903 41.9998 47.4903 41.6398 48.0003 41.0298C48.6923 40.1767 49.2489 39.2222 49.6504 38.1998C50.1104 37.0898 50.2204 35.8598 50.6504 34.7298C51.0909 33.8889 51.4686 33.0165 51.7803 32.1198C52.1497 30.1151 52.3106 28.0776 52.2603 26.0398C52.1841 24.7654 51.9352 23.5072 51.5204 22.2998C51.1585 21.0609 50.6303 19.8768 49.9503 18.7798C49.2713 17.8881 48.5004 17.0703 47.6504 16.3398C45.5343 14.4463 43.0288 13.04 40.3103 12.2198C38.8979 11.8972 37.4444 11.7926 36.0003 11.9098C34.5058 12.1518 33.0316 12.5062 31.5903 12.9698C30.1377 13.2483 28.7021 13.6089 27.2903 14.0498C26.2628 14.449 25.2966 14.991 24.4203 15.6598C23.5003 16.3598 22.9003 17.4498 21.9403 18.0998V18.0598ZM12.8503 46.2598C12.7603 46.1298 12.5403 45.9898 12.4203 46.0798C11.3503 46.8398 12.6203 49.8198 13.0803 50.7498C13.5072 51.6834 14.1815 52.4823 15.0303 53.0598C15.5703 53.3898 16.3303 52.9298 16.9403 53.0598C17.5503 53.1898 17.6303 53.7398 18.1703 53.9298C19.9103 54.5398 21.1703 53.4898 19.7603 52.9298C18.9945 52.6424 18.2632 52.2701 17.5803 51.8198C15.1603 50.1098 14.3003 48.5398 12.8503 46.2698V46.2598ZM45.3303 46.6798C45.2707 46.625 45.1982 46.5861 45.1195 46.5669C45.0408 46.5477 44.9585 46.5486 44.8803 46.5698C44.5566 46.6299 44.2475 46.7521 43.9703 46.9298C43.6035 47.1556 43.2674 47.4278 42.9703 47.7398C42.6876 48.0195 42.4752 48.3622 42.3503 48.7398C42.3003 48.8998 42.3503 49.1698 42.5603 49.2098C43.1361 49.3696 43.7446 49.3696 44.3203 49.2098C45.1503 48.9698 45.8003 47.2098 45.3203 46.6698L45.3303 46.6798Z" fill="url(#paint91_radial_1238_102718)"/>
<path style="mix-blend-mode:screen" fill-rule="evenodd" clip-rule="evenodd" d="M18.8402 19.6396C18.3513 21.2985 18.4938 23.0796 19.2402 24.6396C19.3918 24.9076 19.4872 25.2036 19.5203 25.5097C19.492 27.504 19.2097 29.4866 18.6802 31.4096C19.3131 29.7155 19.795 27.9687 20.1202 26.1897C20.1902 25.9397 20.2902 25.8997 20.7202 26.1297C21.5902 26.5996 22.4402 27.0297 23.3402 27.4197C22.2302 26.7797 20.3403 25.8796 19.7003 24.6996C18.8725 23.1509 18.5773 21.3728 18.8602 19.6396H18.8402Z" fill="url(#paint92_radial_1238_102718)"/>
<path style="mix-blend-mode:screen" fill-rule="evenodd" clip-rule="evenodd" d="M22.7704 17.6396C22.5204 18.5596 22.2804 19.4296 22.0904 20.3596C22.0404 20.6396 21.7204 20.8396 21.4404 20.9996C21.6995 20.8643 21.9881 20.7955 22.2804 20.7997C22.9401 21.2278 23.4558 21.8445 23.7604 22.5696C23.9168 23.3079 24.1654 24.0235 24.5004 24.6996C24.2564 24.0547 24.0886 23.3835 24.0004 22.6996C24.0004 22.3596 23.9404 22.3196 24.2904 22.2596C24.8218 22.1955 25.359 22.1955 25.8904 22.2596C26.4381 22.2951 26.9809 22.3855 27.5104 22.5296C27.0113 22.3224 26.4918 22.1682 25.9604 22.0696C25.8904 22.0696 25.8904 21.9796 25.9604 21.9296C26.6644 21.6012 27.307 21.1548 27.8604 20.6096C27.2685 21.0508 26.6433 21.4453 25.9904 21.7896C25.8248 21.8775 25.6506 21.9479 25.4704 21.9996C24.8553 22.1378 24.2125 22.0819 23.6304 21.8396C23.161 21.4467 22.762 20.9766 22.4504 20.4496C22.5604 19.5196 22.5604 18.5796 22.7404 17.6596L22.7704 17.6396Z" fill="url(#paint93_radial_1238_102718)"/>
<path style="mix-blend-mode:screen" fill-rule="evenodd" clip-rule="evenodd" d="M41.9603 19.25C41.1107 17.7022 40.4621 16.0522 40.0303 14.34C39.7162 14.1209 39.3812 13.9333 39.0303 13.78C39.3843 13.9346 39.7485 14.0649 40.1203 14.17C41.6103 12.26 42.6703 11.58 44.5203 11.29C42.7828 11.7498 41.2979 12.8787 40.3903 14.43C40.3903 15.5 41.4503 18.19 41.9303 19.25H41.9603Z" fill="url(#paint94_radial_1238_102718)"/>
<path style="mix-blend-mode:screen" fill-rule="evenodd" clip-rule="evenodd" d="M29.52 28.6797C30.7939 29.0374 31.9213 29.7902 32.74 30.8297C33.2768 32.3828 33.6653 33.9833 33.9 35.6097C34.04 36.4397 33.59 36.4497 32.9 36.9397C33.53 36.6497 33.95 36.4597 34.25 36.5697C35.0287 37.2562 35.7635 37.9909 36.45 38.7697L34.54 36.3697C33.9627 34.6727 33.5148 32.9344 33.2 31.1697C33.0389 30.6171 33.0635 30.0269 33.27 29.4897C33.19 29.7097 33.11 29.9197 33.04 30.1397C32.84 30.6697 32.8 30.4297 32.35 30.0597C31.5582 29.3268 30.566 28.8463 29.5 28.6797H29.52Z" fill="url(#paint95_radial_1238_102718)"/>
<path style="mix-blend-mode:screen" fill-rule="evenodd" clip-rule="evenodd" d="M19.9696 25.5C19.7474 27.8577 19.1988 30.1732 18.3396 32.38C17.5896 33.83 16.7697 35.25 15.8997 36.66C15.5287 37.6292 15.2605 38.6347 15.0996 39.66L16.3796 40.15C17.4359 40.0951 18.4826 39.9206 19.4996 39.63C20.3263 39.4129 21.138 39.1423 21.9296 38.82L22.1497 38.39L22.4597 37.78C25.0297 36.06 27.6996 34.4 30.3696 32.59C29.7713 31.3694 29.0148 30.233 28.1196 29.21C25.2038 28.4331 22.4365 27.1795 19.9296 25.5H19.9696Z" fill="url(#paint96_radial_1238_102718)"/>
<path style="mix-blend-mode:screen" opacity="0.65" fill-rule="evenodd" clip-rule="evenodd" d="M25.54 22.1203C27.14 21.3503 28.4001 20.1203 29.4501 19.5203C29.8201 19.3203 31.2201 18.6203 32.0701 18.1203C34.5901 16.6403 37.1601 15.1203 38.5701 13.2803C38.2017 12.7506 37.7903 12.2523 37.34 11.7903C36.4802 11.5426 35.6001 11.3719 34.7101 11.2803C32.2324 11.3909 29.7743 11.7732 27.3801 12.4203C26.4586 12.9938 25.5887 13.6463 24.78 14.3703C24.0865 15.0941 23.5036 15.9163 23.05 16.8103C22.6201 18.0041 22.3641 19.2536 22.29 20.5203C22.7703 21.0814 23.2882 21.6093 23.84 22.1003C24.4062 22.0652 24.9739 22.0652 25.54 22.1003V22.1203Z" fill="url(#paint97_radial_1238_102718)"/>
<path style="mix-blend-mode:screen" fill-rule="evenodd" clip-rule="evenodd" d="M18.3396 32.3804C19.1988 30.1736 19.7473 27.8582 19.9696 25.5004C18.6596 23.4504 18.3496 21.9804 19.1196 17.9104V17.7604C19.0396 17.3204 18.9696 16.8904 18.8496 16.4404C16.3442 18.6248 14.1144 21.1064 12.2096 23.8304C10.7046 26.748 9.49846 29.8102 8.60958 32.9704C8.48831 34.329 8.67988 35.6974 9.16958 36.9704C9.3079 37.2744 9.49353 37.5546 9.71957 37.8004C10.0961 37.8832 10.4766 37.9466 10.8596 37.9904C11.1542 38.1957 11.4652 38.3763 11.7896 38.5304C12.9596 38.9004 14.0296 39.2704 15.1296 39.6804C15.2905 38.6552 15.5586 37.6497 15.9296 36.6804C16.7996 35.2704 17.6196 33.8504 18.3696 32.4004L18.3396 32.3804Z" fill="url(#paint98_radial_1238_102718)"/>
<path style="mix-blend-mode:screen" opacity="0.6" fill-rule="evenodd" clip-rule="evenodd" d="M45.2497 41.5105C47.3597 40.5805 50.6597 39.0505 52.4397 37.2405C52.7997 35.0005 54.7697 33.4205 55.9297 31.5205C54.7951 30.0721 53.9744 28.4034 53.5197 26.6205C50.5266 26.1829 47.5784 25.4801 44.7097 24.5205C43.5513 24.6055 42.3881 24.6055 41.2297 24.5205C38.6997 27.3205 37.0797 27.9305 33.4897 28.8005L32.9297 30.7205C33.5389 32.5133 33.9677 34.3625 34.2097 36.2405C35.4865 37.556 36.6694 38.9595 37.7497 40.4405C40.2049 41.0608 42.7189 41.4194 45.2497 41.5105Z" fill="url(#paint99_radial_1238_102718)"/>
<defs>
<radialGradient id="paint0_radial_1238_102718" cx="0" cy="0" r="1" gradientUnits="userSpaceOnUse" gradientTransform="translate(36.71 36.71) scale(36.71 36.71)">
<stop stop-color="#FF9442"/>
<stop offset="0.1" stop-color="#DD8039"/>
<stop offset="0.36" stop-color="#8F5325"/>
<stop offset="0.58" stop-color="#522F15"/>
<stop offset="0.77" stop-color="#25160A"/>
<stop offset="0.91" stop-color="#0A0603"/>
<stop offset="1"/>
</radialGradient>
<radialGradient id="paint1_radial_1238_102718" cx="0" cy="0" r="1" gradientUnits="userSpaceOnUse" gradientTransform="translate(13.3299 54.81) scale(8.23995 8.24)">
<stop stop-color="#54143C"/>
<stop offset="1" stop-color="#9C3329"/>
</radialGradient>
<radialGradient id="paint2_radial_1238_102718" cx="0" cy="0" r="1" gradientUnits="userSpaceOnUse" gradientTransform="translate(30.0596 30.96) scale(29.74 29.74)">
<stop stop-color="#691731"/>
<stop offset="1" stop-color="#B84D42"/>
</radialGradient>
<radialGradient id="paint3_radial_1238_102718" cx="0" cy="0" r="1" gradientUnits="userSpaceOnUse" gradientTransform="translate(29.7896 53.24) scale(19.33 19.33)">
<stop offset="0.54" stop-color="white"/>
<stop offset="0.6" stop-color="#FAF5F5"/>
<stop offset="0.71" stop-color="#ECDCDA"/>
<stop offset="0.85" stop-color="#D5B2AD"/>
<stop offset="1" stop-color="#B87E76"/>
</radialGradient>
<radialGradient id="paint4_radial_1238_102718" cx="0" cy="0" r="1" gradientUnits="userSpaceOnUse" gradientTransform="translate(30.9796 55.75) scale(16.9 16.9)">
<stop stop-color="#F33218"/>
<stop offset="0.07" stop-color="#DD2D16"/>
<stop offset="0.33" stop-color="#8F1D0E"/>
<stop offset="0.56" stop-color="#521108"/>
<stop offset="0.76" stop-color="#250804"/>
<stop offset="0.91" stop-color="#0A0201"/>
<stop offset="1"/>
</radialGradient>
<radialGradient id="paint5_radial_1238_102718" cx="0" cy="0" r="1" gradientUnits="userSpaceOnUse" gradientTransform="translate(24.0295 25.3104) scale(29.8199 29.82)">
<stop stop-color="#9C3329"/>
<stop offset="1" stop-color="#4F0C35"/>
</radialGradient>
<radialGradient id="paint6_radial_1238_102718" cx="0" cy="0" r="1" gradientUnits="userSpaceOnUse" gradientTransform="translate(19.7997 28.4605) scale(28.4001 28.4)">
<stop stop-color="#8A2920"/>
<stop offset="1" stop-color="#4A0B25"/>
</radialGradient>
<radialGradient id="paint7_radial_1238_102718" cx="0" cy="0" r="1" gradientUnits="userSpaceOnUse" gradientTransform="translate(35.9003 35.6502) scale(14.97 14.97)">
<stop stop-color="#54143C"/>
<stop offset="1" stop-color="#9C3329"/>
</radialGradient>
<radialGradient id="paint8_radial_1238_102718" cx="0" cy="0" r="1" gradientUnits="userSpaceOnUse" gradientTransform="translate(14.9997 18.2799) scale(24.6 24.6)">
<stop stop-color="#A93F34"/>
<stop offset="1" stop-color="#6B1E3B"/>
</radialGradient>
<radialGradient id="paint9_radial_1238_102718" cx="0" cy="0" r="1" gradientUnits="userSpaceOnUse" gradientTransform="translate(13.2901 29.6397) scale(16.24 16.24)">
<stop stop-color="#BD4124"/>
<stop offset="1" stop-color="#641A3B"/>
</radialGradient>
<radialGradient id="paint10_radial_1238_102718" cx="0" cy="0" r="1" gradientUnits="userSpaceOnUse" gradientTransform="translate(18.6997 27.0199) scale(16.53 16.53)">
<stop stop-color="#73251E"/>
<stop offset="1" stop-color="#4A1234"/>
</radialGradient>
<radialGradient id="paint11_radial_1238_102718" cx="0" cy="0" r="1" gradientUnits="userSpaceOnUse" gradientTransform="translate(25.8095 11.0102) scale(27.7899 27.79)">
<stop stop-color="#73251E"/>
<stop offset="1" stop-color="#4A1234"/>
</radialGradient>
<radialGradient id="paint12_radial_1238_102718" cx="0" cy="0" r="1" gradientUnits="userSpaceOnUse" gradientTransform="translate(16.9603 13.0699) scale(5.93994 5.94)">
<stop stop-color="#73251E"/>
<stop offset="1" stop-color="#4A1234"/>
</radialGradient>
<radialGradient id="paint13_radial_1238_102718" cx="0" cy="0" r="1" gradientUnits="userSpaceOnUse" gradientTransform="translate(31.5995 9.91039) scale(17.03 17.03)">
<stop stop-color="#73251E"/>
<stop offset="1" stop-color="#4A1234"/>
</radialGradient>
<radialGradient id="paint14_radial_1238_102718" cx="0" cy="0" r="1" gradientUnits="userSpaceOnUse" gradientTransform="translate(30.8096 37.44) scale(16.33 16.33)">
<stop stop-color="#6B1E3B"/>
<stop offset="1" stop-color="#C44A3C"/>
</radialGradient>
<radialGradient id="paint15_radial_1238_102718" cx="0" cy="0" r="1" gradientUnits="userSpaceOnUse" gradientTransform="translate(-0.520405 19.7104) scale(24.24 24.24)">
<stop stop-color="#6B1E3B"/>
<stop offset="1" stop-color="#DB5B4E"/>
</radialGradient>
<radialGradient id="paint16_radial_1238_102718" cx="0" cy="0" r="1" gradientUnits="userSpaceOnUse" gradientTransform="translate(28.7595 19.0199) scale(10.38 10.38)">
<stop stop-color="#96372D"/>
<stop offset="1" stop-color="#300317"/>
</radialGradient>
<radialGradient id="paint17_radial_1238_102718" cx="0" cy="0" r="1" gradientUnits="userSpaceOnUse" gradientTransform="translate(24.3298 21.9897) scale(23.7301 23.73)">
<stop stop-color="#A93F34"/>
<stop offset="1" stop-color="#6B1E3B"/>
</radialGradient>
<radialGradient id="paint18_radial_1238_102718" cx="0" cy="0" r="1" gradientUnits="userSpaceOnUse" gradientTransform="translate(28.34 7.21031) scale(21.27 21.27)">
<stop stop-color="#993329"/>
<stop offset="1" stop-color="#6E203A"/>
</radialGradient>
<radialGradient id="paint19_radial_1238_102718" cx="0" cy="0" r="1" gradientUnits="userSpaceOnUse" gradientTransform="translate(28.7001 14.9801) scale(15.62 15.62)">
<stop stop-color="#73251E"/>
<stop offset="1" stop-color="#3B0F29"/>
</radialGradient>
<radialGradient id="paint20_radial_1238_102718" cx="0" cy="0" r="1" gradientUnits="userSpaceOnUse" gradientTransform="translate(56.2399 20.0403) scale(18.84 18.84)">
<stop stop-color="#73251E"/>
<stop offset="1" stop-color="#3B0E2A"/>
</radialGradient>
<radialGradient id="paint21_radial_1238_102718" cx="0" cy="0" r="1" gradientUnits="userSpaceOnUse" gradientTransform="translate(34.7201 38.2098) scale(33.56 33.56)">
<stop stop-color="#6B1E3B"/>
<stop offset="1" stop-color="#C44A3C"/>
</radialGradient>
<radialGradient id="paint22_radial_1238_102718" cx="0" cy="0" r="1" gradientUnits="userSpaceOnUse" gradientTransform="translate(33.3701 12.2003) scale(45.7701 45.77)">
<stop stop-color="#BF473B"/>
<stop offset="1" stop-color="#6B1E3B"/>
</radialGradient>
<radialGradient id="paint23_radial_1238_102718" cx="0" cy="0" r="1" gradientUnits="userSpaceOnUse" gradientTransform="translate(50.4196 17.5003) scale(30.69 30.69)">
<stop stop-color="#9E3752"/>
<stop offset="1" stop-color="#571133"/>
</radialGradient>
<radialGradient id="paint24_radial_1238_102718" cx="0" cy="0" r="1" gradientUnits="userSpaceOnUse" gradientTransform="translate(61.9296 42.4503) scale(18.68 18.68)">
<stop stop-color="#6B1E3B"/>
<stop offset="1" stop-color="#C44A3C"/>
</radialGradient>
<radialGradient id="paint25_radial_1238_102718" cx="0" cy="0" r="1" gradientUnits="userSpaceOnUse" gradientTransform="translate(30.6398 28.4499) scale(42.38 42.38)">
<stop stop-color="#9E3359"/>
<stop offset="1" stop-color="#591931"/>
</radialGradient>
<radialGradient id="paint26_radial_1238_102718" cx="0" cy="0" r="1" gradientUnits="userSpaceOnUse" gradientTransform="translate(57.2303 24.6199) scale(66.8301 66.83)">
<stop stop-color="#5C1233"/>
<stop offset="1" stop-color="#A93F34"/>
</radialGradient>
<radialGradient id="paint27_radial_1238_102718" cx="0" cy="0" r="1" gradientUnits="userSpaceOnUse" gradientTransform="translate(56.1598 27.0098) scale(28.33 28.33)">
<stop stop-color="#9C3329"/>
<stop offset="1" stop-color="#480F3C"/>
</radialGradient>
<radialGradient id="paint28_radial_1238_102718" cx="0" cy="0" r="1" gradientUnits="userSpaceOnUse" gradientTransform="translate(60.39 34.0205) scale(17.94 17.94)">
<stop stop-color="#9C3329"/>
<stop offset="1" stop-color="#430C3D"/>
</radialGradient>
<radialGradient id="paint29_radial_1238_102718" cx="0" cy="0" r="1" gradientUnits="userSpaceOnUse" gradientTransform="translate(16.3902 43.7299) scale(15.76 15.76)">
<stop stop-color="#73251E"/>
<stop offset="1" stop-color="#4A1234"/>
</radialGradient>
<radialGradient id="paint30_radial_1238_102718" cx="0" cy="0" r="1" gradientUnits="userSpaceOnUse" gradientTransform="translate(17.3499 44.3805) scale(36.8699 36.87)">
<stop stop-color="#6B1E3B"/>
<stop offset="1" stop-color="#C44A3C"/>
</radialGradient>
<radialGradient id="paint31_radial_1238_102718" cx="0" cy="0" r="1" gradientUnits="userSpaceOnUse" gradientTransform="translate(11.13 37.0405) scale(18.75 18.75)">
<stop stop-color="#BD5348"/>
<stop offset="1" stop-color="#6B1E3B"/>
</radialGradient>
<radialGradient id="paint32_radial_1238_102718" cx="0" cy="0" r="1" gradientUnits="userSpaceOnUse" gradientTransform="translate(28.7901 44.42) scale(11.14 11.14)">
<stop stop-color="#6B1E3B"/>
<stop offset="1" stop-color="#C44A3C"/>
</radialGradient>
<radialGradient id="paint33_radial_1238_102718" cx="0" cy="0" r="1" gradientUnits="userSpaceOnUse" gradientTransform="translate(39.9201 27.1802) scale(25.52 25.52)">
<stop stop-color="#BD3634"/>
<stop offset="1" stop-color="#641A3B"/>
</radialGradient>
<radialGradient id="paint34_radial_1238_102718" cx="0" cy="0" r="1" gradientUnits="userSpaceOnUse" gradientTransform="translate(39.1401 14.7505) scale(27.7399 27.74)">
<stop stop-color="#6B1E3B"/>
<stop offset="1" stop-color="#C44A3C"/>
</radialGradient>
<radialGradient id="paint35_radial_1238_102718" cx="0" cy="0" r="1" gradientUnits="userSpaceOnUse" gradientTransform="translate(34.6895 36.3805) scale(23.7601 23.76)">
<stop stop-color="#9C3329"/>
<stop offset="1" stop-color="#480A36"/>
</radialGradient>
<radialGradient id="paint36_radial_1238_102718" cx="0" cy="0" r="1" gradientUnits="userSpaceOnUse" gradientTransform="translate(34.2902 35.4399) scale(23.8901 23.89)">
<stop stop-color="#73251E"/>
<stop offset="1" stop-color="#4A1234"/>
</radialGradient>
<radialGradient id="paint37_radial_1238_102718" cx="0" cy="0" r="1" gradientUnits="userSpaceOnUse" gradientTransform="translate(43.98 32.6805) scale(32.47 32.47)">
<stop stop-color="#73251E"/>
<stop offset="1" stop-color="#4A1234"/>
</radialGradient>
<radialGradient id="paint38_radial_1238_102718" cx="0" cy="0" r="1" gradientUnits="userSpaceOnUse" gradientTransform="translate(38.13 33.5004) scale(18.23 18.23)">
<stop stop-color="#96372D"/>
<stop offset="1" stop-color="#380F21"/>
</radialGradient>
<radialGradient id="paint39_radial_1238_102718" cx="0" cy="0" r="1" gradientUnits="userSpaceOnUse" gradientTransform="translate(63.5297 42.4505) scale(39.5 39.5)">
<stop stop-color="#6B1E3B"/>
<stop offset="1" stop-color="#C44A3C"/>
</radialGradient>
<radialGradient id="paint40_radial_1238_102718" cx="0" cy="0" r="1" gradientUnits="userSpaceOnUse" gradientTransform="translate(58.1998 42.9001) scale(6.97009 6.96999)">
<stop stop-color="#BD4124"/>
<stop offset="1" stop-color="#641A3B"/>
</radialGradient>
<radialGradient id="paint41_radial_1238_102718" cx="0" cy="0" r="1" gradientUnits="userSpaceOnUse" gradientTransform="translate(55.8498 38.7698) scale(5.4101 5.41)">
<stop stop-color="#73251E"/>
<stop offset="1" stop-color="#4A1234"/>
</radialGradient>
<radialGradient id="paint42_radial_1238_102718" cx="0" cy="0" r="1" gradientUnits="userSpaceOnUse" gradientTransform="translate(52.3105 37.9103) scale(7.62986 7.63)">
<stop stop-color="#9C3329"/>
<stop offset="1" stop-color="#480A36"/>
</radialGradient>
<radialGradient id="paint43_radial_1238_102718" cx="0" cy="0" r="1" gradientUnits="userSpaceOnUse" gradientTransform="translate(24.6402 48.9502) scale(26.54 26.54)">
<stop stop-color="#A93F34"/>
<stop offset="1" stop-color="#6B1E3B"/>
</radialGradient>
<radialGradient id="paint44_radial_1238_102718" cx="0" cy="0" r="1" gradientUnits="userSpaceOnUse" gradientTransform="translate(27.6098 15.4502) scale(61.02 61.02)">
<stop stop-color="#822B22"/>
<stop offset="1" stop-color="#4D1127"/>
</radialGradient>
<radialGradient id="paint45_radial_1238_102718" cx="0" cy="0" r="1" gradientUnits="userSpaceOnUse" gradientTransform="translate(27.5104 53.9101) scale(28.01 28.01)">
<stop stop-color="#5C1435"/>
<stop offset="1" stop-color="#9E3540"/>
</radialGradient>
<radialGradient id="paint46_radial_1238_102718" cx="0" cy="0" r="1" gradientUnits="userSpaceOnUse" gradientTransform="translate(41.8404 43.6196) scale(16.8499 16.85)">
<stop stop-color="#73251E"/>
<stop offset="1" stop-color="#4A1234"/>
</radialGradient>
<radialGradient id="paint47_radial_1238_102718" cx="0" cy="0" r="1" gradientUnits="userSpaceOnUse" gradientTransform="translate(45.8697 42.9704) scale(13.59 13.59)">
<stop stop-color="#8C2D2B"/>
<stop offset="1" stop-color="#520E34"/>
</radialGradient>
<radialGradient id="paint48_radial_1238_102718" cx="0" cy="0" r="1" gradientUnits="userSpaceOnUse" gradientTransform="translate(44.8601 39.5297) scale(15.28 15.28)">
<stop stop-color="#9C3329"/>
<stop offset="1" stop-color="#4F0D35"/>
</radialGradient>
<radialGradient id="paint49_radial_1238_102718" cx="0" cy="0" r="1" gradientUnits="userSpaceOnUse" gradientTransform="translate(37.0901 37.0402) scale(21.25 21.25)">
<stop stop-color="#A93F34"/>
<stop offset="1" stop-color="#6B1E3B"/>
</radialGradient>
<radialGradient id="paint50_radial_1238_102718" cx="0" cy="0" r="1" gradientUnits="userSpaceOnUse" gradientTransform="translate(46.3701 33.3702) scale(21.25 21.25)">
<stop offset="0.62" stop-color="#B87E76"/>
<stop offset="0.69" stop-color="#D5B2AD"/>
<stop offset="0.76" stop-color="#ECDCDA"/>
<stop offset="0.81" stop-color="#FAF5F5"/>
<stop offset="0.84" stop-color="white"/>
</radialGradient>
<radialGradient id="paint51_radial_1238_102718" cx="0" cy="0" r="1" gradientUnits="userSpaceOnUse" gradientTransform="translate(47.9396 45.1705) scale(8.88 8.88)">
<stop stop-color="#73251E"/>
<stop offset="1" stop-color="#4A1234"/>
</radialGradient>
<radialGradient id="paint52_radial_1238_102718" cx="0" cy="0" r="1" gradientUnits="userSpaceOnUse" gradientTransform="translate(43.4101 46.5803) scale(7.15996 7.16)">
<stop stop-color="#6B1E3B"/>
<stop offset="1" stop-color="#9E3838"/>
</radialGradient>
<radialGradient id="paint53_radial_1238_102718" cx="0" cy="0" r="1" gradientUnits="userSpaceOnUse" gradientTransform="translate(43.6097 47.0896) scale(8.25002 8.24997)">
<stop stop-color="#480A36"/>
<stop offset="1" stop-color="#9C3329"/>
</radialGradient>
<radialGradient id="paint54_radial_1238_102718" cx="0" cy="0" r="1" gradientUnits="userSpaceOnUse" gradientTransform="translate(19.6103 61.36) scale(3.64002 3.64001)">
<stop stop-color="#A93F34"/>
<stop offset="1" stop-color="#6B1E3B"/>
</radialGradient>
<radialGradient id="paint55_radial_1238_102718" cx="0" cy="0" r="1" gradientUnits="userSpaceOnUse" gradientTransform="translate(17.4797 57.2098) scale(9.28992 9.29)">
<stop stop-color="#73251E"/>
<stop offset="1" stop-color="#4A1234"/>
</radialGradient>
<radialGradient id="paint56_radial_1238_102718" cx="0" cy="0" r="1" gradientUnits="userSpaceOnUse" gradientTransform="translate(15.4195 56.7799) scale(8.57996 8.58)">
<stop stop-color="#9C3329"/>
<stop offset="1" stop-color="#54143C"/>
</radialGradient>
<radialGradient id="paint57_radial_1238_102718" cx="0" cy="0" r="1" gradientUnits="userSpaceOnUse" gradientTransform="translate(23.2499 57.49) scale(13.52 13.52)">
<stop stop-color="#6B1E3B"/>
<stop offset="1" stop-color="#C44A3C"/>
</radialGradient>
<radialGradient id="paint58_radial_1238_102718" cx="0" cy="0" r="1" gradientUnits="userSpaceOnUse" gradientTransform="translate(67.2199 23.2999) scale(32.5701 32.57)">
<stop stop-color="#6B1E3B"/>
<stop offset="1" stop-color="#D44747"/>
</radialGradient>
<radialGradient id="paint59_radial_1238_102718" cx="0" cy="0" r="1" gradientUnits="userSpaceOnUse" gradientTransform="translate(41.0099 19.0099) scale(13.29 13.29)">
<stop stop-color="#F33218"/>
<stop offset="1"/>
</radialGradient>
<radialGradient id="paint60_radial_1238_102718" cx="0" cy="0" r="1" gradientUnits="userSpaceOnUse" gradientTransform="translate(50.1097 7.06008) scale(20.65 20.65)">
<stop stop-color="#9C3329"/>
<stop offset="1" stop-color="#430C3D"/>
</radialGradient>
<radialGradient id="paint61_radial_1238_102718" cx="0" cy="0" r="1" gradientUnits="userSpaceOnUse" gradientTransform="translate(45.8301 11.7402) scale(16.4201 16.42)">
<stop stop-color="#B02E34"/>
<stop offset="1" stop-color="#380F21"/>
</radialGradient>
<radialGradient id="paint62_radial_1238_102718" cx="0" cy="0" r="1" gradientUnits="userSpaceOnUse" gradientTransform="translate(58.0304 25.4797) scale(3.07 3.07001)">
<stop stop-color="#9C3329"/>
<stop offset="1" stop-color="#480A36"/>
</radialGradient>
<radialGradient id="paint63_radial_1238_102718" cx="0" cy="0" r="1" gradientUnits="userSpaceOnUse" gradientTransform="translate(40.1104 22.0703) scale(3.99001 3.98999)">
<stop stop-color="#9C3329"/>
<stop offset="1" stop-color="#480A36"/>
</radialGradient>
<radialGradient id="paint64_radial_1238_102718" cx="0" cy="0" r="1" gradientUnits="userSpaceOnUse" gradientTransform="translate(43.1202 -3.13961) scale(25.15 25.15)">
<stop stop-color="#6B1E3B"/>
<stop offset="1" stop-color="#C44A3C"/>
</radialGradient>
<radialGradient id="paint65_radial_1238_102718" cx="0" cy="0" r="1" gradientUnits="userSpaceOnUse" gradientTransform="translate(44.5104 61.5299) scale(20.68 20.68)">
<stop stop-color="#92334B"/>
<stop offset="1" stop-color="#571133"/>
</radialGradient>
<radialGradient id="paint66_radial_1238_102718" cx="0" cy="0" r="1" gradientUnits="userSpaceOnUse" gradientTransform="translate(53.1398 57.8296) scale(24.15 24.15)">
<stop stop-color="#6B1E3B"/>
<stop offset="1" stop-color="#C44A3C"/>
</radialGradient>
<radialGradient id="paint67_radial_1238_102718" cx="0" cy="0" r="1" gradientUnits="userSpaceOnUse" gradientTransform="translate(49.5799 67.4705) scale(39.03 39.03)">
<stop stop-color="#6B1E3B"/>
<stop offset="1" stop-color="#C44A3C"/>
</radialGradient>
<radialGradient id="paint68_radial_1238_102718" cx="0" cy="0" r="1" gradientUnits="userSpaceOnUse" gradientTransform="translate(65.4999 49.4298) scale(44.7701 44.77)">
<stop stop-color="#6B1E3B"/>
<stop offset="1" stop-color="#C44A3C"/>
</radialGradient>
<radialGradient id="paint69_radial_1238_102718" cx="0" cy="0" r="1" gradientUnits="userSpaceOnUse" gradientTransform="translate(28.2698 60.5098) scale(10.7002 10.7)">
<stop stop-color="#8A2920"/>
<stop offset="1" stop-color="#4A0B25"/>
</radialGradient>
<radialGradient id="paint70_radial_1238_102718" cx="0" cy="0" r="1" gradientUnits="userSpaceOnUse" gradientTransform="translate(34.9097 48.0599) scale(45.89)">
<stop stop-color="#8A2C2C"/>
<stop offset="1" stop-color="#4D0D35"/>
</radialGradient>
<radialGradient id="paint71_radial_1238_102718" cx="0" cy="0" r="1" gradientUnits="userSpaceOnUse" gradientTransform="translate(39.7296 38.7097) scale(35.51 35.51)">
<stop stop-color="#73251E"/>
<stop offset="1" stop-color="#4A1234"/>
</radialGradient>
<radialGradient id="paint72_radial_1238_102718" cx="0" cy="0" r="1" gradientUnits="userSpaceOnUse" gradientTransform="translate(17.37 60.4702) scale(7.44988 7.45)">
<stop stop-color="#9C3329"/>
<stop offset="1" stop-color="#4F0C35"/>
</radialGradient>
<radialGradient id="paint73_radial_1238_102718" cx="0" cy="0" r="1" gradientUnits="userSpaceOnUse" gradientTransform="translate(27.5103 55.5101) scale(7.29997 7.29999)">
<stop stop-color="#6B1E3B"/>
<stop offset="1" stop-color="#C44A3C"/>
</radialGradient>
<radialGradient id="paint74_radial_1238_102718" cx="0" cy="0" r="1" gradientUnits="userSpaceOnUse" gradientTransform="translate(27.7601 55.4699) scale(16.6101 16.61)">
<stop stop-color="#5C1435"/>
<stop offset="1" stop-color="#9E3540"/>
</radialGradient>
<radialGradient id="paint75_radial_1238_102718" cx="0" cy="0" r="1" gradientUnits="userSpaceOnUse" gradientTransform="translate(47.4798 71.77) scale(37.59 37.59)">
<stop stop-color="#6B1E3B"/>
<stop offset="1" stop-color="#C44A3C"/>
</radialGradient>
<radialGradient id="paint76_radial_1238_102718" cx="0" cy="0" r="1" gradientUnits="userSpaceOnUse" gradientTransform="translate(18.6796 27.9599) scale(56.53 56.53)">
<stop stop-color="#993329"/>
<stop offset="1" stop-color="#591233"/>
</radialGradient>
<radialGradient id="paint77_radial_1238_102718" cx="0" cy="0" r="1" gradientUnits="userSpaceOnUse" gradientTransform="translate(63.5801 64.56) scale(20.05 20.05)">
<stop stop-color="#782626"/>
<stop offset="1" stop-color="#3B0A28"/>
</radialGradient>
<radialGradient id="paint78_radial_1238_102718" cx="0" cy="0" r="1" gradientUnits="userSpaceOnUse" gradientTransform="translate(61.8801 54.64) scale(17.13 17.13)">
<stop stop-color="#96372D"/>
<stop offset="1" stop-color="#572121"/>
</radialGradient>
<radialGradient id="paint79_radial_1238_102718" cx="0" cy="0" r="1" gradientUnits="userSpaceOnUse" gradientTransform="translate(63.88 52.4797) scale(16.9601 16.96)">
<stop stop-color="#8F2F26"/>
<stop offset="1" stop-color="#3D0D27"/>
</radialGradient>
<radialGradient id="paint80_radial_1238_102718" cx="0" cy="0" r="1" gradientUnits="userSpaceOnUse" gradientTransform="translate(63.6999 47.6805) scale(13.28 13.28)">
<stop stop-color="#9C3329"/>
<stop offset="1" stop-color="#430C3D"/>
</radialGradient>
<radialGradient id="paint81_radial_1238_102718" cx="0" cy="0" r="1" gradientUnits="userSpaceOnUse" gradientTransform="translate(70.9203 52.9099) scale(10.5301 10.53)">
<stop stop-color="#6B1E3B"/>
<stop offset="1" stop-color="#C44A3C"/>
</radialGradient>
<radialGradient id="paint82_radial_1238_102718" cx="0" cy="0" r="1" gradientUnits="userSpaceOnUse" gradientTransform="translate(68.9598 49.4201) scale(7.96)">
<stop stop-color="#9C3329"/>
<stop offset="1" stop-color="#480A36"/>
</radialGradient>
<radialGradient id="paint83_radial_1238_102718" cx="0" cy="0" r="1" gradientUnits="userSpaceOnUse" gradientTransform="translate(67.6201 46.6602) scale(7.35007 7.35)">
<stop stop-color="#9C3329"/>
<stop offset="1" stop-color="#430C3D"/>
</radialGradient>
<radialGradient id="paint84_radial_1238_102718" cx="0" cy="0" r="1" gradientUnits="userSpaceOnUse" gradientTransform="translate(69.0504 44.6102) scale(7.58997 7.59)">
<stop stop-color="#9C3329"/>
<stop offset="1" stop-color="#430C3D"/>
</radialGradient>
<radialGradient id="paint85_radial_1238_102718" cx="0" cy="0" r="1" gradientUnits="userSpaceOnUse" gradientTransform="translate(67.2902 47.0002) scale(4.62001 4.62001)">
<stop stop-color="#9C3329"/>
<stop offset="1" stop-color="#480A36"/>
</radialGradient>
<radialGradient id="paint86_radial_1238_102718" cx="0" cy="0" r="1" gradientUnits="userSpaceOnUse" gradientTransform="translate(56.1401 51.7297) scale(11.81 11.81)">
<stop stop-color="#96372D"/>
<stop offset="1" stop-color="#380F21"/>
</radialGradient>
<radialGradient id="paint87_radial_1238_102718" cx="0" cy="0" r="1" gradientUnits="userSpaceOnUse" gradientTransform="translate(57.3599 42.3604) scale(8.24002 8.23999)">
<stop stop-color="#73251E"/>
<stop offset="1" stop-color="#4A1234"/>
</radialGradient>
<radialGradient id="paint88_radial_1238_102718" cx="0" cy="0" r="1" gradientUnits="userSpaceOnUse" gradientTransform="translate(28.94 24.4804) scale(57.01 57.01)">
<stop offset="0.57" stop-color="white"/>
<stop offset="0.69" stop-color="#D8C3CD"/>
<stop offset="0.96" stop-color="#782D52"/>
<stop offset="1" stop-color="#69163F"/>
</radialGradient>
<radialGradient id="paint89_radial_1238_102718" cx="0" cy="0" r="1" gradientUnits="userSpaceOnUse" gradientTransform="translate(46.63 48.8504) scale(50.8 50.8)">
<stop/>
<stop offset="0.22" stop-color="#030001"/>
<stop offset="0.38" stop-color="#0C0205"/>
<stop offset="0.52" stop-color="#1C040C"/>
<stop offset="0.65" stop-color="#330716"/>
<stop offset="0.77" stop-color="#500A22"/>
<stop offset="0.89" stop-color="#740F31"/>
<stop offset="1" stop-color="#9C1442"/>
</radialGradient>
<radialGradient id="paint90_radial_1238_102718" cx="0" cy="0" r="1" gradientUnits="userSpaceOnUse" gradientTransform="translate(51.77 54.2404) scale(50.8 50.8)">
<stop offset="0.04"/>
<stop offset="0.78"/>
<stop offset="0.8" stop-color="#070202"/>
<stop offset="0.83" stop-color="#1A0606"/>
<stop offset="0.86" stop-color="#390E0E"/>
<stop offset="0.9" stop-color="#641919"/>
<stop offset="0.94" stop-color="#9B2727"/>
<stop offset="0.98" stop-color="#DE3838"/>
<stop offset="1" stop-color="#F93F3F"/>
</radialGradient>
<radialGradient id="paint91_radial_1238_102718" cx="0" cy="0" r="1" gradientUnits="userSpaceOnUse" gradientTransform="translate(27.4297 20.1097) rotate(16.92) scale(37.68 37.68)">
<stop stop-color="#D41F3B"/>
<stop offset="1"/>
</radialGradient>
<radialGradient id="paint92_radial_1238_102718" cx="0" cy="0" r="1" gradientUnits="userSpaceOnUse" gradientTransform="translate(20.0802 23.1996) scale(9.16998 9.17)">
<stop stop-color="#D95234"/>
<stop offset="1"/>
</radialGradient>
<radialGradient id="paint93_radial_1238_102718" cx="0" cy="0" r="1" gradientUnits="userSpaceOnUse" gradientTransform="translate(24.1104 23.2396) scale(6.79998 6.8)">
<stop stop-color="#D95234"/>
<stop offset="1"/>
</radialGradient>
<radialGradient id="paint94_radial_1238_102718" cx="0" cy="0" r="1" gradientUnits="userSpaceOnUse" gradientTransform="translate(40.2903 13.8) scale(7.92007 7.92)">
<stop stop-color="#D95234"/>
<stop offset="1"/>
</radialGradient>
<radialGradient id="paint95_radial_1238_102718" cx="0" cy="0" r="1" gradientUnits="userSpaceOnUse" gradientTransform="translate(32.53 29.8197) scale(11.68 11.68)">
<stop stop-color="#D95234"/>
<stop offset="1"/>
</radialGradient>
<radialGradient id="paint96_radial_1238_102718" cx="0" cy="0" r="1" gradientUnits="userSpaceOnUse" gradientTransform="translate(17.8696 22.84) scale(13.3 13.3)">
<stop stop-color="#F33218"/>
<stop offset="1"/>
</radialGradient>
<radialGradient id="paint97_radial_1238_102718" cx="0" cy="0" r="1" gradientUnits="userSpaceOnUse" gradientTransform="translate(25.84 23.1303) scale(11.62 11.62)">
<stop stop-color="#F33218"/>
<stop offset="1"/>
</radialGradient>
<radialGradient id="paint98_radial_1238_102718" cx="0" cy="0" r="1" gradientUnits="userSpaceOnUse" gradientTransform="translate(20.2396 25.5004) scale(9.28999 9.29)">
<stop stop-color="#F33218"/>
<stop offset="1"/>
</radialGradient>
<radialGradient id="paint99_radial_1238_102718" cx="0" cy="0" r="1" gradientUnits="userSpaceOnUse" gradientTransform="translate(35.8897 27.2905) scale(13.46 13.46)">
<stop stop-color="#F33218"/>
<stop offset="0.18" stop-color="#B82612"/>
<stop offset="0.4" stop-color="#77190C"/>
<stop offset="0.6" stop-color="#440E07"/>
<stop offset="0.77" stop-color="#1F0603"/>
<stop offset="0.91" stop-color="#080201"/>
<stop offset="1"/>
</radialGradient>
</defs>
</svg>
