<svg width="179" height="183" viewBox="0 0 179 183" fill="none" xmlns="http://www.w3.org/2000/svg">
<path style="mix-blend-mode:screen" d="M89.5001 178C138.93 178 179 137.93 179 88.5C179 39.0705 138.93 -1 89.5001 -1C40.0706 -1 0 39.0705 0 88.5C0 137.93 40.0706 178 89.5001 178Z" fill="url(#paint0_radial_1_6)"/>
<path fill-rule="evenodd" clip-rule="evenodd" d="M96.1107 25.3613C111.117 25.3613 125.786 29.8111 138.263 38.148C150.74 46.4848 160.464 58.3343 166.207 72.198C171.949 86.0617 173.452 101.317 170.524 116.035C167.597 130.752 160.371 144.271 149.76 154.882C139.149 165.493 125.63 172.719 110.913 175.646C96.1949 178.574 80.9396 177.071 67.0759 171.329C53.2122 165.586 41.3628 155.862 33.026 143.385C24.6891 130.908 20.2393 116.239 20.2393 101.233C20.2393 81.1104 28.2329 61.8122 42.4616 47.5836C56.6902 33.3549 75.9883 25.3613 96.1107 25.3613Z" fill="url(#paint1_radial_1_6)"/>
<g style="mix-blend-mode:multiply">
<path fill-rule="evenodd" clip-rule="evenodd" d="M153.597 96.2369C153.597 97.2364 155.182 98.3579 156.425 96.3831C156.957 95.4472 157.263 94.3997 157.319 93.3244C157.374 92.2491 157.176 91.1759 156.742 90.1905C156.254 89.3129 153.305 86.4116 152.281 87.7525C152.07 88.1985 151.961 88.6856 151.961 89.1788C151.961 89.672 152.07 90.159 152.281 90.605C153.196 92.3381 153.649 94.2777 153.597 96.2369ZM74.1174 158.602C76.475 158.984 78.8787 158.984 81.2364 158.602C81.3197 158.424 81.3501 158.226 81.3242 158.032C81.2982 157.837 81.217 157.654 81.0901 157.505C79.4467 156.202 77.4091 155.497 75.312 155.505C74.4343 155.774 72.362 158.041 74.1174 158.602ZM96.7178 160.308C99.9116 159.016 103.739 155.652 99.1558 153.457C96.9616 152.409 79.6516 150.288 82.4066 156.334C83.4549 158.699 91.6711 162.307 96.7178 160.308ZM96.1083 25.3634C89.2369 25.3531 82.3962 26.28 75.7752 28.1183C78.2133 28.1183 80.6513 28.1183 83.0893 28.1183C85.0154 28.1183 86.9414 27.8502 88.8674 27.9964C91.5493 28.1915 94.1336 28.9716 96.8154 29.1179C99.4973 29.2642 102.691 28.6303 105.617 28.8741C107.866 29.0467 110.077 29.5563 112.175 30.3857C114.491 31.3122 116.442 33.0188 118.733 34.0427C122.171 35.5787 125.901 36.4808 129.29 38.0655C130.891 39.0237 132.409 40.1167 133.825 41.3325C136.408 42.7259 138.801 44.4467 140.944 46.4523C142.211 48.0126 141.748 50.4751 142.699 52.2548C144.844 56.1557 147.819 59.5689 150.013 63.3235C151.656 65.6508 152.968 68.1942 153.914 70.8814C155.06 75.0504 154.621 79.512 155.547 83.7298C156.157 86.4116 157.985 88.6058 158.449 91.4096C158.774 94.8269 158.56 98.274 157.815 101.625C156.766 107.379 154.84 112.937 153.402 118.691C153.106 120.918 152.608 123.113 151.915 125.249C150.93 126.822 149.742 128.256 148.38 129.516C145.787 132.164 143.383 134.991 141.187 137.976C139.676 140.414 139.676 143.559 138.042 145.899C136.415 148.217 134.258 150.114 131.752 151.434C129.534 152.58 126.876 152.092 124.438 152.945C121.593 154.183 118.818 155.575 116.125 157.114C112.191 159.381 108.119 161.4 103.934 163.161C101.498 163.952 98.929 164.25 96.3764 164.038C92.0368 163.746 87.8678 162.234 83.5281 161.771C79.1884 161.308 75.1412 161.43 70.9478 161.259C68.301 161.57 65.6228 161.488 63 161.015C59.0105 159.737 55.3547 157.589 52.297 154.725C50.3466 152.75 50.7853 149.264 49.1518 147.021C46.9904 144.724 44.6329 142.619 42.1061 140.731C38.452 137.772 35.1181 134.438 32.1589 130.784C30.306 128.078 30.306 124.469 29.0139 121.47C27.7217 118.472 25.3812 116.277 24.601 113.279C23.2295 108.238 22.6375 103.017 22.8456 97.7972C23.0894 92.7261 25.6981 88.0451 26.1126 82.9252C26.3235 79.3715 26.2174 75.806 25.7956 72.271C19.5608 87.3129 18.3287 103.961 22.2816 119.757C26.2345 135.553 35.1626 149.658 47.7473 159.991C60.332 170.323 75.906 176.334 92.1691 177.136C108.432 177.938 124.522 173.488 138.062 164.444C151.602 155.4 161.875 142.241 167.363 126.911C172.85 111.581 173.262 94.8922 168.538 79.3099C163.813 63.7276 154.202 50.0779 141.124 40.3769C128.047 30.6758 112.196 25.4378 95.9134 25.4365L96.1083 25.3634Z" fill="url(#paint2_radial_1_6)"/>
</g>
<path fill-rule="evenodd" clip-rule="evenodd" d="M138.971 61.7814C144.627 58.9777 149.576 55.4181 151.161 50.347C153.745 42.4966 149.649 43.423 147.918 40.1561C146.187 36.8891 147.309 35.5238 141.897 31.623C141.157 31.1083 140.383 30.644 139.58 30.2333C130.679 25.8621 120.899 23.5775 110.982 23.5531C104.251 23.7415 97.5727 24.7986 91.1124 26.6982C107.35 27.2833 120.978 29.1362 129.56 33.4515C133.104 35.0601 135.951 37.8898 137.581 41.4238C139.068 44.642 145.066 45.6904 142.945 50.5665C140.97 55.0524 132.583 59.3921 124.538 62.6103C120.742 64.5356 116.775 66.1027 112.689 67.2913C100.182 69.7294 86.4559 69.9732 73.193 71.8017C63.5872 73.0938 55.2246 77.4823 46.7403 82.0414C42.2299 84.4794 36.9883 84.0893 31.7465 88.6728C27.0167 92.7931 25.5294 98.8638 23.5546 104.398C19.6538 115.296 20.3852 127.901 25.5538 140.969C26.5023 143.313 27.6018 145.593 28.8452 147.795C16.0944 118.539 22.5551 96.1576 45.9114 84.4063C50.4462 82.1145 56.3705 81.9683 62.173 80.4567C67.3173 79.1401 72.1933 75.2637 78.264 75.8244C88.0606 77.083 98.0165 75.807 107.179 72.1186C119.247 67.7789 130.389 66.1942 138.873 61.9764L138.971 61.7814Z" fill="url(#paint3_radial_1_6)"/>
<path fill-rule="evenodd" clip-rule="evenodd" d="M92.6899 52.0299C98.468 50.7865 105.026 46.5931 110.439 44.472C115.851 42.3509 121.215 41.5707 123.775 39.0595C123.862 38.9845 123.943 38.903 124.019 38.8157C124.894 37.9471 125.567 36.8956 125.988 35.7365C126.41 34.5774 126.57 33.3393 126.457 32.1112C126.468 31.9895 126.468 31.8671 126.457 31.7455C126.308 30.6376 125.925 29.5739 125.335 28.6248C124.536 27.1139 123.432 25.7856 122.093 24.7239L121.776 24.5045C113.706 18.897 100.077 19.1165 88.0332 18.897C79.5245 18.7508 69.8455 19.3359 62.5558 22.5541C55.266 25.7723 50.1707 32.8913 43.9293 37.743C42.3446 38.9864 40.5648 40.181 38.8338 41.2294C36.4453 42.4103 34.2033 43.8667 32.1536 45.5691C28.5131 50.0816 25.5181 55.0787 23.2547 60.4167C21.0504 64.8423 19.3572 69.5046 18.208 74.3134C20.963 67.2188 24.1813 67.8039 29.5937 65.0245C30.6026 64.5065 31.5796 63.9284 32.5194 63.2935C37.5694 59.5404 43.215 56.664 49.2198 54.7848C62.0195 51.4447 79.3295 54.9311 92.8118 52.0299H92.6899ZM107.318 71.9973C98.1554 75.6857 88.1996 76.9616 78.4029 75.7031C72.3322 75.1424 67.4563 79.0188 62.312 80.3354C56.5095 81.7982 50.5851 81.9932 46.0504 84.285C30.8371 91.9891 22.7915 104.155 22.5234 119.758C22.6445 129.448 24.8392 139 28.9598 147.771C29.9071 149.449 30.9407 151.076 32.0561 152.647C34.4942 156.207 38.6387 159.279 41.6862 162.814C44.1513 165.817 46.8061 168.659 49.6342 171.323C55.0954 176.199 63.4091 178.003 72.7711 179.295C81.4992 180.514 90.4224 183.366 99.5894 182.221C107.059 181.291 114.412 179.591 121.532 177.149C133.137 173.127 144.717 166.13 151.861 155.207C151.364 155.827 150.826 156.414 150.252 156.963C142.255 164.878 132.496 170.785 121.776 174.199C116.726 175.679 111.506 176.499 106.245 176.637C100.933 176.799 95.6324 176.057 90.5688 174.443C78.5981 170.421 67.4319 168.811 58.8745 161.327C49.1223 152.574 45.7091 135.532 48.6347 125.78C49.9756 121.392 54.2908 118.32 57.5334 114.614C64.4087 106.715 65.8959 96.3532 83.9617 96.8896C91.544 97.109 99.175 89.9656 107.903 88.6978C116.144 87.5275 123.555 87.2594 131.723 80.506C136.306 76.7271 140.695 75.9225 145.083 73.4114C151.203 69.9006 156.786 65.244 158.419 58.0518C159.01 55.1396 159.01 52.1383 158.419 49.2261C158.129 48.3339 157.779 47.4624 157.371 46.6174C154.055 39.669 147.375 34.2322 139.622 30.3802C140.424 30.7909 141.198 31.2552 141.938 31.7698C147.35 35.6707 146.083 36.7678 147.96 40.3029C149.642 43.448 153.47 42.741 151.495 49.5918L151.203 50.4939C149.545 55.565 144.596 59.1245 139.012 61.9282C130.528 66.146 119.386 67.7308 107.318 72.0704V71.9973ZM165.611 70.8027C177.972 78.1168 177.68 103.57 174.949 116.564C171.999 130.534 161.491 147.162 145.693 149.502C134.453 151.16 130.089 151.745 124.579 148.649C120.849 146.552 119.021 137.239 120.337 134.581C121.41 132.412 126.457 130.754 131.698 128.291C138.135 125.268 143.474 124.147 148.155 116.808C152.836 109.47 160.199 110.494 164.612 101.034C166.856 96.3369 168.103 91.226 168.275 86.023C168.447 80.8201 167.54 75.6379 165.611 70.8027Z" fill="url(#paint4_radial_1_6)"/>
<path fill-rule="evenodd" clip-rule="evenodd" d="M60.1176 152.45C56.7044 145.989 57.6797 137.578 58.2404 130.751C58.4859 126.447 59.7654 122.266 61.9705 118.561C67.8218 109.077 78.2809 102.348 90.3248 97.8624C104.587 92.5232 124.067 91.4748 134.819 86.8913C139.5 84.8921 142.669 80.1136 146.546 76.1152C149.959 72.5557 153.47 73.1164 156.639 65.6805C157.643 63.4169 158.411 61.0557 158.931 58.6346C159.633 55.3978 159.464 52.033 158.443 48.8824C159.034 51.7946 159.034 54.7959 158.443 57.7081C156.81 65.0222 151.129 69.5569 145.107 73.0677C140.719 75.5057 136.33 76.3834 131.747 80.1624C123.579 86.9157 116.168 87.1839 107.927 88.3541C99.1993 89.6219 91.5683 96.7653 83.986 96.5459C65.9202 96.0095 64.4817 106.298 57.5577 114.27C54.3151 117.976 49.9999 121.048 48.659 125.437C45.7334 135.189 49.0733 152.255 58.8986 160.983C67.3342 168.468 78.4028 170.077 90.593 174.1C95.6565 175.713 100.958 176.455 106.27 176.294C111.53 176.155 116.75 175.335 121.8 173.856C132.419 170.481 142.097 164.66 150.057 156.863C151.866 155.129 153.295 153.036 154.25 150.719C154.469 150.256 154.664 149.768 154.859 149.28C147.764 157.726 138.238 163.779 127.578 166.615C123.043 167.907 118.07 167.98 113.413 169.467C96.3468 174.88 90.5443 172.807 81.7186 169.882C76.453 168.099 71.5723 165.336 67.3342 161.739C64.3566 159.137 61.8781 156.014 60.0201 152.523L60.1176 152.45Z" fill="url(#paint5_radial_1_6)"/>
<path fill-rule="evenodd" clip-rule="evenodd" d="M110.447 44.3474C105.035 46.4685 98.4766 50.6619 92.6984 51.9053C79.2161 54.8065 61.9061 51.3202 49.1065 54.6603C43.1017 56.5395 37.4559 59.4159 32.4059 63.169C25.0918 68.045 21.3129 65.8996 18.0947 74.1889C16.1222 82.5991 15.6928 91.2976 16.827 99.8613C17.5828 106.078 18.8993 111.027 21.2154 113.368C19.4357 96.8138 20.8497 83.8435 27.3836 74.774C29.5062 71.8396 32.2867 69.4431 35.5022 67.7768C39.6476 66.1912 43.9331 64.9995 48.3019 64.2173C52.9098 62.9739 57.4933 59.3413 63.4177 57.9272C70.7318 56.2694 78.4847 56.6838 86.2864 56.5619C93.6152 56.7822 100.95 56.448 108.229 55.5623C115.153 54.3189 117.786 51.3933 122.515 46.2247C125.977 42.4457 133.194 41.6656 127.148 31.9622C126.441 30.8407 125.831 29.6461 125.124 28.4758C126.096 30.067 126.506 31.9379 126.289 33.7896C126.073 35.6414 125.242 37.3671 123.93 38.6912C123.855 38.7784 123.773 38.8599 123.686 38.935C121.126 41.373 115.616 42.2507 110.35 44.3474H110.447Z" fill="url(#paint6_radial_1_6)"/>
<path style="mix-blend-mode:screen" opacity="0.5" fill-rule="evenodd" clip-rule="evenodd" d="M54.5873 41.3917C48.3947 46.0971 44.8352 46.7554 40.276 54.167C39.1993 56.0199 38.2463 57.942 37.4234 59.9207C41.0434 57.6142 44.9765 55.8407 49.1017 54.6546C61.9013 51.3145 79.2114 54.8009 92.6937 51.8996C98.4718 50.6562 105.03 46.4628 110.442 44.3417C113.758 43.0252 117.147 42.2206 119.878 41.1723C119.267 39.8078 118.444 38.5488 117.44 37.4421C109.857 29.6648 105.518 29.4697 96.3749 29.5429C93.108 29.5429 89.841 29.0553 86.6228 29.0309C83.9841 28.8959 81.3386 29.0184 78.7236 29.3966C74.9192 30.0812 71.1884 31.1261 67.5818 32.5173C60.8773 35.2479 59.5852 37.3933 54.5873 41.3186V41.3917ZM78.358 75.5241C72.2873 74.9634 67.4112 78.8398 62.267 80.1564C56.4645 81.6192 50.5401 81.8142 46.0054 84.106C40.9391 86.5902 36.3569 89.9588 32.4743 94.0531C31.3487 95.2323 30.5993 96.7197 30.3214 98.326C30.0436 99.9324 30.2498 101.585 30.914 103.074C31.2553 103.854 31.621 104.659 31.9867 105.512C35.9363 114.654 34.4247 115.069 43.1041 121.7C44.8645 122.969 46.7927 123.986 48.8334 124.724C50.3937 120.75 54.4166 117.824 57.4641 114.338C64.3394 106.438 65.8265 96.0767 83.8923 96.6131C91.4745 96.8325 99.1056 89.689 107.834 88.4213C112.649 87.9912 117.411 87.0847 122.047 85.7151C123.092 85.3732 124.032 84.7707 124.778 83.9644C125.525 83.1581 126.053 82.1747 126.314 81.1072C126.617 79.8837 126.992 78.6788 127.436 77.4989C128.955 73.5409 129.852 69.371 130.093 65.1381C123.291 67.2348 115.465 68.8927 107.273 71.8671C98.1104 75.5555 88.1547 76.8314 78.358 75.5729V75.5241Z" fill="url(#paint7_radial_1_6)"/>
<path style="mix-blend-mode:screen" fill-rule="evenodd" clip-rule="evenodd" d="M120.441 93.4763C118.591 93.3179 116.732 93.3179 114.882 93.4763C111.81 93.8908 108.884 95.0611 105.861 95.6949C103.584 95.9306 101.328 96.3299 99.108 96.8896C98.1328 97.2065 97.2307 98.5231 96.2798 98.8888C94.2807 99.6202 92.0376 99.4007 90.0141 99.9859C83.5495 102.043 77.4519 105.113 71.9484 109.08C70.8512 109.884 70.6561 111.518 69.7297 112.517C68.8032 113.517 67.2917 114.151 66.2921 115.224C64.3905 117.296 60.3189 123.976 61.4161 126.902C61.6393 127.651 62.0505 128.331 62.6107 128.877C68.66 130.201 74.9669 129.692 80.7252 127.414C95.3534 122.123 94.0125 117.857 103.35 109.592C106.251 107.154 110.152 105.788 113.102 103.204C116.38 100.677 118.908 97.3058 120.416 93.452L120.441 93.4763ZM42.1312 66.8287C40.3224 67.0036 38.5689 67.5482 36.9794 68.429C35.3899 69.3097 33.9984 70.5077 32.8911 71.9485C31.4554 74.862 30.1936 77.8579 29.1122 80.9205C27.5882 84.7444 26.9144 88.854 27.1374 92.9644C28.0782 91.1991 29.1456 89.5043 30.3312 87.8933C31.4231 86.5742 32.7549 85.4739 34.2564 84.6507C36.9382 83.261 41.3511 83.1635 45.0082 81.1399C47.6169 79.7015 49.6648 77.3122 52.3223 76.0932C54.7667 75.4156 57.2499 74.8864 59.7582 74.5085C61.6111 73.9477 63.2202 72.8262 65.0487 72.2411C69.8234 70.819 74.7209 69.8476 79.6769 69.3399C81.3103 69.0473 82.7244 67.9502 84.3578 67.7551C87.1372 67.3894 89.9653 67.7551 92.7691 67.7551C96.4017 67.5357 100.083 66.8775 103.643 66.658C106.081 66.4874 108.787 66.9018 111.322 66.658C116.198 66.0485 124.293 63.6349 125.171 58.2225C124.636 56.3682 123.866 54.5902 122.879 52.9319C122.45 52.2715 121.914 51.6866 121.294 51.2009C119.88 50.7621 119.782 50.8352 118.027 52.4199C113.468 56.4671 113.761 57.491 107.153 58.6857C105.374 59.0026 103.521 58.515 101.741 58.6857C99.6159 59.4446 97.4409 60.0555 95.2315 60.5142C91.8833 60.2809 88.5579 59.7919 85.2843 59.0514C78.7991 58.1737 67.2673 57.4423 61.1966 59.9047C57.5639 61.3675 54.4676 63.9274 51.0056 65.6828C49.9818 66.2097 48.878 66.5639 47.7388 66.7312C45.8371 66.975 43.911 66.5849 42.0337 66.7312L42.1312 66.8287ZM116.564 107.909C117.686 111.493 123.561 105.642 124.902 105.471C138.799 104.277 112.42 94.7929 116.564 107.909ZM114.321 109.153C111.615 107.032 105.471 109.689 103.886 112.737C102.57 115.175 99.7662 121.319 103.886 122.903C108.007 124.488 111.201 116.077 115.394 114.833C117.613 114.175 115.589 110.177 114.297 109.153H114.321ZM69.9248 138.555C78.0434 139.726 95.9629 140.628 89.2827 132.851C85.26 128.169 83.7728 130.949 76.8488 132.655C72.1434 133.801 70.7538 131.997 67.8769 132.168C63.8298 132.436 62.5619 137.507 69.9248 138.555ZM92.4277 134.923C93.0616 136.215 95.6216 133.362 95.8166 132.485C96.6699 129.145 95.0364 130.047 92.3058 130.388C88.5269 130.973 91.5013 133.07 92.4277 134.898V134.923Z" fill="url(#paint8_radial_1_6)"/>
<path style="mix-blend-mode:multiply" fill-rule="evenodd" clip-rule="evenodd" d="M58.8113 161.13C55.8454 158.368 53.4442 155.056 51.741 151.378C50.7833 150.158 50.1765 148.7 49.9856 147.16C49.7175 146.405 49.4737 145.624 49.2543 144.722C49.0836 144.405 48.9129 144.113 48.7178 143.82C45.0364 138.798 36.5277 134.336 32.1149 127.973C30.3351 125.316 30.3107 121.805 29.0429 118.879C28.6405 117.925 27.8913 117.158 26.9462 116.734C23.7037 114.978 23.5575 111.858 24.1426 108.371C23.0921 111.969 22.5342 115.692 22.4846 119.44C22.6057 129.13 24.8004 138.682 28.921 147.453C29.8684 149.131 30.9019 150.758 32.0174 152.329C34.4554 155.889 38.6001 158.96 41.6476 162.496C44.1127 165.498 46.7675 168.341 49.5956 171.004C55.0568 175.88 63.3705 177.684 72.7325 178.977C81.4606 180.196 90.3838 183.048 99.5508 181.902C107.02 180.972 114.373 179.273 121.493 176.831C133.098 172.808 144.679 165.811 151.822 154.889C151.325 155.509 150.787 156.095 150.213 156.644C142.216 164.56 132.458 170.467 121.737 173.881C116.687 175.361 111.467 176.18 106.207 176.319C100.895 176.481 95.5936 175.739 90.5301 174.125C78.5593 170.102 67.3932 168.493 58.8357 161.008L58.8113 161.13ZM26.9707 55.6856C27.507 54.0033 27.6532 52.3211 28.2871 50.5413C26.4077 53.7024 24.6908 56.9574 23.1429 60.2934C20.9386 64.7191 19.2454 69.3814 18.0962 74.1902C18.5863 72.4221 19.513 70.8056 20.7911 69.4893C22.0691 68.1729 23.6575 67.1989 25.4103 66.6567V66.2422C25.1465 64.4096 25.0893 62.5532 25.2396 60.7079C25.6336 58.9855 26.1886 57.304 26.8974 55.6856H26.9707ZM43.5492 39.6921C45.5206 39.5413 47.4427 39.0028 49.2055 38.1074C52.8137 35.1817 50.205 32.3049 58.2993 28.7697C63.9555 26.3317 67.8076 26.478 73.9027 26.9168C77.5841 27.185 82.6309 25.771 87.19 25.8685H88.0432C89.311 25.8685 90.4812 26.2098 91.8221 26.4292L93.2851 26.6974C94.114 26.8193 94.9429 26.9412 95.7231 26.99C96.5032 27.0387 97.8684 26.99 98.8193 26.99C102.824 26.3864 106.917 26.8058 110.717 28.209C112.984 29.111 115.008 31.8904 117.227 32.89C120.079 34.1821 122.541 35.5962 125.248 36.9859C126.138 35.4622 126.522 33.6951 126.345 31.9392C126.357 31.8176 126.357 31.6951 126.345 31.5735C126.196 30.4656 125.814 29.4019 125.223 28.4528C124.424 26.9419 123.32 25.6136 121.981 24.5519L121.664 24.3325C113.594 18.725 99.9652 18.9445 87.9214 18.725C79.4126 18.5788 69.7336 19.1639 62.4439 22.3821C55.1542 25.6003 50.0587 32.7193 43.8174 37.571C42.257 38.79 40.5504 39.8628 38.9413 40.9599L43.6224 39.6433L43.5492 39.6921ZM151.237 50.2975C149.927 53.6909 147.559 56.572 144.484 58.5137C149.018 59.05 154.87 63.5116 150.798 69.3141C154.54 66.4587 157.204 62.4195 158.356 57.8554C158.947 54.9432 158.947 51.9419 158.356 49.0297C158.066 48.1376 157.716 47.266 157.308 46.4211C153.992 39.4727 147.312 34.0359 139.559 30.1838C140.361 30.5945 141.135 31.0588 141.875 31.5735C147.287 35.4743 146.02 36.5714 147.897 40.1066C149.579 43.2516 153.407 42.5446 151.432 49.3954L151.139 50.2975H151.237ZM150.067 128.314C147.629 131.069 140.315 132.142 138.535 135.19C137.048 137.628 137.048 140.651 135.463 142.943C133.865 145.195 131.761 147.041 129.319 148.331C128.205 148.834 127.005 149.124 125.784 149.184C128.066 150.27 130.571 150.805 133.098 150.744C137.317 150.589 141.521 150.141 145.678 149.403C150.757 148.586 155.519 146.403 159.453 143.089C167.367 136.13 172.801 126.785 174.935 116.466C177.543 104.105 177.909 80.4072 167.304 71.8741C169.95 74.6833 171.755 78.1787 172.513 81.9627C173.272 85.7468 172.954 89.6678 171.595 93.2799C171.595 93.5238 171.375 93.7676 171.253 94.0114C169.376 97.961 165.134 103.154 162.501 108.274C159.868 113.394 160.477 114.369 155.187 118.026L153.529 119.123C151.968 120.123 150.457 121.025 149.408 121.561C152.944 123.999 151.7 126.437 150.042 128.363L150.067 128.314Z" fill="url(#paint9_radial_1_6)"/>
<path fill-rule="evenodd" clip-rule="evenodd" d="M167.277 71.8446C166.74 71.4106 166.169 71.0193 165.571 70.6743C167.499 75.5096 168.406 80.6918 168.234 85.8947C168.062 91.0976 166.815 96.2086 164.571 100.906C162.771 104.746 159.778 107.902 156.038 109.902C152.887 111.487 150.168 113.813 148.114 116.68C143.433 123.994 138.094 125.14 131.658 128.163C126.416 130.601 121.369 132.283 120.297 134.453C119.224 136.623 120.101 142.279 122.174 145.912C121.811 144.878 121.661 143.781 121.732 142.688C121.803 141.595 122.095 140.527 122.588 139.549C124.441 136.087 131.804 130.504 135.071 128.187C139.679 124.896 144.043 124.165 148.821 121.8C149.797 121.312 151.649 120.239 153.551 119.02L155.209 117.923C160.451 114.339 159.719 113.608 162.523 108.171C165.327 102.734 169.398 97.8583 171.276 93.9087C171.398 93.6649 171.52 93.4211 171.617 93.1773C172.955 89.5706 173.258 85.6615 172.491 81.8918C171.724 78.122 169.918 74.6419 167.277 71.8446Z" fill="url(#paint10_radial_1_6)"/>
<path style="mix-blend-mode:screen" fill-rule="evenodd" clip-rule="evenodd" d="M92.6899 52.0299C98.468 50.7865 105.026 46.5931 110.439 44.472C115.851 42.3509 121.215 41.5707 123.775 39.0595C123.862 38.9845 123.943 38.903 124.018 38.8157C124.894 37.9471 125.567 36.8956 125.988 35.7365C126.41 34.5774 126.57 33.3393 126.457 32.1112C126.468 31.9895 126.468 31.8671 126.457 31.7455C126.308 30.6376 125.925 29.5739 125.335 28.6248C124.536 27.1139 123.432 25.7856 122.093 24.7239L121.776 24.5045C113.706 18.897 100.077 19.1165 88.0332 18.897C79.5245 18.7508 69.8455 19.3359 62.5557 22.5541C55.266 25.7723 50.1707 32.8913 43.9293 37.743C42.3446 38.9864 40.5648 40.181 38.8338 41.2294C36.4453 42.4103 34.2033 43.8667 32.1536 45.5691C28.5131 50.0816 25.5181 55.0787 23.2547 60.4167C21.0504 64.8423 19.3572 69.5046 18.208 74.3134C20.963 67.2188 24.1813 67.8039 29.5937 65.0245C30.6026 64.5065 31.5796 63.9284 32.5194 63.2935C37.5694 59.5404 43.215 56.664 49.2198 54.7848C62.0195 51.4447 79.3295 54.9311 92.8118 52.0299H92.6899Z" fill="url(#paint11_radial_1_6)"/>
<path style="mix-blend-mode:screen" fill-rule="evenodd" clip-rule="evenodd" d="M107.27 71.8732C98.1072 75.5616 88.1515 76.8376 78.3548 75.5791C72.2841 75.0183 67.408 78.8948 62.2637 80.2113C56.4612 81.6741 50.5369 81.8692 46.0021 84.1609C30.7888 91.8651 22.7433 104.031 22.4751 119.634C22.5962 129.324 24.7909 138.876 28.9115 147.647C29.8589 149.325 30.8924 150.952 32.0079 152.523C34.4459 156.083 38.5906 159.155 41.6381 162.69C44.1032 165.693 46.758 168.535 49.5861 171.199C55.0473 176.075 63.361 177.879 72.723 179.171C81.4511 180.39 90.3743 183.242 99.5413 182.097C107.011 181.167 114.364 179.467 121.484 177.025C133.089 173.003 144.669 166.006 151.813 155.083C151.316 155.703 150.778 156.289 150.203 156.839C142.207 164.754 132.448 170.661 121.727 174.075C116.677 175.555 111.457 176.375 106.197 176.513C100.885 176.675 95.5841 175.933 90.5206 174.319C78.5498 170.296 67.3837 168.687 58.8262 161.203C49.0741 152.45 45.6608 135.408 48.5864 125.656C49.9274 121.268 54.2427 118.196 57.4853 114.49C64.3605 106.591 65.8477 96.2291 83.9134 96.7655C91.4957 96.9849 99.1268 89.8415 107.855 88.5737C116.095 87.4035 123.507 87.1353 131.674 80.382C136.258 76.603 140.646 75.7985 145.035 73.2873C151.154 69.7765 156.737 65.1199 158.371 57.9277C158.962 55.0155 158.962 52.0143 158.371 49.1021C158.081 48.2099 157.73 47.3383 157.322 46.4934C154.007 39.545 147.327 34.1082 139.574 30.2561C140.376 30.6668 141.15 31.1311 141.89 31.6458C147.302 35.5466 146.034 36.6437 147.912 40.1789C149.594 43.3239 153.422 42.6169 151.447 49.4678L151.154 50.3698C149.496 55.4409 144.547 59.0005 138.964 61.8042C130.48 66.022 119.338 67.6067 107.27 71.9464V71.8732Z" fill="url(#paint12_linear_1_6)"/>
<defs>
<radialGradient id="paint0_radial_1_6" cx="0" cy="0" r="1" gradientUnits="userSpaceOnUse" gradientTransform="translate(89.5 88.5) scale(89.5 89.5)">
<stop stop-color="#00EBF3"/>
<stop offset="0.07" stop-color="#00D5DD"/>
<stop offset="0.33" stop-color="#008A8F"/>
<stop offset="0.56" stop-color="#004F52"/>
<stop offset="0.76" stop-color="#002425"/>
<stop offset="0.91" stop-color="#000A0A"/>
<stop offset="1"/>
</radialGradient>
<radialGradient id="paint1_radial_1_6" cx="0" cy="0" r="1" gradientUnits="userSpaceOnUse" gradientTransform="translate(81.0924 62.2731) scale(131.897)">
<stop stop-color="#B171FF"/>
<stop offset="0.14" stop-color="#AB65F4"/>
<stop offset="0.4" stop-color="#9A45D9"/>
<stop offset="0.5" stop-color="#9236CC"/>
<stop offset="0.92" stop-color="#660864"/>
</radialGradient>
<radialGradient id="paint2_radial_1_6" cx="0" cy="0" r="1" gradientUnits="userSpaceOnUse" gradientTransform="translate(83.8694 81.1942) scale(119.171 119.171)">
<stop offset="0.33" stop-color="#F5F5FF"/>
<stop offset="0.46" stop-color="#F0EAFA"/>
<stop offset="0.68" stop-color="#E1CCED"/>
<stop offset="0.98" stop-color="#CA9DD9"/>
<stop offset="1" stop-color="#C899D7"/>
</radialGradient>
<radialGradient id="paint3_radial_1_6" cx="0" cy="0" r="1" gradientUnits="userSpaceOnUse" gradientTransform="translate(58.6379 78.8963) scale(103.153 103.153)">
<stop stop-color="#21BCCF"/>
<stop offset="1" stop-color="#0096AD"/>
</radialGradient>
<radialGradient id="paint4_radial_1_6" cx="0" cy="0" r="1" gradientUnits="userSpaceOnUse" gradientTransform="translate(80.0121 62.1477) scale(129.557 129.557)">
<stop stop-color="#00ED92"/>
<stop offset="1" stop-color="#1B9AE9"/>
</radialGradient>
<radialGradient id="paint5_radial_1_6" cx="0" cy="0" r="1" gradientUnits="userSpaceOnUse" gradientTransform="translate(102.32 155.595) scale(121.731 121.731)">
<stop stop-color="#208ABF"/>
<stop offset="1" stop-color="#066BB8"/>
</radialGradient>
<radialGradient id="paint6_radial_1_6" cx="0" cy="0" r="1" gradientUnits="userSpaceOnUse" gradientTransform="translate(56.0792 62.1694) scale(99.6179 99.6178)">
<stop stop-color="#2276C9"/>
<stop offset="1" stop-color="#127E82"/>
</radialGradient>
<radialGradient id="paint7_radial_1_6" cx="0" cy="0" r="1" gradientUnits="userSpaceOnUse" gradientTransform="translate(75.7005 55.1909) scale(99.0814 99.0815)">
<stop stop-color="#A48A7B"/>
<stop offset="1" stop-color="#000A00"/>
</radialGradient>
<radialGradient id="paint8_radial_1_6" cx="0" cy="0" r="1" gradientUnits="userSpaceOnUse" gradientTransform="translate(72.5091 53.3464) scale(102.373 102.373)">
<stop stop-color="#C2F5F4"/>
<stop offset="1" stop-color="#000012"/>
</radialGradient>
<radialGradient id="paint9_radial_1_6" cx="0" cy="0" r="1" gradientUnits="userSpaceOnUse" gradientTransform="translate(94.4796 69.3873) scale(127.801 127.801)">
<stop offset="0.33" stop-color="#E6F5F5"/>
<stop offset="0.46" stop-color="#E5F1F0"/>
<stop offset="0.61" stop-color="#E1E6E2"/>
<stop offset="0.76" stop-color="#DAD4CB"/>
<stop offset="0.92" stop-color="#D1BAAB"/>
<stop offset="1" stop-color="#CCAC99"/>
</radialGradient>
<radialGradient id="paint10_radial_1_6" cx="0" cy="0" r="1" gradientUnits="userSpaceOnUse" gradientTransform="translate(125.392 123.872) scale(67.0457 67.0458)">
<stop stop-color="#005CD4"/>
<stop offset="1" stop-color="#00727D"/>
</radialGradient>
<radialGradient id="paint11_radial_1_6" cx="0" cy="0" r="1" gradientUnits="userSpaceOnUse" gradientTransform="translate(114.656 93.0619) scale(100.666 100.666)">
<stop offset="0.68"/>
<stop offset="0.72" stop-color="#040200"/>
<stop offset="0.76" stop-color="#100800"/>
<stop offset="0.8" stop-color="#241300"/>
<stop offset="0.84" stop-color="#402100"/>
<stop offset="0.88" stop-color="#643400"/>
<stop offset="0.92" stop-color="#904B00"/>
<stop offset="0.96" stop-color="#C36500"/>
<stop offset="1" stop-color="#F98100"/>
</radialGradient>
<linearGradient id="paint12_linear_1_6" x1="39.6388" y1="38.4479" x2="114.876" y2="120.853" gradientUnits="userSpaceOnUse">
<stop stop-color="#F98100"/>
<stop offset="0.08" stop-color="#F57F00"/>
<stop offset="0.17" stop-color="#E97900"/>
<stop offset="0.25" stop-color="#D56E00"/>
<stop offset="0.33" stop-color="#B96000"/>
<stop offset="0.41" stop-color="#954D00"/>
<stop offset="0.5" stop-color="#683600"/>
<stop offset="0.58" stop-color="#351B00"/>
<stop offset="0.65"/>
</linearGradient>
</defs>
</svg>
