<svg width="84" height="83" viewBox="0 0 84 83" fill="none" xmlns="http://www.w3.org/2000/svg">
<path style="mix-blend-mode:screen" d="M38.0239 76.0478C59.0239 76.0478 76.0478 59.0239 76.0478 38.0239C76.0478 17.0239 59.0239 0 38.0239 0C17.0239 0 0 17.0239 0 38.0239C0 59.0239 17.0239 76.0478 38.0239 76.0478Z" fill="url(#paint0_radial_641_22274)"/>
<path fill-rule="evenodd" clip-rule="evenodd" d="M10.0126 52.0469L60.7877 77.0553C49.9434 86.7968 33.4358 82.0524 23.9241 75.516C16.4227 70.3696 10.5296 63.3736 9.5646 55.4012C9.4183 54.2622 9.57686 53.1047 10.0241 52.0469H10.0126Z" fill="url(#paint1_radial_641_22274)"/>
<path style="mix-blend-mode:multiply" fill-rule="evenodd" clip-rule="evenodd" d="M9.60524 53.5632C10.2203 56.5465 11.6021 59.3179 13.6144 61.6045C17.6036 66.0146 22.0427 69.9956 26.8596 73.4827C33.0054 77.8594 39.2662 80.6854 46.8595 80.8003C50.9735 80.959 55.0721 80.2099 58.864 78.6061C59.5407 78.1364 60.1854 77.6222 60.7939 77.0668L10.0188 52.0469C9.83208 52.5386 9.68983 53.0461 9.59375 53.5632H9.60524Z" fill="url(#paint2_radial_641_22274)"/>
<path fill-rule="evenodd" clip-rule="evenodd" d="M8.8678 39.0694L71.8427 69.925C70.0621 74.2444 66.3516 76.921 60.0794 77.9663C57.0671 78.4362 54.0128 78.5787 50.9698 78.3914C45.2091 78.1622 39.5645 76.7011 34.4162 74.1065C27.2939 70.7751 25.0193 68.4776 19.1722 63.9515C12.2796 58.6442 3.08954 49.2933 8.83333 39.0234L8.8678 39.0694Z" fill="url(#paint3_radial_641_22274)"/>
<path style="mix-blend-mode:multiply" fill-rule="evenodd" clip-rule="evenodd" d="M8.48391 39.8246C11.0282 49.0363 16.5549 57.1445 24.1989 62.8802C28.3 65.821 33.1707 67.4752 37.6968 69.7727C40.7525 71.2891 43.7738 72.9088 46.9558 74.1495C56.7432 77.9633 63.1648 76.0909 71.3324 71.0708C71.53 70.6981 71.7064 70.3146 71.8609 69.922L8.863 39.0664C8.72515 39.3191 8.5873 39.5719 8.46094 39.8246H8.48391Z" fill="url(#paint4_radial_641_22274)"/>
<path fill-rule="evenodd" clip-rule="evenodd" d="M16.0133 26.605L80.3437 55.3239C81.0904 62.3658 77.2651 68.4313 70.0049 70.8896C63.8361 72.9804 55.3238 73.302 49.1894 71.0619C40.1947 67.765 30.4647 63.6639 23.1816 57.61C17.9662 53.2792 8.0639 43.262 8.12134 36.2775C8.12134 30.8899 10.729 27.8916 16.0248 26.582L16.0133 26.605Z" fill="url(#paint5_radial_641_22274)"/>
<path style="mix-blend-mode:multiply" fill-rule="evenodd" clip-rule="evenodd" d="M18.8855 39.8702C19.409 40.508 19.8669 41.1969 20.2525 41.9265C25.4104 51.1165 28.7188 56.3663 35.4276 60.5593C43.2391 65.4415 46.7084 65.5564 56.8864 63.9366C58.1612 63.6826 59.4691 63.6399 60.7577 63.8103C71.4871 65.6138 77.7593 66.9004 80.39 57.5151C80.4105 56.7901 80.3798 56.0646 80.2981 55.3439L15.9676 26.625C14.7275 26.9164 13.5332 27.3764 12.418 27.992C13.1991 33.575 17.9435 38.8593 18.8395 39.8932L18.8855 39.8702Z" fill="url(#paint6_radial_641_22274)"/>
<path fill-rule="evenodd" clip-rule="evenodd" d="M20.4256 33.3555L80.8962 36.9396C84.2161 42.3158 85.3418 47.9562 81.7577 53.7115C79.7819 56.882 75.5889 59.0876 71.9014 59.9147C65.3994 61.3622 61.9991 59.8458 55.8188 59.3748C48.237 58.789 47.4558 60.0986 39.5983 56.5489C34.0039 54.0101 28.6392 50.3686 25.1355 45.383C22.6925 41.7718 21.0801 37.6642 20.4141 33.3555H20.4256Z" fill="url(#paint7_radial_641_22274)"/>
<path style="mix-blend-mode:multiply" fill-rule="evenodd" clip-rule="evenodd" d="M21.6205 38.2032C28.513 46.0952 40.6095 52.1262 50.0752 53.4013C56.4623 54.2629 57.3469 53.1256 62.9183 51.8045C64.5121 51.3664 66.1424 51.0742 67.7891 50.9315C76.3933 50.5064 83.9521 51.3795 83.4237 42.4996C82.8438 40.5378 81.9932 38.6664 80.8964 36.9396L20.4258 33.3555C20.7042 34.9944 21.0879 36.6136 21.5745 38.2032H21.6205Z" fill="url(#paint8_radial_641_22274)"/>
<path fill-rule="evenodd" clip-rule="evenodd" d="M23.8049 19.3549C15.6602 17.5629 11.5132 22.5485 12.4092 26.9712C14.2587 36.2302 25.9416 41.6868 33.7531 44.6276C39.1553 46.5704 44.7841 47.8135 50.502 48.3266C55.0739 48.8389 59.6999 48.1294 63.908 46.2703L23.8049 19.3549Z" fill="url(#paint9_radial_641_22274)"/>
<path style="mix-blend-mode:multiply" fill-rule="evenodd" clip-rule="evenodd" d="M18.215 19.2037C17.813 26.9578 21.2707 33.4253 28.4619 37.9169C32.8617 40.6625 43.3384 43.7756 48.4618 44.6027C52.8065 45.2683 57.2239 45.3108 61.5806 44.7291L23.798 19.353C21.9757 18.913 20.0812 18.8621 18.238 19.2037H18.215Z" fill="url(#paint10_radial_641_22274)"/>
<path fill-rule="evenodd" clip-rule="evenodd" d="M25.2017 14.4023L49.6128 40.1574C42.5742 39.4459 35.7276 37.4402 29.4177 34.2413C26.2356 32.4722 23.2718 30.5193 21.2156 27.3488C20.446 26.09 19.829 24.7442 19.3775 23.3396C18.4585 20.7779 17.2523 17.2167 20.2046 15.2983C21.7148 14.4258 23.4812 14.105 25.2017 14.3908V14.4023Z" fill="url(#paint11_radial_641_22274)"/>
<path style="mix-blend-mode:multiply" fill-rule="evenodd" clip-rule="evenodd" d="M23.3344 14.3516C22.2775 17.3154 23.3344 20.888 25.1609 24.2309C28.3889 30.0781 31.0425 32.1458 36.4072 35.7185C37.389 36.4475 38.304 37.2625 39.1413 38.1538C42.5527 39.201 46.0638 39.8902 49.618 40.2101L25.2069 14.409C24.5845 14.3412 23.9567 14.3412 23.3344 14.409V14.3516Z" fill="url(#paint12_radial_641_22274)"/>
<path fill-rule="evenodd" clip-rule="evenodd" d="M33.5792 9.68108L63.4469 12.978C72.1315 16.6311 86.8816 32.7251 81.5628 41.3179C79.2653 45.0054 75.394 45.373 71.4538 45.775C69.6962 45.9474 67.9156 45.9933 66.158 46.1427C64.9236 46.4107 63.6647 46.5493 62.4016 46.5562C60.4286 46.3121 58.497 45.806 56.6578 45.0513C51.362 42.9146 49.3402 41.1455 45.0438 37.929C43.068 36.4471 41.0691 34.9767 39.0243 33.5637C36.0835 31.519 33.1197 30.2324 30.4546 27.5672C29.1285 26.2457 27.8963 24.8331 26.7671 23.3398C24.9636 20.9274 21.7011 16.1486 23.3208 13.2537C24.4696 11.2204 29.4092 9.03777 33.5677 9.68108H33.5792Z" fill="url(#paint13_radial_641_22274)"/>
<path style="mix-blend-mode:multiply" fill-rule="evenodd" clip-rule="evenodd" d="M32.7052 9.68359C29.6036 11.8662 30.8557 15.795 32.9005 18.9656C37.3807 25.8581 45.3645 33.4514 52.9004 36.9666C55.8986 38.3566 58.5752 37.5065 61.2748 37.5295C64.365 37.5295 68.2708 38.5519 71.5332 39.0229C76.3121 39.7121 79.2069 38.46 80.3212 35.8523C81.1078 33.7484 81.1078 31.4312 80.3212 29.3274C76.4844 22.297 68.8336 15.324 63.4804 13.0724L33.6127 9.7755C33.3255 9.7755 33.0384 9.70657 32.7397 9.68359H32.7052Z" fill="url(#paint14_radial_641_22274)"/>
<path fill-rule="evenodd" clip-rule="evenodd" d="M65.7284 33.2541C67.6239 33.1392 69.5538 33.4724 71.4722 33.2541C75.6192 32.6682 77.8134 31.0485 78.3648 28.751C80.3406 19.7332 64.4533 9.06124 54.4362 6.75224C46.5901 4.92571 26.6247 5.31629 33.1726 16.0802C36.9176 22.2375 43.4311 26.5339 49.4505 30.3477C55.8147 34.3684 58.9738 33.794 65.8203 33.3L65.7284 33.2541Z" fill="url(#paint15_radial_641_22274)"/>
<path style="mix-blend-mode:multiply" opacity="0.5" fill-rule="evenodd" clip-rule="evenodd" d="M72.1187 23.3097C73.4398 26.0552 76.6333 29.0535 74.4162 32.4997C75.329 32.26 76.1628 31.7847 76.8342 31.1214C77.5055 30.4581 77.9908 29.6301 78.2416 28.7203C78.4116 27.9201 78.4504 27.0976 78.3565 26.2849C77.4375 17.876 63.4226 8.83532 54.313 6.75606C50.6195 5.99653 46.8391 5.74914 43.0781 6.02086C47.9489 6.02086 53.865 6.65268 57.4261 9.26036C58.483 10.0415 59.379 11.0409 60.4818 11.7646C61.2285 12.2471 61.8833 12.6377 62.4806 12.9134C65.6857 14.717 67.1791 14.9582 70.2003 19.3579C70.9292 20.6207 71.559 21.9381 72.0843 23.2982L72.1187 23.3097Z" fill="url(#paint16_radial_641_22274)"/>
<path style="mix-blend-mode:multiply" opacity="0.5" fill-rule="evenodd" clip-rule="evenodd" d="M78.2746 28.7081C78.0238 29.6179 77.5385 30.4459 76.8671 31.1092C76.1958 31.7725 75.362 32.2478 74.4492 32.4875C77.6313 32.3037 77.6428 34.4519 77.4934 36.7379L77.4245 37.6799C77.2618 38.6973 77.0315 39.7028 76.7353 40.6897C76.7193 41.5933 76.5959 42.4918 76.3677 43.3663C76.0304 44.2539 75.3866 44.9915 74.5526 45.4455C77.3326 44.986 79.8599 44.067 81.5371 41.3674C81.9007 40.8034 82.1866 40.1928 82.3871 39.5524C83.5359 35.6926 81.629 30.7988 78.4469 26.2383C78.5408 27.0509 78.502 27.8734 78.332 28.6736L78.2746 28.7081Z" fill="url(#paint17_radial_641_22274)"/>
<path style="mix-blend-mode:multiply" opacity="0.5" fill-rule="evenodd" clip-rule="evenodd" d="M81.5369 41.3665C79.8597 44.0661 77.3324 44.9851 74.5524 45.4446C76.9419 46.892 76.3675 50.6485 75.6093 52.8771C75.6093 52.9805 75.5404 53.0838 75.4944 53.1987C74.8546 54.983 73.7869 56.5831 72.385 57.8588C70.9831 59.1346 69.2896 60.0471 67.4531 60.5163C68.9618 60.4565 70.4616 60.2565 71.9333 59.9189C75.0894 59.2426 78.0009 57.7174 80.3537 55.5077C80.8967 54.9649 81.3782 54.3639 81.7896 53.7157C84.7879 48.9024 84.4892 44.158 82.364 39.5859C82.1787 40.2115 81.9122 40.8102 81.5714 41.3665H81.5369Z" fill="url(#paint18_radial_641_22274)"/>
<path style="mix-blend-mode:multiply" opacity="0.5" fill-rule="evenodd" clip-rule="evenodd" d="M80.3213 55.5117C77.9685 57.7214 75.057 59.2466 71.901 59.9229C70.4293 60.2605 68.9295 60.4605 67.4208 60.5203C70.2238 61.8184 67.1681 64.047 66.8694 65.6323C66.5248 67.3899 66.7086 68.194 65.5253 69.2049C63.4346 70.974 59.0578 72.2032 54.75 72.387C59.878 72.994 65.0766 72.4925 69.994 70.9166C70.5876 70.7129 71.1704 70.4791 71.7401 70.2158C74.5664 69.0201 76.9297 66.9416 78.4765 64.2911C80.0233 61.6406 80.6705 58.5606 80.3213 55.5117Z" fill="url(#paint19_radial_641_22274)"/>
<path style="mix-blend-mode:multiply" opacity="0.5" fill-rule="evenodd" clip-rule="evenodd" d="M69.9933 70.9156C65.0758 72.4916 59.8773 72.993 54.7492 72.386C55.6912 73.0178 56.6102 74.4538 55.3581 75.2464C54.1059 76.0391 53.8073 76.8547 52.3368 77.1878C48.5339 77.6332 44.6845 77.4782 40.9297 76.7283C44.1925 77.7461 47.577 78.3218 50.9928 78.44C53.8458 78.6058 56.7081 78.4942 59.5396 78.1068L60.1025 78.0149C66.2368 76.9466 69.9243 74.3619 71.7394 70.2148C71.1697 70.4781 70.5869 70.712 69.9933 70.9156Z" fill="url(#paint20_radial_641_22274)"/>
<path style="mix-blend-mode:multiply" opacity="0.5" fill-rule="evenodd" clip-rule="evenodd" d="M59.5391 78.102C56.7076 78.4894 53.8453 78.601 50.9923 78.4351C47.5765 78.3169 44.192 77.7413 40.9292 76.7235C43.3301 78.1594 42.1813 79.917 39.4588 79.6068C32.3709 78.8027 19.6197 72.5994 14.1172 66.2812C16.8509 69.8712 20.1669 72.9776 23.9276 75.4713C33.1176 81.755 48.7178 86.396 59.5391 78.056V78.102Z" fill="url(#paint21_radial_641_22274)"/>
<path style="mix-blend-mode:screen" opacity="0.4" fill-rule="evenodd" clip-rule="evenodd" d="M33.0817 16.0407C36.8267 22.198 43.3401 26.4944 49.3596 30.3083C52.1204 32.2792 55.391 33.4119 58.7794 33.5707C59.2322 33.5903 59.6771 33.4469 60.0332 33.1666C60.3894 32.8863 60.6333 32.4876 60.7208 32.0429C61.0318 30.5889 61.0318 29.0856 60.7208 27.6317C60.0631 26.0681 59.518 24.4596 59.0896 22.8184C58.8828 21.8649 59.2159 20.831 58.9747 19.8776C58.6565 18.5427 58.1042 17.2747 57.3435 16.1326C56.0962 14.4269 54.537 12.9729 52.7484 11.8477C50.4844 10.2991 47.8791 9.32158 45.1551 8.99882C43.0529 8.84949 40.9507 9.24007 38.837 9.25155C36.7233 9.26304 36.6084 8.84948 34.2419 9.56171L33.748 9.757C33.0326 10.0869 32.4669 10.6731 32.1627 11.3997C31.8564 12.0194 31.7791 12.7274 31.9444 13.3986C32.1894 14.333 32.5769 15.2242 33.0932 16.0407H33.0817ZM59.8248 22.1751C59.7559 23.1748 60.0586 24.1648 60.6749 24.9551C60.7698 25.0635 60.889 25.1481 61.0227 25.202C61.1564 25.2558 61.3009 25.2775 61.4445 25.2652C61.6168 25.2652 61.7547 25.0125 61.7662 24.8287C61.8811 23.9479 61.8811 23.0559 61.7662 22.1751C61.7312 22.0222 61.6652 21.878 61.5723 21.7516C61.4795 21.6251 61.3617 21.5191 61.2263 21.4399C61.0918 21.3607 60.9393 21.3174 60.7833 21.3144C60.6273 21.3114 60.4731 21.3486 60.3357 21.4225C60.1983 21.4964 60.0823 21.6045 59.9988 21.7363C59.9153 21.8681 59.8673 22.0193 59.8592 22.1751H59.8248Z" fill="url(#paint22_radial_641_22274)"/>
<path style="mix-blend-mode:screen" opacity="0.4" fill-rule="evenodd" clip-rule="evenodd" d="M21.2126 27.3742C21.7933 28.253 22.459 29.0725 23.2 29.8211C24.847 31.4085 26.702 32.7649 28.714 33.8532L29.4147 34.2438C31.3304 35.2862 33.3283 36.1698 35.3883 36.8859C33.6766 35.8636 32.6657 34.8297 31.5399 34.0485C30.7588 33.5201 29.8513 33.187 29.1161 32.6126L28.7255 32.3024C26.9334 30.832 26.9564 30.2232 25.7387 28.3047C25.2325 27.7123 24.7717 27.0825 24.3602 26.4208C23.3838 24.1807 23.1425 21.8257 21.8904 19.3329C21.8475 19.2411 21.7976 19.1528 21.741 19.0687C21.6111 18.8718 21.4383 18.7068 21.2356 18.5862C20.9348 18.3762 20.5631 18.2936 20.2017 18.3565C19.9085 18.4568 19.6415 18.6216 19.4206 18.839C19.1011 19.1187 18.8655 19.4815 18.7397 19.8871C18.614 20.2926 18.6031 20.7251 18.7083 21.1365C18.9151 21.9176 19.1793 22.6758 19.4206 23.3536C19.872 24.7581 20.489 26.104 21.2586 27.3628L21.2126 27.3742Z" fill="url(#paint23_radial_641_22274)"/>
<path style="mix-blend-mode:screen" opacity="0.4" fill-rule="evenodd" clip-rule="evenodd" d="M26.7998 23.3846C27.929 24.8778 29.1612 26.2904 30.4873 27.612C33.1524 30.2771 36.1162 31.5637 39.057 33.6085L40.3896 34.539C41.9749 35.6878 43.5257 36.8365 45.0765 37.9853L47.7417 39.9956C48.8904 40.8227 49.8669 41.5464 50.9467 42.2242C52.3199 43.1023 53.7603 43.8706 55.2545 44.5217C54.9769 44.3037 54.7123 44.0697 54.4619 43.821C52.3367 41.7302 51.0845 38.6745 46.9835 34.964C46.0029 34.0818 44.9752 33.2535 43.9048 32.4827C43.0307 31.9224 42.108 31.4418 41.1478 31.0468L40.7802 30.8745C40.493 30.7251 40.2173 30.5758 39.9646 30.415C38.8389 29.7489 37.7775 28.9797 36.794 28.1175C35.7196 27.0013 34.7895 25.7547 34.0255 24.407C33.6234 23.7637 33.2903 23.1778 32.9916 22.6379C31.2685 19.4328 31.257 17.7212 29.7521 14.3438C29.4952 13.8246 29.0584 13.4163 28.5229 13.1951C27.4891 12.7471 25.8348 13.4363 24.732 14.3438L24.6057 14.4472C24.0556 14.9021 23.6692 15.5242 23.5054 16.2189C23.3415 16.9137 23.4092 17.6429 23.6982 18.2956C23.9164 18.801 24.1691 19.295 24.4334 19.7775C25.1431 21.0325 25.9376 22.2376 26.8113 23.3846H26.7998ZM54.0368 40.4551C53.9105 40.3517 53.6348 40.3402 53.6118 40.7193C53.745 41.6368 54.1661 42.4882 54.8144 43.1509C55.4627 43.8137 56.3046 44.2534 57.2189 44.4068C58.092 44.6021 59.7691 44.0737 59.0339 43.2581C58.1681 42.7917 57.2452 42.4403 56.2884 42.2127C55.3852 41.8324 54.5942 41.2274 53.9909 40.4551H54.0368Z" fill="url(#paint24_radial_641_22274)"/>
<path style="mix-blend-mode:screen" opacity="0.4" fill-rule="evenodd" clip-rule="evenodd" d="M13.4641 27.695V27.8099C13.3192 28.278 13.27 28.7704 13.3194 29.2578C13.3687 29.7453 13.5156 30.2178 13.7513 30.6473C17.4847 37.7122 27.0539 42.1349 33.7741 44.6277C38.2544 46.2556 42.9005 47.3843 47.6281 47.9936C44.4116 47.0401 43.596 46.1556 39.3801 44.6392C38.1689 44.2447 36.9801 43.7845 35.8189 43.2607C34.4978 42.6059 34.4289 41.2389 31.7753 40.653C28.329 39.8834 27.8465 38.2866 24.3773 36.058C23.2351 35.4185 22.1612 34.6641 21.1723 33.8064C18.8747 31.417 18.4037 27.6031 16.9908 25.1448C16.8849 25.0037 16.748 24.8888 16.5906 24.8091C16.4333 24.7294 16.2597 24.6871 16.0833 24.6853C14.8311 24.6164 13.7857 26.6612 13.4526 27.6491L13.4641 27.695Z" fill="url(#paint25_radial_641_22274)"/>
<path style="mix-blend-mode:screen" opacity="0.4" fill-rule="evenodd" clip-rule="evenodd" d="M10.1562 39.6746C10.2317 41.6863 10.7745 43.6528 11.7415 45.4184C15.0383 49.9725 18.8981 54.0909 23.2291 57.6757L23.367 57.7905C22.3561 56.4235 22.5973 55.5734 21.437 54.2868C20.9233 53.5776 20.5025 52.8055 20.1849 51.9893C19.2774 49.9675 19.3233 48.0491 18.68 46.0273C18.3434 45.0608 17.9285 44.1233 17.4394 43.2243C17.2671 42.8682 17.0947 42.5006 16.9339 42.0755C16.1643 40.226 15.7047 38.2502 14.9351 36.3892C14.062 34.3099 11.0408 33.9538 10.5239 36.5156C10.3087 37.543 10.2047 38.5905 10.2137 39.6402L10.1562 39.6746ZM22.6547 49.1289C22.33 48.8713 21.9189 48.7479 21.506 48.7843C20.7708 49.0715 20.7133 51.0818 21.3796 52.2305C21.6367 52.7414 21.9923 53.1963 22.4261 53.5689C22.8599 53.9415 23.3631 54.2246 23.9069 54.4017C24.1596 54.4591 24.3434 54.2064 24.3204 53.9422C24.2975 53.678 23.6656 52.3799 23.4703 51.3116C23.4247 50.5207 23.1624 49.7577 22.7122 49.1059L22.6547 49.1289Z" fill="url(#paint26_radial_641_22274)"/>
<path style="mix-blend-mode:screen" opacity="0.4" fill-rule="evenodd" clip-rule="evenodd" d="M25.1494 45.3864C25.8213 46.3466 26.5623 47.2565 27.3665 48.1089C30.8541 51.7005 35.0153 54.5696 39.6122 56.5523L40.29 56.851C39.2676 55.7022 38.7277 54.4156 37.8087 53.2324C37.4489 52.765 37.0321 52.3444 36.568 51.9803C35.6835 51.2795 34.5232 50.9923 33.6272 50.3261C33.2366 50.0274 33.1332 49.476 32.7886 49.1773C30.112 46.5466 26.0454 45.4668 23.4492 42.6523C23.9585 43.6129 24.5263 44.5414 25.1494 45.4323V45.3864Z" fill="url(#paint27_radial_641_22274)"/>
<path style="mix-blend-mode:screen" opacity="0.4" fill-rule="evenodd" clip-rule="evenodd" d="M7.28516 48.0428C7.70279 50.079 8.48086 52.0242 9.58267 53.7866C9.58267 53.89 9.70904 53.9934 9.77796 54.0968C11.8315 57.2788 14.3659 60.1231 17.2908 62.5287C16.191 61.0606 15.2332 59.4912 14.4304 57.8418C13.3736 56.0037 11.4207 51.4776 10.8463 50.1106C10.3868 48.9619 7.40003 44.9757 7.28516 48.0428Z" fill="url(#paint28_radial_641_22274)"/>
<path style="mix-blend-mode:screen" fill-rule="evenodd" clip-rule="evenodd" d="M82.3205 39.5498C83.4693 35.6785 81.5739 30.7848 78.3918 26.2127C77.4613 17.8038 63.4579 8.76307 54.3483 6.68382C48.5241 5.32828 36.0486 5.20192 32.6597 9.61315C28.7195 9.3834 24.3657 11.3937 23.3318 13.2777C23.1387 13.6353 23.0104 14.0242 22.9527 14.4264C21.9807 14.5175 21.042 14.8278 20.2072 15.334C19.5656 15.7403 19.0511 16.3186 18.722 17.003C18.393 17.6874 18.2628 18.4505 18.3462 19.2053H18.2199C13.8086 20.1358 11.7294 23.6969 12.3842 26.9594C12.3842 27.2695 12.545 27.5682 12.6254 27.8669C9.62715 29.5096 8.14526 32.2207 8.11079 36.2873C8.1319 37.368 8.32581 38.4384 8.68517 39.4579C5.9741 44.6273 6.9965 49.5325 9.55823 53.8173C9.48935 54.3397 9.48935 54.8688 9.55823 55.3911C10.5232 63.3635 16.4508 70.325 23.9177 75.5059C33.1078 81.8011 48.7194 86.4306 59.5292 78.0676L60.0806 77.9987C66.215 76.9304 69.8795 74.3342 71.706 70.1986C74.5376 69.0034 76.9049 66.9216 78.4523 64.266C79.9997 61.6104 80.6436 58.5244 80.2872 55.4716C80.836 54.9394 81.3217 54.3458 81.7347 53.7025C84.7559 48.9007 84.4572 44.1448 82.3205 39.5498Z" fill="url(#paint29_radial_641_22274)"/>
<path style="mix-blend-mode:screen" opacity="0.5" fill-rule="evenodd" clip-rule="evenodd" d="M22.0808 17.7223C21.0566 18.3598 19.976 18.902 18.8528 19.3421C17.8534 19.8016 16.5553 22.3863 16.337 22.7194C14.4989 25.0381 12.8617 27.5092 11.4433 30.1059C10.5524 32.3242 9.91655 34.6366 9.54784 36.9985C9.38866 37.9245 9.30414 38.8619 9.29511 39.8015C9.29511 40.215 9.35255 40.6401 9.29511 41.0421C9.00792 43.1214 9.50189 44.7411 11.271 47.5671C11.9427 48.712 12.6751 49.8202 13.4651 50.887C14.4369 52.3017 15.5409 53.6211 16.762 54.8272C17.8372 55.7059 19.0528 56.3972 20.3576 56.872C21.4681 57.2838 22.6259 57.5539 23.8039 57.6761C25.88 58.0595 27.988 58.2442 30.0991 58.2275C31.3319 58.0194 32.5278 57.6324 33.6488 57.0788C35.2915 56.4814 36.8998 55.7577 38.531 55.1374C41.6671 53.9886 43.8153 53.0696 46.1243 50.4849C47.4339 49.026 48.4218 47.2914 49.7658 45.8899C50.4436 45.1662 51.4775 44.81 52.1208 44.0519C52.9074 43.0662 53.546 41.971 54.0163 40.8009C54.5447 39.5258 54.6596 38.1128 55.165 36.8032C55.6731 35.8421 56.1071 34.8436 56.4631 33.8164C56.8936 31.5105 57.0785 29.1654 57.0145 26.8205C56.9371 25.3552 56.6508 23.9085 56.1644 22.5241C55.7483 21.103 55.1457 19.7433 54.3724 18.4805C53.5846 17.4626 52.6955 16.5273 51.7187 15.689C49.2855 13.5147 46.4084 11.8958 43.2868 10.9447C41.6668 10.5835 40.0017 10.4673 38.3472 10.6C36.6179 10.883 34.9128 11.2977 33.2467 11.8407C31.5782 12.1659 29.929 12.584 28.307 13.0928C27.1079 13.5493 25.9787 14.1719 24.9527 14.9423C23.8958 15.7465 23.2181 16.9986 22.1152 17.7338L22.0808 17.7223ZM11.6271 50.1288C11.5352 49.9795 11.2825 49.8071 11.1331 49.9105C9.90395 50.7951 11.3744 54.2184 11.9028 55.2752C12.3859 56.3489 13.1574 57.2675 14.1314 57.9289C14.7517 58.3079 15.6248 57.791 16.3255 57.9863C17.0263 58.1816 17.1182 58.7674 17.7385 58.9857C19.7373 59.6865 21.1848 58.4803 19.565 57.7795C18.6883 57.4424 17.849 57.015 17.0607 56.5044C14.2922 54.54 13.3043 52.7365 11.6271 50.1288ZM51.3741 46.1885C51.2913 46.1433 51.1985 46.1196 51.1041 46.1196C51.0098 46.1196 50.917 46.1433 50.8342 46.1885C50.5015 46.3698 50.2055 46.6113 49.9611 46.9008C49.6215 47.2685 49.3353 47.6823 49.1111 48.13C48.8939 48.5177 48.7682 48.9499 48.7435 49.3936C48.7435 49.5889 48.9387 49.8416 49.134 49.8416C49.8209 49.8344 50.4939 49.6483 51.0869 49.3017C51.9255 48.7618 52.0519 46.6366 51.3741 46.1771V46.1885Z" fill="url(#paint30_radial_641_22274)"/>
<defs>
<radialGradient id="paint0_radial_641_22274" cx="0" cy="0" r="1" gradientUnits="userSpaceOnUse" gradientTransform="translate(38.0239 38.0239) scale(38.0239)">
<stop stop-color="#00DED3"/>
<stop offset="1"/>
</radialGradient>
<radialGradient id="paint1_radial_641_22274" cx="0" cy="0" r="1" gradientUnits="userSpaceOnUse" gradientTransform="translate(45.5552 69.5769) scale(43.469 43.469)">
<stop stop-color="#0052CC"/>
<stop offset="0.23" stop-color="#1777DA"/>
<stop offset="0.59" stop-color="#38ABEE"/>
<stop offset="0.85" stop-color="#4CCCFA"/>
<stop offset="1" stop-color="#54D8FF"/>
</radialGradient>
<radialGradient id="paint2_radial_641_22274" cx="0" cy="0" r="1" gradientUnits="userSpaceOnUse" gradientTransform="translate(42.8618 54.8843) scale(32.3375 32.3375)">
<stop stop-color="#0369D1"/>
<stop offset="1" stop-color="#F5FFFF"/>
</radialGradient>
<radialGradient id="paint3_radial_641_22274" cx="0" cy="0" r="1" gradientUnits="userSpaceOnUse" gradientTransform="translate(58.5286 68.8452) scale(61.7687 61.7687)">
<stop stop-color="#0052CC"/>
<stop offset="0.23" stop-color="#1777DA"/>
<stop offset="0.59" stop-color="#38ABEE"/>
<stop offset="0.85" stop-color="#4CCCFA"/>
<stop offset="1" stop-color="#54D8FF"/>
</radialGradient>
<radialGradient id="paint4_radial_641_22274" cx="0" cy="0" r="1" gradientUnits="userSpaceOnUse" gradientTransform="translate(51.3556 42.4897) scale(45.5712 45.5712)">
<stop stop-color="#0369D1"/>
<stop offset="1" stop-color="#F5FFFF"/>
</radialGradient>
<radialGradient id="paint5_radial_641_22274" cx="0" cy="0" r="1" gradientUnits="userSpaceOnUse" gradientTransform="translate(65.2146 56.3693) scale(62.4695 62.4694)">
<stop stop-color="#0033B5"/>
<stop offset="0.31" stop-color="#0F6DD1"/>
<stop offset="0.63" stop-color="#1DA1EA"/>
<stop offset="0.87" stop-color="#26C2F9"/>
<stop offset="1" stop-color="#29CEFF"/>
</radialGradient>
<radialGradient id="paint6_radial_641_22274" cx="0" cy="0" r="1" gradientUnits="userSpaceOnUse" gradientTransform="translate(60.4246 33.4027) scale(42.6304 42.6304)">
<stop stop-color="#0369D1"/>
<stop offset="1" stop-color="#F5FFFF"/>
</radialGradient>
<radialGradient id="paint7_radial_641_22274" cx="0" cy="0" r="1" gradientUnits="userSpaceOnUse" gradientTransform="translate(74.8422 52.8499) scale(95.7145 95.7145)">
<stop stop-color="#0052CC"/>
<stop offset="0.23" stop-color="#1777DA"/>
<stop offset="0.59" stop-color="#38ABEE"/>
<stop offset="0.85" stop-color="#4CCCFA"/>
<stop offset="1" stop-color="#54D8FF"/>
</radialGradient>
<radialGradient id="paint8_radial_641_22274" cx="0" cy="0" r="1" gradientUnits="userSpaceOnUse" gradientTransform="translate(64.6644 17.5715) scale(52.8888 52.8888)">
<stop stop-color="#0369D1"/>
<stop offset="1" stop-color="#F5FFFF"/>
</radialGradient>
<radialGradient id="paint9_radial_641_22274" cx="0" cy="0" r="1" gradientUnits="userSpaceOnUse" gradientTransform="translate(61.2084 39.2859) scale(64.8014)">
<stop stop-color="#0052CC"/>
<stop offset="0.23" stop-color="#1777DA"/>
<stop offset="0.59" stop-color="#38ABEE"/>
<stop offset="0.85" stop-color="#4CCCFA"/>
<stop offset="1" stop-color="#54D8FF"/>
</radialGradient>
<radialGradient id="paint10_radial_641_22274" cx="0" cy="0" r="1" gradientUnits="userSpaceOnUse" gradientTransform="translate(47.6807 19.1807) scale(29.0291 29.0291)">
<stop stop-color="#0369D1"/>
<stop offset="1" stop-color="#F5FFFF"/>
</radialGradient>
<radialGradient id="paint11_radial_641_22274" cx="0" cy="0" r="1" gradientUnits="userSpaceOnUse" gradientTransform="translate(45.9253 31.8749) scale(31.8436)">
<stop stop-color="#0033B5"/>
<stop offset="0.31" stop-color="#0F6DD1"/>
<stop offset="0.63" stop-color="#1DA1EA"/>
<stop offset="0.87" stop-color="#26C2F9"/>
<stop offset="1" stop-color="#29CEFF"/>
</radialGradient>
<radialGradient id="paint12_radial_641_22274" cx="0" cy="0" r="1" gradientUnits="userSpaceOnUse" gradientTransform="translate(51.3181 13.6738) scale(30.2008 30.2009)">
<stop stop-color="#0369D1"/>
<stop offset="1" stop-color="#F5FFFF"/>
</radialGradient>
<radialGradient id="paint13_radial_641_22274" cx="0" cy="0" r="1" gradientUnits="userSpaceOnUse" gradientTransform="translate(77.0482 30.3013) scale(76.4613 76.4613)">
<stop stop-color="#0052CC"/>
<stop offset="0.23" stop-color="#1777DA"/>
<stop offset="0.59" stop-color="#38ABEE"/>
<stop offset="0.85" stop-color="#4CCCFA"/>
<stop offset="1" stop-color="#54D8FF"/>
</radialGradient>
<radialGradient id="paint14_radial_641_22274" cx="0" cy="0" r="1" gradientUnits="userSpaceOnUse" gradientTransform="translate(78.2305 -0.494395) scale(53.3368 53.3368)">
<stop stop-color="#0369D1"/>
<stop offset="1" stop-color="#F5FFFF"/>
</radialGradient>
<radialGradient id="paint15_radial_641_22274" cx="0" cy="0" r="1" gradientUnits="userSpaceOnUse" gradientTransform="translate(43.6493 15.8619) scale(40.1835 40.1836)">
<stop stop-color="#4DD5FF"/>
<stop offset="0.02" stop-color="#4BD2FE"/>
<stop offset="0.48" stop-color="#2398EE"/>
<stop offset="0.82" stop-color="#0A74E5"/>
<stop offset="1" stop-color="#0066E1"/>
</radialGradient>
<radialGradient id="paint16_radial_641_22274" cx="0" cy="0" r="1" gradientUnits="userSpaceOnUse" gradientTransform="translate(62.8827 26.5607) scale(27.7195 27.7195)">
<stop stop-color="#F5FFFF"/>
<stop offset="1" stop-color="#0369D1"/>
</radialGradient>
<radialGradient id="paint17_radial_641_22274" cx="0" cy="0" r="1" gradientUnits="userSpaceOnUse" gradientTransform="translate(71.382 36.9102) scale(17.9551 17.9551)">
<stop stop-color="#F5FFFF"/>
<stop offset="1" stop-color="#0369D1"/>
</radialGradient>
<radialGradient id="paint18_radial_641_22274" cx="0" cy="0" r="1" gradientUnits="userSpaceOnUse" gradientTransform="translate(70.842 53.4285) scale(20.9189 20.9189)">
<stop stop-color="#F5FFFF"/>
<stop offset="1" stop-color="#0369D1"/>
</radialGradient>
<radialGradient id="paint19_radial_641_22274" cx="0" cy="0" r="1" gradientUnits="userSpaceOnUse" gradientTransform="translate(61.4587 66.8155) scale(22.3893 22.3893)">
<stop stop-color="#F5FFFF"/>
<stop offset="1" stop-color="#0369D1"/>
</radialGradient>
<radialGradient id="paint20_radial_641_22274" cx="0" cy="0" r="1" gradientUnits="userSpaceOnUse" gradientTransform="translate(51.2685 80.4847) scale(23.2853 23.2853)">
<stop stop-color="#F5FFFF"/>
<stop offset="1" stop-color="#0369D1"/>
</radialGradient>
<radialGradient id="paint21_radial_641_22274" cx="0" cy="0" r="1" gradientUnits="userSpaceOnUse" gradientTransform="translate(39.7804 61.3646) scale(26.6742 26.6742)">
<stop stop-color="#F5FFFF"/>
<stop offset="1" stop-color="#0369D1"/>
</radialGradient>
<radialGradient id="paint22_radial_641_22274" cx="0" cy="0" r="1" gradientUnits="userSpaceOnUse" gradientTransform="translate(59.9282 5.86272) scale(33.7046 33.7045)">
<stop offset="0.33"/>
<stop offset="1" stop-color="#99FFFF"/>
</radialGradient>
<radialGradient id="paint23_radial_641_22274" cx="0" cy="0" r="1" gradientUnits="userSpaceOnUse" gradientTransform="translate(37.1114 21.6879) scale(19.908 19.908)">
<stop offset="0.59"/>
<stop offset="1" stop-color="#99FFFF"/>
</radialGradient>
<radialGradient id="paint24_radial_641_22274" cx="0" cy="0" r="1" gradientUnits="userSpaceOnUse" gradientTransform="translate(57.7703 13.8039) scale(36.1284 36.1284)">
<stop offset="0.59"/>
<stop offset="1" stop-color="#99FFFF"/>
</radialGradient>
<radialGradient id="paint25_radial_641_22274" cx="0" cy="0" r="1" gradientUnits="userSpaceOnUse" gradientTransform="translate(45.1813 23.4906) scale(34.0836 34.0837)">
<stop offset="0.59"/>
<stop offset="1" stop-color="#99FFFF"/>
</radialGradient>
<radialGradient id="paint26_radial_641_22274" cx="0" cy="0" r="1" gradientUnits="userSpaceOnUse" gradientTransform="translate(31.3393 39.4908) scale(23.4576 23.4576)">
<stop offset="0.59"/>
<stop offset="1" stop-color="#99FFFF"/>
</radialGradient>
<radialGradient id="paint27_radial_641_22274" cx="0" cy="0" r="1" gradientUnits="userSpaceOnUse" gradientTransform="translate(46.6426 41.0785) scale(22.9866 22.9866)">
<stop offset="0.59"/>
<stop offset="1" stop-color="#99FFFF"/>
</radialGradient>
<radialGradient id="paint28_radial_641_22274" cx="0" cy="0" r="1" gradientUnits="userSpaceOnUse" gradientTransform="translate(23.6779 49.3869) scale(18.3801 18.3801)">
<stop offset="0.59"/>
<stop offset="1" stop-color="#99FFFF"/>
</radialGradient>
<radialGradient id="paint29_radial_641_22274" cx="0" cy="0" r="1" gradientUnits="userSpaceOnUse" gradientTransform="translate(51.6717 51.8185) scale(51.338 51.338)">
<stop offset="0.04"/>
<stop offset="0.84"/>
<stop offset="0.85" stop-color="#0D1616"/>
<stop offset="0.9" stop-color="#3E6868"/>
<stop offset="0.93" stop-color="#65A9A9"/>
<stop offset="0.96" stop-color="#81D7D7"/>
<stop offset="0.99" stop-color="#93F4F4"/>
<stop offset="1" stop-color="#99FFFF"/>
</radialGradient>
<radialGradient id="paint30_radial_641_22274" cx="0" cy="0" r="1" gradientUnits="userSpaceOnUse" gradientTransform="translate(1.00108 -5.08051) scale(77.0816 77.0816)">
<stop stop-color="#C4FFE2"/>
<stop offset="1"/>
</radialGradient>
</defs>
</svg>
