<svg width="67" height="67" viewBox="0 0 67 67" fill="none" xmlns="http://www.w3.org/2000/svg">
<g opacity="0.7">
<path style="mix-blend-mode:screen" d="M33.5 67C52.0015 67 67 52.0015 67 33.5C67 14.9985 52.0015 0 33.5 0C14.9985 0 0 14.9985 0 33.5C0 52.0015 14.9985 67 33.5 67Z" fill="url(#paint0_radial_1216_25192)"/>
<path fill-rule="evenodd" clip-rule="evenodd" d="M7.4089 30.7452V32.8624L8.39445 36.5126L13.5048 45.3005L24.3368 55.8953L33.5719 61.0513L43.7926 61.7266L50.3083 58.6239L55.9113 55.22L60.1547 50.4474L62.1989 45.9393L64.5989 39.4328L64.9639 37.781L65.0552 36.686C64.9092 30.654 53.1463 26.3467 40.5804 24.549C25.441 22.3862 8.57698 22.4044 7.36328 30.727L7.4089 30.7452Z" fill="url(#paint1_linear_1216_25192)"/>
<path fill-rule="evenodd" clip-rule="evenodd" d="M36.1292 7.02735C41.7377 7.02554 47.2208 8.68713 51.8848 11.8019C56.5489 14.9167 60.1844 19.3448 62.3315 24.526C64.4786 29.7073 65.0409 35.4089 63.9471 40.9097C62.8534 46.4105 60.1528 51.4634 56.187 55.4292C52.2212 59.395 47.1683 62.0956 41.6675 63.1893C36.1667 64.2831 30.4651 63.7208 25.2838 61.5737C20.1026 59.4266 15.6745 55.7911 12.5597 51.127C9.44492 46.463 7.78335 40.9799 7.78516 35.3714C7.78758 27.8548 10.7746 20.6468 16.0896 15.3318C21.4046 10.0168 28.6126 7.02976 36.1292 7.02735Z" fill="url(#paint2_radial_1216_25192)"/>
<path fill-rule="evenodd" clip-rule="evenodd" d="M17.8463 13.5282C17.6551 14.0182 17.3768 14.4696 17.025 14.8606C15.5558 16.4119 12.3344 18.0728 12.2523 20.4454C12.2523 20.8196 12.4896 21.1755 12.4622 21.5405C12.3566 22.275 12.2104 23.0031 12.0242 23.7215C11.8416 24.7801 12.3253 26.1215 13.6211 25.8021C14.3238 25.6287 15.7474 25.136 15.9299 25.1816C16.6234 25.355 17.463 26.2128 18.3117 26.0941C19.6714 25.9573 20.8212 24.7253 21.9619 24.3694C24.4441 23.6029 26.9992 26.2584 27.8844 28.6676C29.1711 32.1809 30.5034 36.6251 31.6898 37.419C32.4016 37.8935 33.6883 38.1673 34.0807 38.4411C35.3674 39.3536 36.1522 42.1552 36.9735 43.1499C37.407 43.7118 38.0032 44.1264 38.681 44.3371C39.3587 44.5478 40.0849 44.5443 40.7606 44.327C42.0199 43.9803 44.5203 43.4145 45.3234 43.3415C47.5592 43.0677 51.8573 43.4875 52.8885 43.0038C54.2993 42.1996 55.6103 41.2317 56.7942 40.1202C58.5281 38.7696 60.0065 38.2038 60.8278 36.9718C61.1745 36.4517 61.0833 35.1011 61.1107 34.298C61.1107 33.057 62.0232 32.6463 62.4704 31.7611C63.5837 29.4706 61.8133 24.9991 61.0285 22.7268C60.8095 22.0698 60.5266 21.4401 60.3167 20.7739C60.1707 20.3268 60.0703 19.9161 59.9791 19.5055C59.4501 17.6837 58.4962 16.0135 57.1958 14.6324C56.0277 13.6012 54.2026 13.1358 52.925 12.1685C48.0015 8.59835 42.221 6.39447 36.1704 5.78061C34.7925 5.69848 30.4031 7.18595 27.6745 8.03463C24.946 8.88331 21.9345 9.78674 19.5345 11.4476C18.793 11.9548 18.2007 12.6511 17.8189 13.4643L17.8463 13.5282ZM9.56024 34.1976C9.39833 34.2907 9.2118 34.3319 9.02576 34.3155C8.83973 34.2992 8.66317 34.2262 8.51994 34.1064C7.82461 33.1242 7.44864 31.9516 7.44313 30.7482C7.20586 32.2539 7.16937 33.8053 7.07811 35.3749C6.83078 38.1783 6.96276 41.0023 7.4705 43.7704C7.89941 45.267 9.84314 48.5704 12.9002 52.823C15.0356 55.7888 18.3756 59.5668 19.8265 60.3059C22.0532 61.4375 30.5673 63.9562 36.1248 63.9562C38.4129 63.971 40.6985 63.8032 42.9599 63.4543C45.2698 63.1394 47.5396 62.5796 49.7311 61.7843C51.9851 60.5797 55.7631 57.0572 58.1996 54.0549C60.0247 51.7918 63.173 47.667 63.4468 46.9096C64.328 43.5568 64.8932 40.1289 65.135 36.6707C64.8613 39.5726 63.9305 39.4084 62.7076 41.6989C62.2284 42.6649 61.799 43.6548 61.4209 44.6647C60.5084 46.9735 59.5958 49.8663 58.1996 51.9652C57.6767 52.7705 57.0264 53.4856 56.2741 54.0823C55.7718 54.4639 55.1875 54.7232 54.5676 54.8397C54.157 54.931 53.7281 54.6481 53.3174 54.7302C51.255 55.15 50.1143 57.1759 48.5447 58.2162C47.6452 58.7901 46.6636 59.2239 45.6337 59.5029C44.4103 59.8656 43.1054 59.8459 41.8936 59.4463C40.6817 59.0467 39.621 58.2864 38.8534 57.2671C37.6305 56.2359 33.5788 55.7888 31.8541 55.3325C27.7384 54.2465 28.3133 51.0982 28.1034 50.2587C28.0256 49.8491 27.8552 49.4628 27.6053 49.1291C27.3554 48.7954 27.0327 48.5232 26.6616 48.3332C26.0137 47.9955 21.9984 47.6396 20.7939 47.083C17.7368 45.6503 16.6326 42.6662 16.2311 38.2768C16.1114 36.8256 15.8391 35.3911 15.4189 33.9969C15.1251 33.5074 14.6857 33.122 14.1621 32.8945C13.6385 32.6671 13.0569 32.609 12.4987 32.7284C11.4938 33.1494 10.5182 33.6372 9.57851 34.1885L9.56024 34.1976ZM42.2481 39.1528C41.9319 39.7712 41.7485 40.4488 41.7097 41.1422C41.7097 41.4342 41.8374 41.9179 42.0747 41.8814C42.8321 41.7536 44.201 41.4981 45.3051 41.3339C46.0169 41.2335 46.8017 41.2335 47.4953 41.0783C47.6145 41.0488 47.7233 40.9873 47.8102 40.9004C47.897 40.8136 47.9585 40.7047 47.9881 40.5856C48.0519 40.257 47.2033 39.162 46.8565 39.016C45.8071 38.5597 43.115 38.3589 42.2481 39.1528ZM32.6115 23.5937C30.9689 23.7032 30.8959 26.5322 31.0875 27.7641C31.2691 29.1526 31.6988 30.4972 32.3559 31.7337C32.7482 32.2004 33.2574 32.5545 33.8314 32.7598C34.4054 32.965 35.0237 33.014 35.6229 32.9018C35.8404 32.8257 36.0332 32.6923 36.181 32.5156C36.3288 32.3389 36.426 32.1255 36.4625 31.898C36.5537 30.8486 35.9697 29.8265 35.9788 28.7771C35.9879 27.7276 36.7545 25.3459 36.2252 24.8713C35.2113 24.0034 33.9087 23.5475 32.575 23.5937H32.6115ZM26.8988 18.4195C26.6623 18.415 26.4274 18.4597 26.209 18.5508C25.9906 18.6419 25.7936 18.7775 25.6304 18.9488C25.4703 19.1338 25.3609 19.3572 25.3129 19.5971C25.2649 19.837 25.28 20.0853 25.3566 20.3177C25.9752 21.4456 26.7876 22.4557 27.7566 23.3017C27.883 23.4436 28.0467 23.547 28.229 23.6002C28.4114 23.6535 28.605 23.6544 28.7878 23.6029C28.9627 23.4879 29.1116 23.3375 29.2248 23.1615C29.3379 22.9855 29.4129 22.7876 29.4449 22.5808C29.7234 21.6367 29.8437 20.6531 29.8008 19.6697C29.7663 19.4803 29.6859 19.3022 29.5666 19.151C29.4472 18.9999 29.2927 18.8803 29.1164 18.8028C28.4155 18.5098 27.6574 18.3787 26.8988 18.4195ZM19.6532 19.9618C18.6402 20.1534 17.1893 21.9238 17.828 22.6994C17.9317 22.8377 18.0725 22.9437 18.2341 23.0051C18.3956 23.0665 18.5713 23.0807 18.7406 23.0462C19.5405 22.729 20.3076 22.3347 21.0311 21.869C21.344 21.7778 21.6492 21.6618 21.9437 21.5222C22.0329 21.433 22.1027 21.3263 22.1486 21.2088C22.1945 21.0913 22.2156 20.9655 22.2104 20.8395C22.2053 20.7134 22.1741 20.5898 22.1187 20.4764C22.0634 20.3631 21.9851 20.2624 21.8889 20.1808C21.2011 19.9118 20.4506 19.8453 19.7261 19.9891L19.6532 19.9618Z" fill="url(#paint3_radial_1216_25192)"/>
<path style="mix-blend-mode:screen" fill-rule="evenodd" clip-rule="evenodd" d="M16.2133 38.2818C16.0936 36.8306 15.8214 35.396 15.4012 34.0019C15.1074 33.5124 14.668 33.1269 14.1444 32.8995C13.6208 32.672 13.0392 32.614 12.481 32.7334C11.4761 33.1544 10.5005 33.6422 9.56076 34.1935C9.46278 34.2419 9.35825 34.2757 9.2505 34.2939C9.22065 35.0378 9.34284 35.78 9.60958 36.4751C9.87632 37.1702 10.282 37.8035 10.8019 38.3365C11.4863 39.0939 12.335 38.9935 13.5395 40.6818C13.8135 41.2308 14.1182 41.764 14.4521 42.2788C15.0828 43.0326 15.8393 43.6717 16.6879 44.1678C17.0676 44.3658 17.473 44.5101 17.8924 44.5967C16.8406 42.6509 16.2446 40.4916 16.1494 38.2818H16.2133ZM32.6394 23.5896C30.9968 23.6991 30.9238 26.528 31.1154 27.76C31.297 29.1485 31.7267 30.493 32.3838 31.7296C32.7761 32.1963 33.2853 32.5504 33.8593 32.7556C34.4333 32.9608 35.0516 33.0099 35.6508 32.8977C35.8683 32.8216 36.0611 32.6881 36.2089 32.5114C36.3566 32.3347 36.4539 32.1213 36.4904 31.8939C36.5816 30.8444 35.9976 29.8223 36.0067 28.7729C36.0158 27.7235 36.7824 25.3417 36.2531 24.8672C35.2392 23.9993 33.9366 23.5434 32.6028 23.5896H32.6394ZM26.8994 18.4154C26.6628 18.4108 26.4279 18.4555 26.2095 18.5467C25.9911 18.6378 25.7941 18.7733 25.6309 18.9447C25.4708 19.1297 25.3614 19.353 25.3134 19.5929C25.2654 19.8329 25.2805 20.0811 25.3572 20.3135C25.9757 21.4414 26.7881 22.4516 27.7572 23.2976C27.8835 23.4394 28.0472 23.5428 28.2296 23.5961C28.4119 23.6493 28.6055 23.6502 28.7884 23.5987C28.9633 23.4837 29.1121 23.3334 29.2253 23.1573C29.3385 22.9813 29.4134 22.7835 29.4454 22.5766C29.7239 21.6326 29.8442 20.6489 29.8013 19.6656C29.7668 19.4761 29.6864 19.298 29.5671 19.1469C29.4478 18.9957 29.2932 18.8761 29.1169 18.7986C28.416 18.5056 27.658 18.3746 26.8994 18.4154ZM19.6537 19.9576C18.6407 20.1492 17.1898 21.9196 17.8286 22.6953C17.9322 22.8335 18.073 22.9396 18.2346 23.0009C18.3961 23.0623 18.5718 23.0766 18.7411 23.042C19.541 22.7248 20.3081 22.3306 21.0316 21.8648C21.3445 21.7736 21.6497 21.6577 21.9442 21.5181C22.0334 21.4289 22.1032 21.3222 22.1491 21.2047C22.195 21.0871 22.2161 20.9614 22.2109 20.8353C22.2058 20.7093 22.1746 20.5857 22.1192 20.4723C22.0639 20.3589 21.9856 20.2582 21.8894 20.1766C21.2016 19.9076 20.4511 19.8411 19.7267 19.985L19.6537 19.9576ZM29.2173 7.62894L27.7024 8.11259C24.8552 9.02515 21.9624 9.8647 19.5624 11.5256C18.8209 12.0328 18.2286 12.7291 17.8468 13.5423C17.8012 13.6427 17.7555 13.7431 17.7008 13.8435C17.5418 14.2262 17.3128 14.5759 17.0255 14.8746C16.4141 15.5226 15.4833 16.1979 14.6163 16.9279C13.534 17.6799 12.7241 18.7619 12.3076 20.0123C12.2798 20.1601 12.2615 20.3094 12.2528 20.4595C12.2528 20.8337 12.4901 21.1895 12.4627 21.5546C12.3571 22.2891 12.2109 23.0172 12.0247 23.7356C11.9196 24.2875 12.0202 24.8588 12.3076 25.3417C12.4407 25.5577 12.6431 25.7222 12.8818 25.8083C13.1204 25.8945 13.3812 25.8973 13.6217 25.8162C14.3243 25.6428 15.7479 25.15 15.9304 25.1957C16.624 25.3691 17.4635 26.2269 18.3122 26.1082C19.6719 25.9713 20.8218 24.7394 21.9624 24.3835C24.4446 23.6169 26.9998 26.2725 27.8849 28.6816C29.1716 32.195 30.504 36.6391 31.6903 37.4331C32.4021 37.9076 33.6888 38.1814 34.0812 38.4551C34.9208 39.0301 35.5504 40.4445 36.1162 41.6308C36.7212 41.0231 37.2681 40.3601 37.7497 39.6506C38.2431 38.7995 38.7886 37.9796 39.3832 37.1958C40.5239 36.0369 42.1208 36.0916 43.0882 33.9015C43.4806 32.9889 43.2068 31.8756 43.6174 30.9813C44.1285 29.9045 45.2783 29.2201 45.7802 28.1432C46.1626 27.3413 46.4211 26.4859 46.5468 25.6063C46.5953 25.2801 46.6166 24.9505 46.6106 24.6208C46.6106 22.6588 45.9536 20.7424 45.6981 18.7895C45.5247 17.4572 45.6981 16.0518 45.3513 14.7743C44.7216 12.5933 43.4258 12.3377 41.984 11.2153C41.1262 10.5582 40.4874 9.59094 39.5201 9.09816C38.2257 8.48383 36.8483 8.06261 35.4318 7.84795C34.2079 7.64119 32.962 7.59823 31.7268 7.72019C31.1726 7.74523 30.6173 7.72692 30.0659 7.66544C29.783 7.66544 29.5002 7.61069 29.1534 7.60156L29.2173 7.62894ZM40.9984 14.2632C40.9984 13.9986 41.3452 13.807 41.6098 13.7705C42.9057 13.5606 44.2197 15.2488 44.4844 16.4351C44.6669 17.2564 44.4844 18.1142 44.676 18.9355C44.8676 19.7568 45.2327 20.4321 45.3969 21.2078C45.9445 23.9455 46.0631 25.9987 44.4844 28.2893C43.4532 29.7493 42.1938 29.4391 42.1391 27.5683C42.1467 26.8518 42.2988 26.1441 42.5862 25.4877C43.4349 23.2976 44.4752 22.8413 44.4113 20.1857C44.4305 19.7594 44.3225 19.3369 44.1011 18.972C43.8182 18.5705 42.9786 18.2511 42.933 18.0595C42.8737 17.559 42.7318 17.0718 42.5132 16.6176C42.203 16.1431 41.7741 16.1887 41.4182 15.7051C41.0952 15.2767 40.9453 14.7424 40.9984 14.2085V14.2632ZM15.6202 18.9264C15.1821 18.7165 15.6202 17.3112 15.8848 17.0192C16.1495 16.7271 16.8612 16.5629 17.3266 16.2982C17.7154 16.1311 18.0733 15.8998 18.3852 15.6138C18.5586 15.4222 19.1335 13.3963 19.5807 12.7575C19.9001 12.2921 21.0043 11.5986 21.3328 11.918C21.497 12.0822 21.3328 12.9674 21.2598 13.1773C21.0407 13.6062 20.4476 13.9073 20.3472 14.7104C20.43 15.4373 20.4545 16.1697 20.4202 16.9005C20.3666 17.4331 20.1081 17.9239 19.6993 18.2694C19.243 18.5796 18.5768 18.3697 18.0384 18.534C17.6917 18.6344 17.4453 18.9994 17.1259 19.0633C16.6304 19.165 16.1159 19.1173 15.6475 18.9264H15.6202Z" fill="url(#paint4_radial_1216_25192)"/>
<path style="mix-blend-mode:multiply" opacity="0.7" fill-rule="evenodd" clip-rule="evenodd" d="M31.8384 56.5155C30.7798 56.1687 24.4649 55.0189 22.8315 53.1847C22.0558 52.3177 21.4626 50.6751 20.7873 50.3831C19.9856 50.2078 19.1754 50.0737 18.3599 49.9816C17.4853 49.8702 16.6235 49.6746 15.7865 49.3975C14.6649 48.9376 13.6563 48.2403 12.8298 47.3534C9.61762 44.0043 11.0047 43.3473 9.83664 39.478C9.55374 38.5655 8.76894 37.8172 8.40392 36.8955C8.05072 36.0456 7.84696 35.141 7.80162 34.2217C7.80162 34.1487 7.80162 34.0666 7.80162 33.9844C7.80096 33.6126 7.81924 33.2411 7.85637 32.8711C7.62996 32.183 7.49496 31.4681 7.45485 30.7449C7.21758 32.2506 7.18109 33.8019 7.08983 35.3715C6.84249 38.175 6.97448 40.9989 7.48222 43.7671C7.91113 45.2637 9.85488 48.5671 12.912 52.8196C15.0473 55.7854 18.3873 59.5634 19.8383 60.3026C22.0649 61.4342 30.5791 63.9528 36.1366 63.9528C38.4246 63.9677 40.7102 63.7998 42.9716 63.4509C45.2815 63.1361 47.5514 62.5763 49.7428 61.781C51.9968 60.5764 55.7748 57.0539 58.2113 54.0516C60.0365 51.7884 63.1848 47.6637 63.4585 46.9063C64.3366 43.5532 64.8988 40.1253 65.1376 36.6674C65.1242 37.7229 64.7794 38.7476 64.1521 39.5967C63.6101 40.2521 63.1276 40.9545 62.7102 41.6956C62.231 42.6616 61.8016 43.6515 61.4235 44.6614C60.511 46.9701 59.5984 49.8629 58.2022 51.9618C57.6793 52.7672 57.029 53.4822 56.2767 54.079C55.7744 54.4606 55.1901 54.7199 54.5702 54.8364C54.1596 54.9276 53.7307 54.6447 53.32 54.7269C51.2576 55.1467 50.1169 57.1725 48.5473 58.2129C47.6478 58.7868 46.6662 59.2206 45.6363 59.4996C44.5601 59.8442 43.4082 59.8762 42.3145 59.5919C41.2208 59.3076 40.2303 58.7186 39.4583 57.8935C38.68 57.2424 37.7618 56.7802 36.7753 56.5429C36.2982 56.4612 35.8106 56.4612 35.3335 56.5429C34.1718 56.7015 32.9924 56.6769 31.8384 56.4699V56.5155ZM56.0668 23.4992C56.3041 24.9319 57.2896 26.2368 57.3626 27.6604C57.3815 28.0733 57.3066 28.4851 57.1436 28.865C56.6052 30.1152 55.3185 30.973 55.9208 35.5358C56.0649 36.3609 56.1139 37.1999 56.0668 38.0362C55.9478 39.1542 55.731 40.2596 55.4189 41.3397C56.0212 40.8469 56.514 40.4271 56.8242 40.1442C58.5581 38.7936 60.0364 38.2278 60.8577 36.9959C61.2045 36.4757 61.1133 35.1251 61.1406 34.3221C61.1406 33.1631 61.9437 32.7342 62.4091 31.9586L62.5003 31.7852C63.6137 29.4947 61.8433 25.0231 61.0585 22.7509C60.8395 22.0938 60.5566 21.4641 60.3467 20.798C60.3467 20.6885 60.2737 20.579 60.2463 20.4695C60.1551 20.1409 60.0821 19.8307 60.0091 19.5569C59.4801 17.7351 58.5262 16.065 57.2258 14.6838C56.0577 13.6527 54.2326 13.1872 52.955 12.2199C48.0315 8.64977 42.251 6.44589 36.2004 5.83203C35.2195 5.88267 34.2498 6.06373 33.3168 6.37044C35.0597 6.58033 37.04 6.8176 38.9381 7.15524C40.7088 7.42487 42.4421 7.89954 44.1032 8.5697C44.7328 8.8526 45.0614 9.57352 45.618 9.97504C46.5306 10.6412 47.653 11.0701 48.5747 11.7545C49.3504 12.3203 49.9253 13.1325 50.6918 13.7165C51.3374 14.1286 51.9344 14.6123 52.4713 15.1584C52.982 15.8747 53.4279 16.6352 53.8037 17.4306C54.5665 18.5167 55.2264 19.6715 55.7748 20.8801C55.9459 21.7427 56.0346 22.6197 56.0394 23.4992H56.0668Z" fill="url(#paint5_radial_1216_25192)"/>
<path style="mix-blend-mode:screen" fill-rule="evenodd" clip-rule="evenodd" d="M12.0372 21.2822C10.4222 24.1925 9.35796 27.3759 8.89804 30.6724C8.79766 31.5849 8.39612 34.2679 10.0296 33.3188C12.092 32.1325 16.1164 29.2214 16.5453 34.0762C16.7369 36.2755 16.9742 42.1159 18.1696 43.7311C19.6753 45.7661 23.07 47.6095 28.0161 46.7608C29.6405 46.487 31.3378 44.7532 31.2739 44.1144C31.1827 43.2018 26.5652 43.2748 34.185 41.8603C34.3452 41.8289 34.4923 41.7505 34.6077 41.6351C34.7231 41.5197 34.8015 41.3726 34.8329 41.2124C34.8375 40.9298 34.7765 40.6501 34.6545 40.3951C34.5326 40.1401 34.3531 39.917 34.1303 39.7432C33.7301 39.5916 33.3136 39.4875 32.8892 39.4329C30.6352 39.0679 30.1515 38.7759 29.6679 37.0238C28.8283 33.9485 28.591 30.7819 26.994 27.7522C26.541 26.8535 25.7756 26.1509 24.8415 25.7763C23.9074 25.4016 22.8687 25.3806 21.9202 25.7172C20.5331 26.21 17.9689 27.9895 16.5453 27.9165C15.6783 27.8708 15.6327 27.3507 15.6327 26.8944C15.6327 26.4381 15.7057 26.1917 15.5141 26.0548C15.1764 25.8084 14.0814 26.2374 13.689 26.3742C12.7764 26.6754 11.7908 26.8488 11.5079 25.4617C11.4303 24.9151 11.4489 24.3592 11.5627 23.8191C11.6677 23.3469 11.808 22.8832 11.9825 22.432C12.1009 22.1341 12.2015 21.8293 12.2836 21.5194C12.2836 21.4282 12.3292 21.273 12.2836 21.2274C12.238 21.1818 12.1285 21.3278 12.0829 21.4008L12.0372 21.2822Z" fill="url(#paint6_radial_1216_25192)"/>
<path style="mix-blend-mode:multiply" fill-rule="evenodd" clip-rule="evenodd" d="M55.4196 41.3403C54.827 42.1409 54.302 42.9894 53.8501 43.8772C53.4212 44.9266 54.0143 46.2863 52.6364 47.9746C52.193 48.4513 51.607 48.7714 50.9664 48.8871C47.9549 49.5807 44.1769 49.243 41.4301 51.6248C39.8058 53.021 39.9609 55.275 37.0225 56.4705C37.678 56.6244 38.2977 56.9032 38.8476 57.2918C39.6152 58.311 40.676 59.0714 41.8878 59.471C43.0996 59.8705 44.4046 59.8903 45.6279 59.5275C46.6579 59.2486 47.6394 58.8147 48.539 58.2408C50.1086 57.2005 51.2766 55.1746 53.3116 54.7549C53.7223 54.6727 54.1512 54.9556 54.5619 54.8644C55.1818 54.7479 55.7661 54.4885 56.2683 54.1069C57.0206 53.5102 57.6709 52.7952 58.1938 51.9898C59.5535 49.9183 60.4661 47.0255 61.4152 44.6893C61.7932 43.6794 62.2227 42.6895 62.7019 41.7235C63.1192 40.9825 63.6017 40.2801 64.1437 39.6247C65.1486 32.9759 63.7648 26.1861 60.238 20.4609C60.238 20.5704 60.3018 20.68 60.3383 20.7895C60.5482 21.4556 60.8311 22.0853 61.0501 22.7423C61.8349 25.0146 63.6053 29.4861 62.492 31.7766C62.0631 32.6892 61.1596 33.0725 61.1323 34.3136C61.1323 35.1166 61.1961 36.4672 60.8494 36.9874C60.0281 38.2193 58.5497 38.8125 56.8159 40.1357C56.5056 40.3821 56.0128 40.8383 55.4105 41.3311L55.4196 41.3403ZM38.9115 52.8202C38.9618 53.0632 38.9541 53.3145 38.8891 53.5539C38.8241 53.7933 38.7036 54.0141 38.5373 54.1982C38.0774 54.6254 37.5038 54.9106 36.8856 55.0195C35.9892 55.189 35.0639 55.1198 34.2027 54.8187C33.646 54.3625 33.6095 52.5647 34.9601 52.3366C35.5259 52.2453 36.1008 52.4461 36.6757 52.4096C37.2506 52.3731 37.5883 52.0537 38.0172 52.1358C38.2172 52.156 38.4079 52.2304 38.5687 52.3511C38.7295 52.4717 38.8543 52.6339 38.9297 52.8202H38.9115ZM51.1033 45.3738C51.223 45.3493 51.3468 45.3522 51.4653 45.3822C51.5838 45.4122 51.694 45.4686 51.7877 45.5471C51.9876 45.8014 52.1255 46.0987 52.1905 46.4155C52.2554 46.7323 52.2456 47.0599 52.1618 47.3723C51.8435 47.6563 51.4673 47.8679 51.0593 47.9924C50.6512 48.1168 50.221 48.1512 49.7983 48.0932C49.705 48.0661 49.6221 48.0116 49.5602 47.9367C49.4984 47.8619 49.4605 47.7701 49.4515 47.6734C49.4476 47.1678 49.6059 46.6742 49.9032 46.2653C50.2005 45.8563 50.6211 45.5534 51.1033 45.4011V45.3738Z" fill="url(#paint7_radial_1216_25192)"/>
<path style="mix-blend-mode:screen" opacity="0.6" fill-rule="evenodd" clip-rule="evenodd" d="M15.5139 36.8602C15.6416 40.2458 15.0941 43.1477 16.5725 46.5151C17.3938 48.3402 19.8029 48.9333 21.6463 48.9333C22.4402 48.9333 23.2068 48.7417 23.9916 48.7052C24.9041 48.7052 27.1034 48.9425 27.2859 50.074C27.4684 51.2056 27.0851 52.5379 27.5505 53.633C27.7612 54.0855 28.0553 54.4941 28.4174 54.8376C29.7407 56.1334 30.2426 55.9418 32.0677 56.2156C33.2905 56.4072 36.9955 56.8087 38.0632 57.4201C39.5872 58.2871 40.4997 59.9844 42.7537 60.751C44.0496 61.189 48.3112 59.7198 49.4154 58.6247C50.7842 57.2832 51.3865 56.1334 52.6732 55.595C53.3759 55.3121 53.7683 56.3798 55.5934 55.4125C56.1814 55.1061 56.7173 54.7089 57.1813 54.2353C60.7859 50.3661 61.233 45.2284 63.633 40.2914C63.29 40.7463 62.9848 41.2286 62.7205 41.7333C62.2413 42.6993 61.8119 43.6892 61.4338 44.6991C60.5212 47.0078 59.6087 49.9007 58.2125 51.9995C57.6896 52.8049 57.0393 53.5199 56.287 54.1167C55.7847 54.4983 55.2004 54.7576 54.5805 54.8741C54.1698 54.9653 53.7409 54.6825 53.3303 54.7646C51.2679 55.1844 50.1272 57.2102 48.5576 58.2506C47.658 58.8245 46.6765 59.2583 45.6465 59.5373C44.4232 59.9 43.1182 59.8803 41.9064 59.4807C40.6946 59.0811 39.6339 58.3208 38.8662 57.3015C37.6434 56.2703 33.5916 55.8232 31.8669 55.3669C27.7513 54.2809 28.3262 51.1326 28.1163 50.293C28.0384 49.8835 27.8681 49.4972 27.6182 49.1635C27.3683 48.8298 27.0455 48.5576 26.6745 48.3676C26.0265 48.0299 22.0113 47.674 20.8067 47.1174C17.7496 45.6846 16.6455 42.7006 16.2439 38.3112C16.1242 36.86 15.852 35.4254 15.4318 34.0313C15.138 33.5418 14.6986 33.1563 14.175 32.9289C13.6514 32.7015 13.0698 32.6434 12.5116 32.7628C11.5067 33.1838 10.5311 33.6716 9.5914 34.2229C9.42949 34.316 9.24293 34.3571 9.05689 34.3408C8.87086 34.3245 8.6943 34.2515 8.55107 34.1317C7.85574 33.1494 7.47977 31.9769 7.47426 30.7734C7.47426 31.0016 7.41038 31.2206 7.383 31.4487C7.37757 32.4382 7.49093 33.4247 7.72064 34.3872C7.97616 35.172 9.05298 35.8199 9.74652 35.2997C10.4401 34.7796 11.1792 33.7119 12.0553 33.1735C12.2947 33.0368 12.558 32.947 12.831 32.9088C14.9937 32.6533 15.4865 35.3819 15.5686 36.8693L15.5139 36.8602Z" fill="url(#paint8_radial_1216_25192)"/>
<path style="mix-blend-mode:screen" fill-rule="evenodd" clip-rule="evenodd" d="M42.0857 41.8797C41.8485 41.8797 41.7116 41.4326 41.7207 41.1406C41.7425 40.7924 41.7975 40.4471 41.885 40.1094C41.5617 40.8246 41.4146 41.607 41.4561 42.3908C41.5382 42.6919 42.2317 42.8744 42.6515 42.7649C43.4181 42.5641 44.1481 42.2174 44.9055 41.9801C45.663 41.7429 47.0501 41.4965 47.5063 41.2866C47.6658 41.2044 47.8034 41.0856 47.9079 40.9398C47.94 40.8577 47.9615 40.7718 47.9717 40.6843C47.9297 40.7812 47.8658 40.867 47.7851 40.9351C47.7043 41.0031 47.6089 41.0516 47.5063 41.0767C46.8128 41.2318 46.028 41.2318 45.3162 41.3322C44.212 41.4965 42.8432 41.752 42.0857 41.8797Z" fill="url(#paint9_radial_1216_25192)"/>
<path style="mix-blend-mode:screen" fill-rule="evenodd" clip-rule="evenodd" d="M17.039 22.7409C17.1143 22.9256 17.2273 23.0927 17.3708 23.2312C17.5143 23.3698 17.6851 23.4769 17.8724 23.5456C18.0597 23.6143 18.2592 23.6432 18.4583 23.6303C18.6574 23.6175 18.8516 23.5632 19.0284 23.4709C19.8434 22.8001 20.7066 22.1901 21.611 21.6458C21.4006 21.7048 21.1934 21.7748 20.9904 21.8557C20.2669 22.3215 19.4998 22.7157 18.6999 23.0329C18.5306 23.0674 18.3549 23.0532 18.1934 22.9918C18.0318 22.9304 17.891 22.8244 17.7873 22.6861C17.3767 22.1842 17.8969 21.2169 18.5904 20.5781C17.8877 21.1257 16.82 22.1295 17.0208 22.7774L17.039 22.7409Z" fill="url(#paint10_radial_1216_25192)"/>
<path style="mix-blend-mode:screen" fill-rule="evenodd" clip-rule="evenodd" d="M26.649 23.3599C27.0177 24.0069 27.4858 24.592 28.0361 25.0937C28.1044 25.1455 28.1877 25.1736 28.2734 25.1736C28.3591 25.1736 28.4424 25.1455 28.5106 25.0937C28.7297 24.9021 28.7297 24.5553 28.9122 24.318C29.0947 24.0808 29.2772 24.1812 29.3502 24.0169C29.4287 23.8376 29.4898 23.6512 29.5327 23.4602C29.7209 22.5788 29.8067 21.6785 29.7882 20.7773C29.7224 21.3784 29.6095 21.9734 29.4506 22.5568C29.3899 22.895 29.2385 23.2104 29.0126 23.4694C28.9518 23.5343 28.8769 23.5843 28.7935 23.6154C28.6384 23.6641 28.4734 23.673 28.3139 23.6411C28.1544 23.6092 28.0055 23.5376 27.881 23.4329C27.8313 23.3983 27.7854 23.3585 27.7441 23.3142C26.775 22.4682 25.9626 21.4581 25.3441 20.3302C25.2588 20.1382 25.2364 19.9242 25.2802 19.7188C25.2113 19.9088 25.1773 20.1098 25.1798 20.3119C25.4923 21.4122 25.9824 22.4541 26.6308 23.3964L26.649 23.3599Z" fill="url(#paint11_radial_1216_25192)"/>
<path style="mix-blend-mode:screen" fill-rule="evenodd" clip-rule="evenodd" d="M31.0836 25.7175C30.6288 26.8979 30.4177 28.1582 30.463 29.4225C30.5609 29.8499 30.6952 30.2682 30.8646 30.6727C30.9524 31.2927 31.0959 31.9035 31.2935 32.4978C31.987 33.9396 34.3414 34.2134 35.6829 33.6293C36.3034 33.3647 36.4312 32.6164 36.4585 31.9776C36.4061 32.1864 36.3029 32.379 36.158 32.5383C36.0131 32.6975 35.8311 32.8184 35.6281 32.8902C35.0289 33.0024 34.4106 32.9534 33.8366 32.7481C33.2626 32.5429 32.7534 32.1888 32.3612 31.7221C31.704 30.4856 31.2744 29.141 31.0927 27.7525C30.996 27.0715 30.996 26.3802 31.0927 25.6992L31.0836 25.7175Z" fill="url(#paint12_radial_1216_25192)"/>
<path style="mix-blend-mode:screen" fill-rule="evenodd" clip-rule="evenodd" d="M17.8463 13.5282C17.6551 14.0182 17.3768 14.4696 17.025 14.8606C15.5558 16.4119 12.3344 18.0728 12.2523 20.4454C12.2523 20.8196 12.4896 21.1755 12.4622 21.5405C12.3566 22.275 12.2104 23.0031 12.0242 23.7215C11.8416 24.7801 12.3253 26.1215 13.6211 25.8021C14.3238 25.6287 15.7474 25.136 15.9299 25.1816C16.6234 25.355 17.463 26.2128 18.3117 26.0941C19.6714 25.9573 20.8212 24.7253 21.9619 24.3694C24.4441 23.6029 26.9992 26.2584 27.8844 28.6676C29.1711 32.1809 30.5034 36.6251 31.6898 37.419C32.4016 37.8935 33.6883 38.1673 34.0807 38.4411C35.3674 39.3536 36.1522 42.1552 36.9735 43.1499C37.407 43.7118 38.0032 44.1264 38.681 44.3371C39.3587 44.5478 40.0849 44.5443 40.7606 44.327C42.0199 43.9803 44.5203 43.4145 45.3234 43.3415C47.5592 43.0677 51.8573 43.4875 52.8885 43.0038C54.2993 42.1996 55.6103 41.2317 56.7942 40.1202C58.5281 38.7696 60.0065 38.2038 60.8278 36.9718C61.1745 36.4517 61.0833 35.1011 61.1107 34.298C61.1107 33.057 62.0232 32.6463 62.4704 31.7611C63.5837 29.4706 61.8133 24.9991 61.0285 22.7268C60.8095 22.0698 60.5266 21.4401 60.3167 20.7739C60.1707 20.3268 60.0703 19.9161 59.9791 19.5055C59.4501 17.6837 58.4962 16.0135 57.1958 14.6324C56.0277 13.6012 54.2026 13.1358 52.925 12.1685C48.0015 8.59835 42.221 6.39447 36.1704 5.78061C34.7925 5.69848 30.4031 7.18595 27.6745 8.03463C24.946 8.88331 21.9345 9.78674 19.5345 11.4476C18.793 11.9548 18.2007 12.6511 17.8189 13.4643L17.8463 13.5282ZM9.56024 34.1976C9.39833 34.2907 9.2118 34.3319 9.02576 34.3155C8.83973 34.2992 8.66317 34.2262 8.51994 34.1064C7.82461 33.1242 7.44864 31.9516 7.44313 30.7482C7.20586 32.2539 7.16937 33.8053 7.07811 35.3749C6.83078 38.1783 6.96276 41.0023 7.4705 43.7704C7.89941 45.267 9.84314 48.5704 12.9002 52.823C15.0356 55.7888 18.3756 59.5668 19.8265 60.3059C22.0532 61.4375 30.5673 63.9562 36.1248 63.9562C38.4129 63.971 40.6985 63.8032 42.9599 63.4543C45.2698 63.1394 47.5396 62.5796 49.7311 61.7843C51.9851 60.5797 55.7631 57.0572 58.1996 54.0549C60.0247 51.7918 63.173 47.667 63.4468 46.9096C64.328 43.5568 64.8932 40.1289 65.135 36.6707C64.8613 39.5726 63.9305 39.4084 62.7076 41.6989C62.2284 42.6649 61.799 43.6548 61.4209 44.6647C60.5084 46.9735 59.5958 49.8663 58.1996 51.9652C57.6767 52.7705 57.0264 53.4856 56.2741 54.0823C55.7718 54.4639 55.1875 54.7232 54.5676 54.8397C54.157 54.931 53.7281 54.6481 53.3174 54.7302C51.255 55.15 50.1143 57.1759 48.5447 58.2162C47.6452 58.7901 46.6636 59.2239 45.6337 59.5029C44.4103 59.8656 43.1054 59.8459 41.8936 59.4463C40.6817 59.0467 39.621 58.2864 38.8534 57.2671C37.6305 56.2359 33.5788 55.7888 31.8541 55.3325C27.7384 54.2465 28.3133 51.0982 28.1034 50.2587C28.0256 49.8491 27.8552 49.4628 27.6053 49.1291C27.3554 48.7954 27.0327 48.5232 26.6616 48.3332C26.0137 47.9955 21.9984 47.6396 20.7939 47.083C17.7368 45.6503 16.6326 42.6662 16.2311 38.2768C16.1114 36.8256 15.8391 35.3911 15.4189 33.9969C15.1251 33.5074 14.6857 33.122 14.1621 32.8945C13.6385 32.6671 13.0569 32.609 12.4987 32.7284C11.4938 33.1494 10.5182 33.6372 9.57851 34.1885L9.56024 34.1976ZM42.2481 39.1528C41.9319 39.7712 41.7485 40.4488 41.7097 41.1422C41.7097 41.4342 41.8374 41.9179 42.0747 41.8814C42.8321 41.7536 44.201 41.4981 45.3051 41.3339C46.0169 41.2335 46.8017 41.2335 47.4953 41.0783C47.6145 41.0488 47.7233 40.9873 47.8102 40.9004C47.897 40.8136 47.9585 40.7047 47.9881 40.5856C48.0519 40.257 47.2033 39.162 46.8565 39.016C45.8071 38.5597 43.115 38.3589 42.2481 39.1528ZM32.6115 23.5937C30.9689 23.7032 30.8959 26.5322 31.0875 27.7641C31.2691 29.1526 31.6988 30.4972 32.3559 31.7337C32.7482 32.2004 33.2574 32.5545 33.8314 32.7598C34.4054 32.965 35.0237 33.014 35.6229 32.9018C35.8404 32.8257 36.0332 32.6923 36.181 32.5156C36.3288 32.3389 36.426 32.1255 36.4625 31.898C36.5537 30.8486 35.9697 29.8265 35.9788 28.7771C35.9879 27.7276 36.7545 25.3459 36.2252 24.8713C35.2113 24.0034 33.9087 23.5475 32.575 23.5937H32.6115ZM26.8988 18.4195C26.6623 18.415 26.4274 18.4597 26.209 18.5508C25.9906 18.6419 25.7936 18.7775 25.6304 18.9488C25.4703 19.1338 25.3609 19.3572 25.3129 19.5971C25.2649 19.837 25.28 20.0853 25.3566 20.3177C25.9752 21.4456 26.7876 22.4557 27.7566 23.3017C27.883 23.4436 28.0467 23.547 28.229 23.6002C28.4114 23.6535 28.605 23.6544 28.7878 23.6029C28.9627 23.4879 29.1116 23.3375 29.2248 23.1615C29.3379 22.9855 29.4129 22.7876 29.4449 22.5808C29.7234 21.6367 29.8437 20.6531 29.8008 19.6697C29.7663 19.4803 29.6859 19.3022 29.5666 19.151C29.4472 18.9999 29.2927 18.8803 29.1164 18.8028C28.4155 18.5098 27.6574 18.3787 26.8988 18.4195ZM19.6532 19.9618C18.6402 20.1534 17.1893 21.9238 17.828 22.6994C17.9317 22.8377 18.0725 22.9437 18.2341 23.0051C18.3956 23.0665 18.5713 23.0807 18.7406 23.0462C19.5405 22.729 20.3076 22.3347 21.0311 21.869C21.344 21.7778 21.6492 21.6618 21.9437 21.5222C22.0329 21.433 22.1027 21.3263 22.1486 21.2088C22.1945 21.0913 22.2156 20.9655 22.2104 20.8395C22.2053 20.7134 22.1741 20.5898 22.1187 20.4764C22.0634 20.3631 21.9851 20.2624 21.8889 20.1808C21.2011 19.9118 20.4506 19.8453 19.7261 19.9891L19.6532 19.9618Z" fill="url(#paint13_radial_1216_25192)"/>
</g>
<defs>
<radialGradient id="paint0_radial_1216_25192" cx="0" cy="0" r="1" gradientUnits="userSpaceOnUse" gradientTransform="translate(33.5 33.5) scale(33.5 33.5)">
<stop stop-color="#9B19FF"/>
<stop offset="0.41" stop-color="#580E91"/>
<stop offset="0.97"/>
</radialGradient>
<linearGradient id="paint1_linear_1216_25192" x1="7.44541" y1="42.5537" x2="65.1373" y2="42.5537" gradientUnits="userSpaceOnUse">
<stop stop-color="#4F309E"/>
<stop offset="0.33" stop-color="#472990"/>
<stop offset="1" stop-color="#391D77"/>
</linearGradient>
<radialGradient id="paint2_radial_1216_25192" cx="0" cy="0" r="1" gradientUnits="userSpaceOnUse" gradientTransform="translate(25.8447 22.6321) scale(46.2849 46.2849)">
<stop stop-color="#71F5FF"/>
<stop offset="0.13" stop-color="#6AE9FF"/>
<stop offset="0.36" stop-color="#56C9FF"/>
<stop offset="0.38" stop-color="#54C5FF"/>
<stop offset="0.92" stop-color="#1483FF"/>
</radialGradient>
<radialGradient id="paint3_radial_1216_25192" cx="0" cy="0" r="1" gradientUnits="userSpaceOnUse" gradientTransform="translate(27.5742 21.7321) scale(45.7556 45.7556)">
<stop stop-color="#7A369E"/>
<stop offset="0.23" stop-color="#6E349E"/>
<stop offset="0.63" stop-color="#4F309E"/>
<stop offset="1" stop-color="#33128A"/>
</radialGradient>
<radialGradient id="paint4_radial_1216_25192" cx="0" cy="0" r="1" gradientUnits="userSpaceOnUse" gradientTransform="translate(16.3137 10.0107) scale(40.5997 40.5997)">
<stop stop-color="#8D6EFF"/>
<stop offset="1"/>
</radialGradient>
<radialGradient id="paint5_radial_1216_25192" cx="0" cy="0" r="1" gradientUnits="userSpaceOnUse" gradientTransform="translate(28.9182 27.0946) scale(47.9367 47.9367)">
<stop offset="0.45" stop-color="white"/>
<stop offset="0.5" stop-color="#F8F4F9"/>
<stop offset="0.58" stop-color="#E7D6E8"/>
<stop offset="0.69" stop-color="#CAA6CD"/>
<stop offset="0.83" stop-color="#A263A8"/>
<stop offset="0.97" stop-color="#700F79"/>
<stop offset="1" stop-color="#670070"/>
</radialGradient>
<radialGradient id="paint6_radial_1216_25192" cx="0" cy="0" r="1" gradientUnits="userSpaceOnUse" gradientTransform="translate(19.8487 19.0099) scale(36.4202 36.4202)">
<stop stop-color="#91FBFF"/>
<stop offset="1"/>
</radialGradient>
<radialGradient id="paint7_radial_1216_25192" cx="0" cy="0" r="1" gradientUnits="userSpaceOnUse" gradientTransform="translate(32.1129 27.7797) scale(45.4637 45.4636)">
<stop offset="0.33" stop-color="white"/>
<stop offset="0.4" stop-color="#F4FAFA"/>
<stop offset="0.52" stop-color="#D6EEED"/>
<stop offset="0.68" stop-color="#A6DAD7"/>
<stop offset="0.87" stop-color="#64BEB9"/>
<stop offset="1" stop-color="#35AAA4"/>
</radialGradient>
<radialGradient id="paint8_radial_1216_25192" cx="0" cy="0" r="1" gradientUnits="userSpaceOnUse" gradientTransform="translate(24.1102 36.5682) scale(53.6493 53.6493)">
<stop stop-color="#00E1FF"/>
<stop offset="1"/>
</radialGradient>
<radialGradient id="paint9_radial_1216_25192" cx="0" cy="0" r="1" gradientUnits="userSpaceOnUse" gradientTransform="translate(42.7884 39.9999) scale(5.61224 5.61221)">
<stop stop-color="#00E1FF"/>
<stop offset="1"/>
</radialGradient>
<radialGradient id="paint10_radial_1216_25192" cx="0" cy="0" r="1" gradientUnits="userSpaceOnUse" gradientTransform="translate(15.8162 22.9508) scale(6.48828 6.4883)">
<stop stop-color="#00E1FF"/>
<stop offset="1"/>
</radialGradient>
<radialGradient id="paint11_radial_1216_25192" cx="0" cy="0" r="1" gradientUnits="userSpaceOnUse" gradientTransform="translate(27.662 21.1423) scale(6.02287 6.02289)">
<stop stop-color="#00E1FF"/>
<stop offset="1"/>
</radialGradient>
<radialGradient id="paint12_radial_1216_25192" cx="0" cy="0" r="1" gradientUnits="userSpaceOnUse" gradientTransform="translate(34.8981 29.2582) scale(6.40613 6.40616)">
<stop stop-color="#00E1FF"/>
<stop offset="1"/>
</radialGradient>
<radialGradient id="paint13_radial_1216_25192" cx="0" cy="0" r="1" gradientUnits="userSpaceOnUse" gradientTransform="translate(46.9204 42.5567) scale(43.3191 43.3191)">
<stop offset="0.04"/>
<stop offset="0.84"/>
<stop offset="0.85" stop-color="#0F0A16"/>
<stop offset="0.9" stop-color="#452F68"/>
<stop offset="0.93" stop-color="#704CA9"/>
<stop offset="0.96" stop-color="#8F61D7"/>
<stop offset="0.99" stop-color="#A26EF4"/>
<stop offset="1" stop-color="#A973FF"/>
</radialGradient>
</defs>
</svg>
